<?xml version="1.0" encoding="UTF-8"?>
<svg id="Layer_2" data-name="Layer 2" xmlns="http://www.w3.org/2000/svg" viewBox="0 0 1692.05 1692.03">
  <defs>
    <style>
      .cls-1 {
        fill: #fff;
        stroke-width: 0px;
      }
    </style>
  </defs>
  <g id="Layer_1-2" data-name="Layer 1">
    <g>
      <g>
        <g>
          <g id="_Radial_Repeat_" data-name="&amp;lt;Radial Repeat&amp;gt;">
            <path class="cls-1" d="M234.18,763.89c46.58,0,84.34,37.76,84.34,84.34,0,46.58-37.76,84.34-84.34,84.34-46.58,0-84.34-37.76-84.34-84.34,0-46.58,37.76-84.34,84.34-84.34Z"/>
          </g>
          <g id="_Radial_Repeat_-2" data-name="&amp;lt;Radial Repeat&amp;gt;">
            <path class="cls-1" d="M929.77,236.96c0,46.58-37.76,84.34-84.34,84.34-46.58,0-84.34-37.76-84.34-84.34s37.76-84.34,84.34-84.34c46.58,0,84.34,37.76,84.34,84.34Z"/>
          </g>
          <g id="_Radial_Repeat_-3" data-name="&amp;lt;Radial Repeat&amp;gt;">
            <circle class="cls-1" cx="1456.7" cy="848.22" r="84.34"/>
          </g>
          <g id="_Radial_Repeat_-4" data-name="&amp;lt;Radial Repeat&amp;gt;">
            <path class="cls-1" d="M761.1,1459.48c0-46.58,37.76-84.34,84.34-84.34,46.58,0,84.34,37.76,84.34,84.34,0,46.58-37.76,84.34-84.34,84.34-46.58,0-84.34-37.76-84.34-84.34Z"/>
          </g>
        </g>
        <g>
          <g id="_Radial_Repeat_-5" data-name="&amp;lt;Radial Repeat&amp;gt;">
            <circle class="cls-1" cx="170.57" cy="1127.4" r="58.34"/>
          </g>
          <g id="_Radial_Repeat_-6" data-name="&amp;lt;Radial Repeat&amp;gt;">
            <circle class="cls-1" cx="566.26" cy="173.36" r="58.34"/>
          </g>
          <g id="_Radial_Repeat_-7" data-name="&amp;lt;Radial Repeat&amp;gt;">
            <circle class="cls-1" cx="1520.3" cy="569.05" r="58.34"/>
          </g>
          <g id="_Radial_Repeat_-8" data-name="&amp;lt;Radial Repeat&amp;gt;">
            <circle class="cls-1" cx="1124.61" cy="1523.09" r="58.34"/>
          </g>
        </g>
        <g>
          <g id="_Radial_Repeat_-9" data-name="&amp;lt;Radial Repeat&amp;gt;">
            <circle class="cls-1" cx="565.64" cy="1522.83" r="70.92"/>
          </g>
          <g id="_Radial_Repeat_-10" data-name="&amp;lt;Radial Repeat&amp;gt;">
            <circle class="cls-1" cx="170.83" cy="568.42" r="70.92"/>
          </g>
          <g id="_Radial_Repeat_-11" data-name="&amp;lt;Radial Repeat&amp;gt;">
            <circle class="cls-1" cx="1125.24" cy="173.61" r="70.92"/>
          </g>
          <g id="_Radial_Repeat_-12" data-name="&amp;lt;Radial Repeat&amp;gt;">
            <circle class="cls-1" cx="1520.05" cy="1128.02" r="70.92"/>
          </g>
        </g>
        <g>
          <g id="_Radial_Repeat_-13" data-name="&amp;lt;Radial Repeat&amp;gt;">
            <circle class="cls-1" cx="696.19" cy="1208.07" r="66.8"/>
          </g>
          <g id="_Radial_Repeat_-14" data-name="&amp;lt;Radial Repeat&amp;gt;">
            <circle class="cls-1" cx="485.59" cy="698.97" r="66.8"/>
          </g>
          <g id="_Radial_Repeat_-15" data-name="&amp;lt;Radial Repeat&amp;gt;">
            <circle class="cls-1" cx="994.69" cy="488.37" r="66.8"/>
          </g>
          <g id="_Radial_Repeat_-16" data-name="&amp;lt;Radial Repeat&amp;gt;">
            <circle class="cls-1" cx="1205.29" cy="997.47" r="66.8"/>
          </g>
        </g>
        <g>
          <g id="_Radial_Repeat_-17" data-name="&amp;lt;Radial Repeat&amp;gt;">
            <circle class="cls-1" cx="994.36" cy="1208.21" r="66.8"/>
          </g>
          <g id="_Radial_Repeat_-18" data-name="&amp;lt;Radial Repeat&amp;gt;">
            <circle class="cls-1" cx="485.45" cy="997.14" r="66.8"/>
          </g>
          <g id="_Radial_Repeat_-19" data-name="&amp;lt;Radial Repeat&amp;gt;">
            <circle class="cls-1" cx="696.52" cy="488.23" r="66.8"/>
          </g>
          <g id="_Radial_Repeat_-20" data-name="&amp;lt;Radial Repeat&amp;gt;">
            <circle class="cls-1" cx="1205.43" cy="699.31" r="66.8"/>
          </g>
        </g>
        <g>
          <g id="_Radial_Repeat_-21" data-name="&amp;lt;Radial Repeat&amp;gt;">
            <circle class="cls-1" cx="413.21" cy="1280.45" r="99.05"/>
          </g>
          <g id="_Radial_Repeat_-22" data-name="&amp;lt;Radial Repeat&amp;gt;">
            <circle class="cls-1" cx="413.21" cy="416" r="99.05"/>
          </g>
          <g id="_Radial_Repeat_-23" data-name="&amp;lt;Radial Repeat&amp;gt;">
            <circle class="cls-1" cx="1277.66" cy="415.99" r="99.05"/>
          </g>
          <g id="_Radial_Repeat_-24" data-name="&amp;lt;Radial Repeat&amp;gt;">
            <circle class="cls-1" cx="1277.67" cy="1280.45" r="99.05"/>
          </g>
        </g>
        <path class="cls-1" d="M1201.9,710.7c-1.04,0-2.1-.15-3.14-.46-5.93-1.72-9.32-7.92-7.59-13.86l76.05-260.01-269.19,59.09c-6.04,1.33-11.99-2.49-13.31-8.51-1.33-6.02,2.49-11.98,8.52-13.32l287.6-63.13c3.87-.85,7.87.41,10.57,3.3,2.69,2.88,3.67,6.96,2.56,10.76l-81.34,278.1c-1.43,4.87-5.89,8.03-10.72,8.03Z"/>
        <path class="cls-1" d="M490.14,710.7c-4.98,0-9.52-3.34-10.82-8.38l-71.51-278.1c-.97-3.78.09-7.79,2.8-10.57,2.71-2.82,6.7-3.95,10.47-3.14l280.68,63.13c6.02,1.38,9.81,7.33,8.45,13.36-1.35,6.02-7.31,9.76-13.35,8.47l-262.86-59.14,66.96,260.4c1.54,5.98-2.06,12.07-8.04,13.62-.93.24-1.87.35-2.79.35Z"/>
        <path class="cls-1" d="M418.63,1294.61c-2.92,0-5.76-1.14-7.89-3.25-2.78-2.77-3.91-6.81-2.96-10.63l71.51-287.6c1.48-5.98,7.56-9.65,13.54-8.14,5.99,1.48,9.64,7.55,8.15,13.56l-67,269.46,256.77-65.12c6-1.57,12.07,2.1,13.58,8.08,1.52,5.98-2.1,12.07-8.08,13.58l-274.87,69.72c-.91.24-1.83.35-2.75.35Z"/>
        <path class="cls-1" d="M1272.24,1294.61c-1.04,0-2.08-.15-3.11-.44l-270.8-78.43c-5.93-1.72-9.34-7.92-7.62-13.84,1.71-5.94,7.9-9.43,13.85-7.64l252.24,73.06-65.75-268.83c-1.47-6,2.2-12.05,8.2-13.51,6.02-1.44,12.05,2.2,13.51,8.19l70.34,287.6c.95,3.89-.24,7.97-3.12,10.74-2.11,2.01-4.89,3.1-7.73,3.1Z"/>
        <path class="cls-1" d="M844.85,1477.64h0c-3.93,0-7.57-2.07-9.59-5.44l-150.74-251.73-201.54-215.93-239.86-149.03c-3.3-2.05-5.3-5.68-5.28-9.56.02-3.86,2.05-7.47,5.38-9.5l239.9-145.75,207.28-213.03,144.88-240.03c2-3.32,5.59-5.37,9.48-5.39,3.48.31,7.5,1.94,9.56,5.26l150.17,240.14,204.35,212.97,254.25,145.71c3.46,1.99,5.6,5.65,5.62,9.65.02,3.97-2.08,7.66-5.53,9.69l-254.3,149.03-198.5,207.14-155.94,260.38c-2.02,3.36-5.66,5.44-9.59,5.44ZM270.38,846.13l225.67,140.21c.83.52,1.6,1.16,2.27,1.88l203.36,217.88c.54.57,1.02,1.2,1.42,1.88l141.76,236.74,147-245.45c.43-.72.94-1.4,1.52-1.99l200.45-209.17c.71-.74,1.53-1.4,2.42-1.92l239-140.06-238.91-136.91c-.93-.52-1.77-1.18-2.51-1.96l-206.26-214.97c-.53-.55-1-1.16-1.41-1.81l-141.14-225.69-136.14,225.56c-.44.72-.96,1.4-1.56,2.01l-209.17,214.97c-.66.68-1.4,1.27-2.21,1.77l-225.57,137.04ZM490.15,699.52h.22-.22Z"/>
        <g>
          <g id="_Radial_Repeat_-25" data-name="&amp;lt;Radial Repeat&amp;gt;">
            <circle class="cls-1" cx="40.61" cy="742.49" r="40.6"/>
          </g>
          <g id="_Radial_Repeat_-26" data-name="&amp;lt;Radial Repeat&amp;gt;">
            <circle class="cls-1" cx="349.71" cy="203.31" r="40.6"/>
          </g>
          <g id="_Radial_Repeat_-27" data-name="&amp;lt;Radial Repeat&amp;gt;">
            <circle class="cls-1" cx="949.55" cy="40.61" r="40.6"/>
          </g>
          <g id="_Radial_Repeat_-28" data-name="&amp;lt;Radial Repeat&amp;gt;">
            <circle class="cls-1" cx="1488.75" cy="349.7" r="40.6"/>
          </g>
          <g id="_Radial_Repeat_-29" data-name="&amp;lt;Radial Repeat&amp;gt;">
            <circle class="cls-1" cx="1651.44" cy="949.54" r="40.6"/>
          </g>
          <g id="_Radial_Repeat_-30" data-name="&amp;lt;Radial Repeat&amp;gt;">
            <circle class="cls-1" cx="1342.34" cy="1488.73" r="40.6"/>
          </g>
          <g id="_Radial_Repeat_-31" data-name="&amp;lt;Radial Repeat&amp;gt;">
            <circle class="cls-1" cx="742.5" cy="1651.43" r="40.6"/>
          </g>
          <g id="_Radial_Repeat_-32" data-name="&amp;lt;Radial Repeat&amp;gt;">
            <circle class="cls-1" cx="203.3" cy="1342.32" r="40.6"/>
          </g>
        </g>
        <path class="cls-1" d="M844.85,254.6c-4.98,0-9.52-3.34-10.82-8.38-1.54-5.98,2.06-12.07,8.03-13.62l268.59-69.2-170.51-111.37c-5.17-3.38-6.62-10.3-3.25-15.48,3.37-5.15,10.3-6.61,15.47-3.25l191.73,125.23c3.71,2.42,5.64,6.81,4.92,11.18-.72,4.37-3.95,7.9-8.24,9.02l-293.13,75.53c-.93.24-1.87.35-2.79.35Z"/>
        <path class="cls-1" d="M1457.56,857.19c-.87,0-1.75-.11-2.63-.31-6-1.46-9.69-7.49-8.25-13.49l66.31-275.09-33.08-217.94c-.93-6.11,3.27-11.81,9.38-12.73,6.08-.98,11.8,3.27,12.73,9.36l33.41,220.1c.22,1.44.15,2.9-.19,4.3l-66.82,277.23c-1.23,5.13-5.81,8.56-10.85,8.56Z"/>
        <path class="cls-1" d="M699.32,495.72c-4.33,0-8.45-2.53-10.27-6.75l-133.03-308.53-204.33,36.21c-6.05,1-11.88-2.97-12.96-9.06-1.08-6.07,2.98-11.88,9.06-12.94l213.04-37.76c5.03-.81,10.16,1.81,12.21,6.57l136.54,316.65c2.44,5.68-.17,12.25-5.84,14.69-1.44.63-2.94.92-4.42.92Z"/>
        <path class="cls-1" d="M744.82,1661.34c-2.19,0-4.4-.63-6.34-1.99l-182.05-125.61c-3.68-2.53-5.5-7.03-4.61-11.42.89-4.39,4.31-7.81,8.7-8.71l282.08-58.09c6.01-1.44,11.95,2.64,13.2,8.69,1.24,6.05-2.65,11.94-8.69,13.18l-256.44,52.83,160.5,110.74c5.08,3.49,6.36,10.46,2.85,15.54-2.17,3.14-5.66,4.82-9.21,4.82Z"/>
        <path class="cls-1" d="M1137.98,1535.73c-3.66,0-7.13-1.79-9.23-4.87-2.39-3.49-2.6-8.05-.53-11.74l134.26-241.12c3.01-5.39,9.82-7.31,15.2-4.32,5.4,2.99,7.33,9.8,4.33,15.19l-123.37,221.57,188.93-26c6.04-.81,11.75,3.43,12.6,9.54.84,6.11-3.43,11.77-9.55,12.6l-211.1,29.05c-.51.07-1.02.11-1.52.11Z"/>
        <path class="cls-1" d="M1524.36,1143.55c-1.46,0-2.94-.28-4.35-.89l-322.47-136.54c-5.68-2.4-8.34-8.95-5.93-14.65,2.41-5.68,8.95-8.34,14.65-5.92l314.13,133.01,125.54-179.76c3.53-5.09,10.5-6.29,15.56-2.77,5.06,3.54,6.3,10.5,2.76,15.56l-130.73,187.19c-2.14,3.08-5.6,4.78-9.17,4.78Z"/>
      </g>
      <g>
        <path class="cls-1" d="M844.86,632.81h-.13s-.04,0-.05,0h-.06s0,0-.01,0h-.06s-.04,0-.05,0c0,0,0,0-.01,0-.02,0-.04,0-.05,0h-.01s-.03,0-.05,0h-.01s-.03,0-.05,0h-.02s-.03,0-.05,0h-.01s-.03,0-.04,0c0,0-.01,0-.02,0-.02,0-.03,0-.05,0h-.02s-.02,0-.04,0c0,0-.02,0-.03,0-.01,0-.03,0-.04,0,0,0-.02,0-.02,0-.01,0-.02,0-.04,0-.01,0-.02,0-.03,0,0,0-.02,0-.02,0-.02,0-.03,0-.05,0,0,0-.01,0-.02,0-.01,0-.02,0-.03,0,0,0-.01,0-.02,0-.02,0-.04,0-.06,0h-.01s-.08,0-.11,0h0c-.4.01-.81.03-1.21.05l1.33,22.55c.39-.02.79-.03,1.18-.03v-22.59h0ZM839.85,633.11s0,0-.01,0c-.03,0-.07,0-.1.01,0,0,0,0-.01,0-.02,0-.05,0-.07,0h0c-.77.09-1.53.21-2.29.35l3.98,22.23c.38-.07.77-.13,1.16-.17l-2.66-22.43h0ZM834.91,633.99c-.81.2-1.62.42-2.42.66l6.59,21.6c.37-.11.75-.22,1.12-.31l-5.29-21.96h0ZM830.11,635.45c-.78.29-1.56.61-2.32.94l9.13,20.66c.35-.15.71-.3,1.07-.43l-7.87-21.17h0ZM825.53,637.48c-.1.05-.2.1-.3.15,0,0-.02,0-.02.01h-.02s-.03.03-.05.04c0,0,0,0,0,0-.61.32-1.21.66-1.8,1.01l11.55,19.41c.33-.19.66-.38,1-.56l-10.36-20.07h0ZM821.21,640.05c-.13.09-.26.18-.39.27h0l-.03.02s0,0,0,0c-.02.01-.03.02-.05.04,0,0-.01,0-.02.01-.01,0-.02.01-.03.02,0,0-.02.01-.03.02,0,0-.01.01-.02.02-.01,0-.03.02-.04.03,0,0-.01,0-.02.01-.01,0-.02.02-.03.02,0,0,0,0-.01,0-.01.01-.03.02-.04.03,0,0,0,0-.01,0-.02.01-.03.02-.05.03,0,0,0,0,0,0-.03.02-.07.05-.1.07,0,0,0,0,0,0-.39.28-.77.56-1.15.85l13.8,17.88c.3-.23.61-.46.93-.67l-12.7-18.68h0ZM817.24,643.11s-.02.01-.02.02h0s-.03.03-.05.04c0,0,0,0,0,0-.01.01-.03.03-.04.04,0,0,0,0,0,0-.01.01-.02.02-.04.03,0,0,0,0-.01,0-.01.01-.03.02-.04.03,0,0-.01,0-.02.01-.01.01-.02.02-.04.03,0,0-.01.01-.02.02,0,0-.01.01-.02.02-.01.01-.02.02-.04.03,0,0,0,0-.01.01-.5.45-1,.91-1.48,1.39l15.84,16.1c.28-.27.56-.54.85-.79l-14.85-17.01h0ZM813.63,646.59h0s0,0,0,0h0s0,0,0,0h0s0,0,0,0h0s0,0,0,0h0s0,0,0,0h0s0,0,0,0h0s0,0,0,0h0s0,0,0,0h0s0,.01,0,.01h0s0,0,0,0h0s0,0,0,0h0s0,0,0,0h0s0,0,0,0h0s0,0,0,0l-.04.04s0,0,0,0h0s0,0,0,0h-.01s0,.02,0,.02h0s0,0,0,.01h0s0,0,0,0l-.21.21s0,0,0,0h0s0,0,0,0h0s0,0,0,0l-.09.09s0,0,0,0l-.03.03s0,0,0,0l-1.27,1.27,15.97,15.97,1.77-1.77-15.97-15.97h0ZM810.08,650.14l-1.77,1.77,15.97,15.97,1.77-1.77-15.97-15.97h0ZM806.53,653.69l-.17.17c-.44.44-1.61,1.61-1.61,1.61l15.97,15.97,1.77-1.77-15.97-15.97h0ZM802.98,657.24l-1.77,1.77,15.97,15.97,1.77-1.77-15.97-15.97h0ZM799.43,660.79l-1.77,1.77,15.97,15.97,1.77-1.77-15.97-15.97h0ZM795.88,664.34s-.83.83-1.35,1.35l-.42.42,15.97,15.97,1.77-1.77-15.97-15.97h0ZM792.33,667.88l-1.77,1.77,15.97,15.97,1.77-1.77-15.97-15.97h0ZM788.79,671.43l-.57.56c-.52.52-1.21,1.21-1.21,1.21l15.97,15.97,1.77-1.77-15.97-15.97h0ZM785.24,674.98l-1.77,1.77,15.97,15.97,1.77-1.77-15.97-15.97h0ZM781.69,678.53s-.56.56-1.05,1.05h0s0,0,0,0l-.72.72,15.97,15.97,1.77-1.77-15.97-15.97h0ZM778.14,682.08s-.5.5-.97.97l-.02.02s0,0,0,0l-.79.79,15.97,15.97,1.77-1.77-15.97-15.97h0ZM774.59,685.63l-.88.88s0,0,0,0h0c-.44.45-.89.89-.89.89l15.97,15.97,1.77-1.77-15.97-15.97h0ZM771.04,689.18l-.94.94s0,0,0,0h0c-.42.43-.82.83-.82.83l15.97,15.97,1.77-1.77-15.97-15.97h0ZM767.49,692.73s-.36.36-.76.76l-1.02,1.02,15.97,15.97,1.77-1.77-15.97-15.97h0ZM763.94,696.28l-.68.68-1.1,1.1,15.97,15.97,1.77-1.77-15.97-15.97h0ZM760.39,699.83l-1.77,1.77,15.97,15.97,1.77-1.77-15.97-15.97h0ZM756.84,703.37l-1.77,1.77,15.97,15.97,1.77-1.77-15.97-15.97h0ZM753.3,706.92l-1.33,1.33c-.26.25-.44.44-.44.44l15.97,15.97,1.77-1.77-15.97-15.97h0ZM749.75,710.47l-1.77,1.77,15.97,15.97,1.77-1.77-15.97-15.97h0ZM746.2,714.02l-1.77,1.77,15.97,15.97,1.77-1.77-15.97-15.97h0ZM742.65,717.57l-1.77,1.77,15.97,15.97,1.77-1.77-15.97-15.97h0ZM739.1,721.12l-1.77,1.77,15.97,15.97,1.77-1.77-15.97-15.97h0ZM735.55,724.67l-1.77,1.77,15.97,15.97,1.77-1.77-15.97-15.97h0ZM732,728.22h0s0,0,0,0h0s0,0,0,0c0,0,0,0,0,0h0s0,0,0,0h0s0,0,0,0h0s0,0,0,0h0s0,0,0,0h0s0,0,0,0h0s0,0,0,0h0s0,0-.01.01h0s0,0-.01.02h0s0,0,0,0h0s0,0,0,0h-.01s0,.01,0,.01h0s0,0,0,0h0s-.01.01-.02.02h0s-.03.03-.04.05h0s-.02.02-.02.03h0s0,0-.01.01h0s0,0-.01.01h-.01s0,.01,0,.02h0s0,0-.01.01h0s0,0,0,0l-.03.03s0,0,0,0h0s0,0,0,0h0s0,0,0,0h0s0,0,0,0h0s0,0,0,0l-.03.03s0,0,0,0h0s0,.01-.01.02h0s-.01.01-.01.02h0s0,0,0,0h0s0,0,0,0l-.02.02h0s0,0,0,0c0,0,0,0-.01.01h0s-.02.02-.03.03l-.02.02s0,0,0,0h0s0,0,0,0h0s0,0,0,0l-.09.09s0,0,0,0l-.05.05s0,0,0,0l-.1.1s0,0,0,0h-.01s0,.01,0,.01l-.54.54h0s-.46.46-.46.46l15.97,15.97,1.77-1.77-15.97-15.97h0ZM728.45,731.77l-1.77,1.77,15.97,15.97,1.77-1.77-15.97-15.97h0ZM724.9,735.32l-1.77,1.77,15.97,15.97,1.77-1.77-15.97-15.97h0ZM721.36,738.86s-1,1-1.5,1.5h0s0,0,0,0l-.27.27,15.97,15.97,1.77-1.77-15.97-15.97h0ZM717.81,742.41l-1.77,1.77,15.97,15.97,1.77-1.77-15.97-15.97h0ZM714.26,745.96l-.38.38c-.52.52-1.4,1.4-1.4,1.4l15.97,15.97,1.77-1.77-15.97-15.97h0ZM710.71,749.51l-1.77,1.77,15.97,15.97,1.77-1.77-15.97-15.97h0ZM707.16,753.06l-1.77,1.77,15.97,15.97,1.77-1.77-15.97-15.97h0ZM703.61,756.61s-.62.62-1.13,1.13h0s0,.01-.01.02l-.63.62,15.97,15.97,1.77-1.77-15.97-15.97h0ZM700.06,760.16l-.69.69s0,0,0,0h0s-.01.02-.02.02h0c-.49.49-1.05,1.05-1.05,1.05l15.97,15.97,1.77-1.77-15.97-15.97h0ZM696.51,763.71l-.78.78s0,0,0,0h0c-.47.48-.99.99-.99.99l15.97,15.97,1.77-1.77-15.97-15.97h0ZM692.96,767.26l-1.77,1.77,15.97,15.97,1.77-1.77-15.97-15.97h0ZM689.41,770.81s-.41.41-.84.84l-.94.94,15.97,15.97,1.77-1.77-15.97-15.97h0ZM685.87,774.35l-1.77,1.77,15.97,15.97,1.77-1.77-15.97-15.97h0ZM682.32,777.9l-1.1,1.1c-.36.36-.68.68-.68.68l15.97,15.97,1.77-1.77-15.97-15.97h0ZM678.77,781.45l-1.17,1.17s0,0,0,0h0c-.33.33-.6.6-.6.6l15.97,15.97,1.77-1.77-15.97-15.97h0ZM675.22,785s-.24.24-.54.54l-1.23,1.23,15.97,15.97,1.77-1.77-15.97-15.97h0ZM671.67,788.55s-.2.2-.47.47l-1.3,1.3,15.97,15.97,1.77-1.77-15.97-15.97h0ZM668.12,792.1l-1.77,1.77,15.97,15.97,1.77-1.77-15.97-15.97h0ZM664.57,795.65l-1.77,1.77,15.97,15.97,1.77-1.77-15.97-15.97h0ZM661.02,799.2l-1.77,1.77,15.97,15.97,1.77-1.77-15.97-15.97h0ZM657.47,802.75l-1.77,1.77,15.97,15.97,1.77-1.77-15.97-15.97h0ZM653.92,806.29l-1.77,1.77,15.97,15.97,1.77-1.77-15.97-15.97h0ZM650.38,809.85c-.32.34-.64.68-.95,1.03,0,0,0,0,0,0-.01.01-.03.03-.04.05,0,0,0,0,0,0-.01.02-.03.03-.04.05h0s-.03.03-.04.04c0,0,0,0,0,0-.01.01-.02.03-.03.04,0,0,0,.01-.01.02-.01.01-.02.03-.03.04,0,0,0,.01-.01.02,0,0-.01.02-.02.02,0,0-.02.02-.03.03,0,0-.01.01-.02.02,0,0-.01.02-.02.02,0,0,0,0,0,.01-.01.02-.03.03-.04.05,0,0,0,0,0,0-.12.14-.24.27-.35.41l17.25,14.58c.25-.29.51-.58.77-.86l-16.35-15.58h0ZM647.15,813.68c-.5.67-.98,1.36-1.44,2.05l18.88,12.4c.21-.32.43-.63.66-.94l-18.1-13.51h0ZM644.39,817.88c-.41.72-.8,1.45-1.17,2.19h0s0,.02,0,.02l20.24,10.03c.17-.34.35-.68.54-1.01l-19.59-11.23h0ZM642.17,822.37c-.33.77-.63,1.55-.91,2.34l21.29,7.53c.13-.36.27-.72.42-1.08l-20.8-8.79h0ZM640.5,827.1c-.08.29-.16.58-.24.87,0,0,0,0,0,0,0,.02-.01.04-.02.06,0,0,0,0,0,0,0,.01,0,.02,0,.03,0,0,0,0,0,.01,0,.02,0,.04-.01.05,0,0,0,.02,0,.02,0,0,0,.02,0,.03,0,.01,0,.03-.01.04,0,0,0,.01,0,.02,0,.01,0,.02,0,.04,0,0,0,.01,0,.02,0,.01,0,.03-.01.04,0,0,0,.01,0,.02v.05s-.01,0-.02,0c0,.02,0,.04-.01.05,0,0,0,0,0,0v.06s-.02,0-.02,0c-.08.32-.16.65-.23.97l22.04,4.94c.08-.38.18-.76.29-1.13l-21.71-6.24h0ZM639.4,832c-.04.24-.08.48-.11.72h0s0,.04,0,.06h0s0,.04,0,.06c0,0,0,0,0,0,0,.02,0,.04,0,.06,0,0,0,0,0,0,0,.04-.01.08-.02.12,0,0,0,0,0,0,0,.02,0,.04,0,.06,0,0,0,0,0,0,0,.02,0,.03,0,.05,0,0,0,0,0,0,0,.02,0,.04,0,.05,0,0,0,.01,0,.02,0,.02,0,.03,0,.05,0,0,0,0,0,.01v.04s0,.01,0,.02c0,.02,0,.03,0,.05,0,0,0,.02,0,.02,0,.01,0,.02,0,.03,0,.01,0,.02,0,.04,0,0,0,.02,0,.03,0,0,0,.02,0,.03,0,0,0,.01,0,.02v.05s0,0,0,.01c-.03.28-.07.57-.1.85l22.47,2.3c.04-.39.09-.78.15-1.16l-22.29-3.62h0ZM638.89,836.99c-.04.84-.05,1.67-.03,2.51l22.58-.36c0-.39,0-.79.02-1.18l-22.56-.97h0ZM661.49,840.31l-22.52,1.69c.06.83.15,1.67.26,2.5l22.38-3.02c-.05-.39-.09-.78-.12-1.17h0ZM661.8,842.64l-22.17,4.34c.11.56.23,1.12.36,1.67,0,0,0,0,0,0,0,.02,0,.04.01.06,0,0,0,0,0,0,0,.02,0,.03.01.05h0s0,.04.01.06c0,0,0,.01,0,.02,0,.01,0,.03.01.04,0,0,0,.02,0,.02,0,.01,0,.02,0,.03,0,0,0,.02,0,.02,0,.01,0,.03.01.04v.03s.01.01.01.02c0,.02,0,.04.01.06,0,0,0,0,0,.01.03.1.05.2.08.3l21.87-5.64c-.1-.38-.18-.76-.26-1.14h0ZM662.38,844.89l-21.49,6.94c.04.14.09.28.14.42,0,0,0,0,0,0,0,.02.01.04.02.05,0,0,0,0,0,0,0,.02.01.03.02.05,0,0,0,.01,0,.02,0,.02,0,.03.01.04,0,0,0,.02,0,.02,0,0,0,.02.01.03,0,0,0,.02,0,.03,0,.01,0,.03.01.04,0,.01,0,.02.01.03,0,0,0,0,0,.01.13.38.27.75.41,1.13,0,0,0,0,0,.01,0,.01,0,.03.01.04,0,.01,0,.02.01.03,0,0,0,.02,0,.02,0,.02.01.03.02.05,0,0,0,0,0,0,0,.02.01.03.02.05h0c.03.1.07.18.1.27l21.04-8.21c-.14-.36-.27-.72-.39-1.09h0ZM663.22,847.04l-20.51,9.46c.03.07.06.14.1.21,0,0,0,0,0,.01,0,.02.01.03.02.05,0,0,0,.02.01.03,0,0,0,.01,0,.02,0,.01.01.03.02.05,0,0,0,0,0,.01.02.03.03.07.05.11,0,0,0,0,0,0,.16.33.32.65.48.98h0s.02.04.03.06c0,0,0,0,0,0,0,.02.02.03.02.05,0,0,0,0,0,0l.02.05s0,.01,0,.02c0,.02.02.03.02.05,0,0,0,0,0,.01,0,.01.01.02.02.03,0,0,0,.01.01.02,0,.01.01.03.02.04,0,0,0,.02.01.03,0,0,0,.01.01.02,0,.02.02.03.02.05,0,0,0,0,0,.01.02.03.03.06.05.1h0c.03.06.06.12.09.18,0,0,0,0,0,0,.01.02.02.05.04.07l19.9-10.68c-.18-.33-.35-.68-.51-1.03h0ZM664.31,849.06l-19.22,11.86c.44.71.9,1.41,1.38,2.09l18.47-13c-.22-.31-.43-.63-.63-.96h0ZM665.62,850.93l-17.65,14.09c.09.11.18.22.27.33,0,0,0,0,0,0,.01.01.02.02.03.04,0,0,.01.02.02.02,0,0,0,.01.01.02.01.01.02.03.03.04h0s.02.04.03.05c0,0,0,0,0,0,.01.02.03.03.04.05,0,0,0,0,0,0,.01.02.03.03.04.05,0,0,0,0,0,0,.36.44.74.87,1.12,1.29l16.77-15.13c-.26-.29-.51-.58-.75-.88h0ZM667.3,852.78l-15.97,15.97,1.77,1.77,15.97-15.97-1.77-1.77h0ZM670.85,856.33l-15.97,15.97,1.77,1.77,15.97-15.97-1.77-1.77h0ZM674.4,859.88l-15.97,15.97,1.77,1.77,15.97-15.97-1.77-1.77h0ZM677.95,863.43l-15.97,15.97,1.77,1.77,15.97-15.97-1.77-1.77h0ZM681.5,866.98l-15.97,15.97,1.77,1.77,15.97-15.97-1.77-1.77h0ZM685.05,870.52l-15.97,15.97,1.77,1.77,15.97-15.97-1.77-1.77h0ZM688.6,874.07l-15.97,15.97,1.77,1.77,15.97-15.97-1.77-1.77h0ZM692.15,877.62l-15.97,15.97,1.77,1.77,15.97-15.97-1.77-1.77h0ZM695.7,881.17l-15.97,15.97s.14.14.34.34l1.44,1.44,15.97-15.97-1.77-1.77h0ZM699.24,884.72l-15.97,15.97,1.77,1.77,15.97-15.97-1.77-1.77h0ZM702.79,888.27l-15.97,15.97,1.77,1.77,15.97-15.97-1.77-1.77h0ZM706.34,891.82l-15.97,15.97,1.29,1.29.48.48,15.97-15.97-1.77-1.77h0ZM709.89,895.37l-15.97,15.97,1.77,1.77,15.97-15.97-1.77-1.77h0ZM713.44,898.92l-15.97,15.97s.24.24.54.54l1.24,1.24,15.97-15.97-1.77-1.77h0ZM716.99,902.47l-15.97,15.97,1.77,1.77,15.97-15.97-1.77-1.77h0ZM720.54,906.01l-15.97,15.97,1.16,1.16c.34.34.62.62.62.62l15.97-15.97-1.77-1.77h0ZM724.09,909.56l-15.97,15.97,1.12,1.12s.01.01.02.02h0c.35.35.64.64.64.64l15.97-15.97-1.77-1.77h0ZM727.64,913.11l-15.97,15.97.68.68h0s0,.01.01.02l1.08,1.08,15.97-15.97-1.77-1.77h0ZM731.19,916.66l-15.97,15.97s.34.34.72.72l.02.02s0,0,0,0l1.04,1.04,15.97-15.97-1.77-1.77h0ZM734.73,920.21l-15.97,15.97,1.77,1.77,15.97-15.97-1.77-1.77h0ZM738.28,923.76l-15.97,15.97.97.97c.41.41.8.8.8.8l15.97-15.97-1.77-1.77h0ZM741.83,927.31l-15.97,15.97.93.93.84.84,15.97-15.97-1.77-1.77h0ZM745.38,930.86l-15.97,15.97s.43.43.87.87l.91.91,15.97-15.97-1.77-1.77h0ZM748.93,934.41l-15.97,15.97s.46.46.91.91h0s0,0,0,0l.86.86,15.97-15.97-1.77-1.77h0ZM752.48,937.95l-15.97,15.97.82.82s0,0,0,0h0c.46.46.95.95.95.95l15.97-15.97-1.77-1.77h0ZM756.03,941.5l-15.97,15.97.77.77,1.01,1.01,15.97-15.97-1.77-1.77h0ZM759.58,945.05l-15.97,15.97,1.77,1.77,15.97-15.97-1.77-1.77h0ZM763.13,948.6l-15.97,15.97s.58.58,1.08,1.08l.69.69,15.97-15.97-1.77-1.77h0ZM766.68,952.15l-15.97,15.97,1.13,1.13.65.65,15.97-15.97-1.77-1.77h0ZM770.22,955.7l-15.97,15.97.61.61s0,0,0,0h0c.51.52,1.15,1.16,1.15,1.16l15.97-15.97-1.77-1.77h0ZM773.77,959.25l-15.97,15.97.58.58c.52.52,1.19,1.19,1.19,1.19l15.97-15.97-1.77-1.77h0ZM777.32,962.8l-15.97,15.97,1.77,1.77,15.97-15.97-1.77-1.77h0ZM780.87,966.35l-15.97,15.97s.76.76,1.28,1.28l.49.49,15.97-15.97-1.77-1.77h0ZM784.42,969.9l-15.97,15.97,1.77,1.77,15.97-15.97-1.77-1.77h0ZM787.97,973.44l-15.97,15.97.42.42s0,0,0,0h0c.53.53,1.34,1.35,1.34,1.35l15.97-15.97-1.77-1.77h0ZM791.52,976.99l-15.97,15.97,1.77,1.77,15.97-15.97-1.77-1.77h0ZM795.07,980.54l-15.97,15.97,1.77,1.77,15.97-15.97-1.77-1.77h0ZM798.62,984.09l-15.97,15.97,1.46,1.46h0s0,0,0,0l.3.3,15.97-15.97-1.77-1.77h0ZM802.17,987.64l-15.97,15.97,1.77,1.77,15.97-15.97-1.77-1.77h0ZM805.71,991.19l-15.97,15.97.24.24s0,0,0,0h0c.49.49,1.52,1.53,1.52,1.53l15.97-15.97-1.77-1.77h0ZM809.26,994.74l-15.97,15.97,1.77,1.77,15.97-15.97-1.77-1.77h0ZM812.81,998.29l-15.97,15.97,1.77,1.77,15.97-15.97-1.77-1.77h0ZM816.36,1001.84l-15.97,15.97,1.77,1.77,15.97-15.97-1.77-1.77h0ZM819.91,1005.39l-15.97,15.97,1.77,1.77,15.97-15.97-1.77-1.77h0ZM823.46,1008.93l-15.97,15.97,1.77,1.77,15.97-15.97-1.77-1.77h0ZM827.01,1012.48l-15.97,15.97.03.04s0,0,0,0l.07.07s0,0,0,0v.02s.02,0,.02,0h0s0,0,0,0l.22.22s0,0,0,0h0s0,0,0,0h0s0,0,0,0l.03.03s0,0,0,0l.03.03s0,0,0,0l.03.03s0,0,0,0h0s0,0,0,.01h0s0,0,0,0l.02.02s0,0,0,0h0s0,0,0,0l.02.02s0,0,0,0h0s0,0,0,0l.05.05s0,0,0,0l.03.03s0,0,0,0l.04.04s0,0,0,0l.04.04s0,0,0,0l.04.04s0,0,0,0l.21.21s0,0,0,0h.01s0,.01,0,.01l.03.03s0,0,0,0h0s0,.01,0,.01h0s0,0,0,0h0s0,.01,0,.01h0s0,0,0,.01h0s0,.01,0,.01l.03.03s0,0,0,0h0s0,.02.01.02h0s0,.01,0,.01h0s0,0,0,.01h0s0,.01.01.02h0s0,.02.01.02h0s0,.02.01.02h0s0,0,0,.01h0s0,0,0,.01l.04.04s0,0,0,0h0s0,0,0,0h0s.02.03.03.04h0s.02.03.03.04h0s0,0,0,0h0s0,0,0,0h0s0,0,0,0l.02.02s0,0,0,0h0s0,.01.01.02h0s.02.02.03.03h0s0,0,0,.01h.01s0,.02,0,.02h.01s0,.02,0,.02h.01s0,.01,0,.01l.03.03s0,0,0,0h0s0,0,0,0h0s0,0,0,0h0s0,0,0,0h.01s.02.03.02.03c0,0,0,0,0,0h0s0,.01,0,.01h0s0,.01,0,.01h0s.03.04.04.05h0s.01.02.02.02h0s0,0,0,.01h0s0,0,0,0h.01s0,.01,0,.01h0s0,0,0,0h0s0,.01.01.01h0s0,.01.01.01h0s0,0,0,0h0s0,0,0,0h0s0,0,0,0h0s0,0,0,0h0s0,0,0,0h0s0,0,0,0h0s0,0,0,0h0s0,0,0,0h0s0,0,0,0h0s0,0,0,0h0s15.97-15.97,15.97-15.97l-1.77-1.77h0ZM830.56,1016.03l-15.97,15.97h0s0,0,.02.02h0s.04.04.06.06h0s.06.06.09.09h0s.07.07.1.1h0s.07.07.1.11h0s.06.07.09.09h0l.06.06h0s.02.02.02.02h0s.03.03.04.04c0,0,0,0,.01.01.01.01.02.02.03.03,0,0,0,0,.01.01.01.01.02.02.03.03,0,0,0,0,.01.01.01.01.03.03.04.04,0,0,0,0,.01,0,.01.01.02.02.03.03,0,0,.01.01.02.02,0,0,.02.02.03.03,0,0,.01.01.02.02,0,0,.02.02.03.03,0,0,.01,0,.02.02.01.01.03.03.04.04,0,0,.01.01.02.02,0,0,.01.01.02.02,0,0,.02.02.02.02,0,0,.01.01.02.02,0,0,.02.02.02.02,0,0,.01.01.02.02.02.02.03.03.05.05,0,0,0,0,.01.01,0,0,.02.02.03.03,0,0,.01,0,.02.01,0,0,.02.02.03.03,0,0,0,0,.01.01.03.03.07.06.1.1,0,0,0,0,0,0,.01.01.02.02.03.03,0,0,0,0,.01.01.01,0,.02.02.03.03,0,0,0,0,.01.01.03.03.06.06.09.09,0,0,.01.01.02.02,0,0,.02.02.02.02,0,0,.01.01.02.02l.02.02s.02.02.03.03c0,0,0,0,.01,0,.01.01.03.03.05.04,0,0,0,0,0,0,.01.01.03.02.04.04,0,0,0,0,0,0,.02.02.04.03.06.05l15.32-16.6c-.19-.18-.38-.36-.57-.55l-.57-.57h0ZM832.57,1017.91l-14.29,17.49c.65.53,1.31,1.04,1.99,1.53l13.21-18.32c-.31-.22-.62-.46-.91-.7h0ZM834.43,1019.25l-12.08,19.08c.71.45,1.43.88,2.16,1.28l10.91-19.78c-.33-.18-.66-.38-.98-.58h0ZM836.44,1020.36l-9.7,20.4c.76.36,1.52.7,2.3,1.01l8.45-20.94c-.35-.14-.71-.3-1.05-.46h0ZM838.57,1021.22l-7.18,21.41c.06.02.12.04.18.06,0,0,.02,0,.02,0,0,0,.02,0,.02,0,.01,0,.03.01.05.01,0,0,.01,0,.02,0,.02,0,.03.01.05.02,0,0,0,0,0,0,.02,0,.04.01.06.02,0,0,0,0,0,0,.32.1.64.2.97.3,0,0,0,0,0,0,.02,0,.04.01.05.02,0,0,0,0,.01,0,.01,0,.03,0,.04.01,0,0,0,0,.01,0,.02,0,.03,0,.05.01,0,0,.01,0,.02,0,.01,0,.02,0,.04.01.01,0,.02,0,.03,0,0,0,.02,0,.02,0,.03,0,.07.02.1.03,0,0,0,0,0,0,.21.06.42.12.64.18l5.89-21.8c-.37-.1-.75-.21-1.11-.34h0ZM840.82,1021.83l-4.59,22.11c.17.03.33.07.5.1,0,0,0,0,0,0h.06s.01.01.02.02c0,0,.02,0,.03,0,.01,0,.02,0,.04,0,0,0,.01,0,.02,0,.02,0,.03,0,.05,0,0,0,0,0,.01,0,.27.05.53.1.8.14,0,0,0,0,0,0,.02,0,.04,0,.06,0,0,0,0,0,0,0,.02,0,.03,0,.05,0,0,0,0,0,.01,0,.02,0,.03,0,.05,0,0,0,.01,0,.02,0,0,0,.02,0,.03,0h.05s.01,0,.02.01c.22.04.44.07.65.1l3.27-22.35c-.39-.06-.77-.12-1.15-.2h0ZM843.14,1022.17l-1.94,22.5c.22.02.44.04.66.05h0s.05,0,.07,0c0,0,0,0,0,0,.01,0,.02,0,.03,0,0,0,.01,0,.02,0,.02,0,.03,0,.05,0,0,0,.01,0,.02,0,0,0,.02,0,.03,0,.01,0,.03,0,.04,0,0,0,.02,0,.02,0,.01,0,.02,0,.03,0,0,0,.02,0,.03,0,.01,0,.03,0,.04,0,0,0,.01,0,.02,0,.01,0,.03,0,.04,0,0,0,.01,0,.02,0,.01,0,.03,0,.04,0,0,0,.01,0,.02,0,.02,0,.03,0,.05,0,0,0,.01,0,.02,0,.02,0,.03,0,.05,0,0,0,0,0,0,0,.02,0,.03,0,.05,0,0,0,.01,0,.02,0,.02,0,.04,0,.05,0,0,0,0,0,.01,0,.02,0,.03,0,.05,0,0,0,0,0,.01,0,.02,0,.04,0,.05,0,0,0,.01,0,.01,0,.02,0,.03,0,.05,0,0,0,0,0,.01,0,.02,0,.03,0,.05,0,0,0,.01,0,.02,0,.02,0,.03,0,.05,0,0,0,.01,0,.01,0,.01,0,.03,0,.04,0,0,0,.01,0,.02,0,.02,0,.03,0,.05,0,0,0,.01,0,.02,0,.01,0,.03,0,.04,0,0,0,.01,0,.02,0,.01,0,.03,0,.04,0,0,0,.01,0,.02,0,.02,0,.03,0,.05,0,0,0,.02,0,.02,0,0,0,.02,0,.03,0,.01,0,.02,0,.03,0,.01,0,.02,0,.03,0,0,0,.02,0,.03,0,0,0,.02,0,.02,0,.02,0,.03,0,.05,0,0,0,.01,0,.02,0,.04,0,.07,0,.11,0,0,0,0,0,0,0,.02,0,.05,0,.07,0l.61-22.58c-.39-.01-.79-.03-1.18-.07h0ZM846.67,1022.16c-.39.04-.78.06-1.17.07l.72,22.57c.07,0,.14,0,.21,0,0,0,0,0,.01,0,.02,0,.03,0,.05,0,0,0,.01,0,.02,0,.01,0,.02,0,.03,0,.01,0,.02,0,.04,0,0,0,.02,0,.03,0,.01,0,.02,0,.03,0,0,0,0,0,.01,0,.02,0,.04,0,.06,0,0,0,0,0,0,0,.25-.01.49-.02.74-.04h0s.05,0,.07,0c0,0,0,0,0,0,.04,0,.07,0,.11,0,0,0,0,0,.01,0,.02,0,.04,0,.06,0,0,0,.01,0,.02,0,0,0,.02,0,.03,0,0,0,.02,0,.03,0,.01,0,.03,0,.04,0,0,0,.02,0,.03,0,0,0,.02,0,.02,0,.02,0,.03,0,.05,0,0,0,.01,0,.02,0,.01,0,.03,0,.04,0,0,0,0,0,.01,0,.02,0,.04,0,.05,0,0,0,0,0,.01,0,.02,0,.04,0,.06,0h0s.04,0,.06,0h0c.17-.01.35-.03.52-.04l-2.05-22.49h0ZM848.98,1021.81c-.38.08-.77.15-1.15.21l3.37,22.33c.76-.11,1.52-.25,2.27-.41,0,0,0,0,.01,0,.01,0,.02,0,.03,0,.01,0,.03,0,.04,0,0,0,.02,0,.03,0s.02,0,.03,0c0,0,.02,0,.03,0,.01,0,.02,0,.03,0l-4.69-22.09h0ZM851.23,1021.19c-.36.12-.74.24-1.11.34l6,21.78c.81-.22,1.61-.47,2.4-.74l-7.29-21.38h0ZM853.36,1020.32c-.34.17-.7.32-1.05.47l8.55,20.9c.77-.32,1.54-.66,2.29-1.02l-9.8-20.35h0ZM855.36,1019.2c-.32.2-.65.4-.98.59l11.01,19.72s.05-.02.07-.04c0,0,0,0,0,0l.07-.04h0c.32-.18.63-.36.94-.55,0,0,0,0,0,0,.02-.01.04-.03.06-.04h0s.02-.01.03-.02c0,0,0,0,0,0,.02-.01.04-.02.06-.03,0,0,0,0,.01,0,.01,0,.03-.02.04-.03,0,0,.01,0,.02-.01,0,0,.02,0,.02-.01,0,0,.02-.01.03-.02l.03-.02s.02-.01.03-.02c0,0,.01,0,.02-.01.01,0,.03-.02.04-.03,0,0,.01,0,.02,0,.02,0,.03-.02.05-.03,0,0,0,0,0,0,.02-.01.03-.02.05-.03,0,0,0,0,0,0,.02-.01.04-.02.05-.03,0,0,0,0,0,0,.16-.1.32-.2.49-.31l-12.18-19.02h0ZM857.21,1017.85c-.29.24-.6.48-.91.7l13.3,18.25s.02-.02.03-.02c0,0,.02-.01.02-.02,0,0,.01,0,.02-.01.02-.01.03-.02.05-.04,0,0,0,0,0,0,.44-.32.87-.66,1.3-1,0,0,0,0,0,0,.02-.01.03-.02.05-.04,0,0,.01,0,.02-.01,0,0,.01-.01.02-.02.01,0,.03-.02.04-.03,0,0,0,0,.01,0,.14-.11.28-.22.41-.34l-14.38-17.42h0ZM859.3,1015.89l-.72.72c-.16.16-.33.33-.5.48l15.39,16.53c.23-.22.46-.44.69-.66,0,0,0,0,0,0,.03-.03.06-.06.09-.09,0,0,0,0,0,0,.01-.01.03-.03.04-.04,0,0,0,0,0,0,.02-.01.03-.03.05-.04,0,0,0,0,0,0,.01-.01.03-.03.04-.04,0,0,0,0,0,0,.01-.01.03-.03.04-.04,0,0,0,0,0,0,.01-.01.03-.03.04-.04,0,0,0,0,.01-.01.01-.01.03-.03.04-.04h0s.01-.01.03-.03h0s.05-.05.08-.08h0s.07-.07.11-.11h0s.06-.07.1-.1h0s.01-.01.02-.02h0s0,0,0,0h0s0,0,0,0h0s0,0,0,0h0s0,0,0,0h0s.01-.01.02-.02h0s.02-.02.03-.03h0s.04-.04.06-.06h0s.08-.08.11-.11h0s.03-.03.04-.05h0s.02-.02.03-.03h0s0-.01.01-.01h0s0,0,0,0h0s0,0,0,0h0s0,0,0,0h0s-15.97-15.97-15.97-15.97h0ZM862.84,1012.34l-1.77,1.77,15.97,15.97,1.77-1.77-15.97-15.97h0ZM866.39,1008.79l-1.77,1.77,15.97,15.97,1.77-1.77-15.97-15.97h0ZM869.94,1005.24l-1.77,1.77,15.97,15.97,1.77-1.77-15.97-15.97h0ZM873.49,1001.7l-1.77,1.77,15.97,15.97,1.77-1.77-15.97-15.97h0ZM877.04,998.15l-1.77,1.77,15.97,15.97,1.77-1.77-15.97-15.97h0ZM880.59,994.6l-1.77,1.77,15.97,15.97s.82-.82,1.34-1.34l.43-.43-15.97-15.97h0ZM884.14,991.05l-1.77,1.77,15.97,15.97,1.77-1.77-15.97-15.97h0ZM887.69,987.5l-1.77,1.77,15.97,15.97.58-.58c.52-.52,1.19-1.19,1.19-1.19l-15.97-15.97h0ZM891.24,983.95l-1.77,1.77,15.97,15.97,1.77-1.77-15.97-15.97h0ZM894.79,980.4l-1.77,1.77,15.97,15.97s.55-.54,1.03-1.03h0s0,0,0,0l.73-.73-15.97-15.97h0ZM898.33,976.85l-1.77,1.77,15.97,15.97s.49-.49.95-.95h0s0,0,0,0l.82-.82-15.97-15.97h0ZM901.88,973.3l-1.77,1.77,15.97,15.97,1.77-1.77-15.97-15.97h0ZM905.43,969.75l-1.77,1.77,15.97,15.97.97-.97c.41-.41.8-.8.8-.8l-15.97-15.97h0ZM908.98,966.21l-1.77,1.77,15.97,15.97,1.04-1.04h0s.02-.02.02-.02c.38-.38.72-.72.72-.72l-15.97-15.97h0ZM912.53,962.66l-1.77,1.77,15.97,15.97s.3-.3.66-.66l1.12-1.12-15.97-15.97h0ZM916.08,959.11l-1.77,1.77,15.97,15.97,1.77-1.77-15.97-15.97h0ZM919.63,955.56l-1.77,1.77,15.97,15.97,1.77-1.77-15.97-15.97h0ZM923.18,952.01l-1.77,1.77,15.97,15.97,1.37-1.37c.24-.24.41-.41.41-.41l-15.97-15.97h0ZM926.73,948.46l-1.77,1.77,15.97,15.97,1.77-1.77-15.97-15.97h0ZM930.28,944.91l-1.77,1.77,15.97,15.97s.11-.11.27-.27h.01s0-.01,0-.02l1.48-1.48-15.97-15.97h0ZM933.82,941.36l-1.77,1.77,15.97,15.97,1.77-1.77-15.97-15.97h0ZM937.37,937.81l-1.77,1.77,15.97,15.97,1.77-1.77-15.97-15.97h0ZM940.92,934.26l-1.77,1.77,15.97,15.97,1.5-1.5h0c.08-.08.15-.15.2-.2h0s.08-.08.08-.08h0l-15.97-15.97h0ZM944.47,930.72l-1.77,1.77,15.97,15.97.04-.04s0,0,0,0h.01s0-.01,0-.01l.06-.06h0l.02-.02s0,0,0,0h0s0,0,0,0h0s0,0,0,0h0s0,0,0,0l.32-.32s0,0,0,0l1.31-1.31-15.97-15.97h0ZM948.02,927.17l-1.77,1.77,15.97,15.97,1.77-1.77-15.97-15.97h0ZM951.57,923.62l-1.77,1.77,15.97,15.97,1.77-1.77-15.97-15.97h0ZM955.12,920.07l-1.77,1.77,15.97,15.97s.98-.98,1.48-1.48h0s0,0,0,0l.29-.29-15.97-15.97h0ZM958.67,916.52l-1.77,1.77,15.97,15.97,1.77-1.77-15.97-15.97h0ZM962.22,912.97l-1.77,1.77,15.97,15.97.4-.4s0,0,0,0h0s0,0,0,0h0c.52-.53,1.36-1.37,1.36-1.37l-15.97-15.97h0ZM965.77,909.42l-1.77,1.77,15.97,15.97,1.77-1.77-15.97-15.97h0ZM969.31,905.87l-1.77,1.77,15.97,15.97,1.77-1.77-15.97-15.97h0ZM972.86,902.32l-1.77,1.77,15.97,15.97s.62-.62,1.13-1.13l.65-.65-15.97-15.97h0ZM976.41,898.77l-1.77,1.77,15.97,15.97.73-.73c.49-.49,1.05-1.05,1.05-1.05l-15.97-15.97h0ZM979.96,895.23l-1.77,1.77,15.97,15.97.81-.81c.47-.47.97-.97.97-.97l-15.97-15.97h0ZM983.51,891.68l-1.77,1.77,15.97,15.97.9-.9c.44-.44.88-.88.88-.88l-15.97-15.97h0ZM987.06,888.13l-1.77,1.77,15.97,15.97s.39-.39.8-.8h0s0-.01.01-.02l.95-.95-15.97-15.97h0ZM990.61,884.58l-1.77,1.77,15.97,15.97s.35-.35.74-.74h0s0,0,0,0l1.03-1.03-15.97-15.97h0ZM994.16,881.03l-1.77,1.77,15.97,15.97,1.77-1.77-15.97-15.97h0ZM997.71,877.48l-1.77,1.77,15.97,15.97,1.19-1.19s0,0,0,0h0s0,0,0-.01h0s0,0,0,0h0c.31-.32.56-.56.56-.56l-15.97-15.97h0ZM1001.25,873.93l-1.77,1.77,15.97,15.97,1.77-1.77-15.97-15.97h0ZM1004.8,870.38l-1.77,1.77,15.97,15.97s.19-.19.45-.45h0s0,0,0,0h0s0,0,0,0l1.31-1.31-15.97-15.97h0ZM1008.35,866.83l-1.77,1.77,15.97,15.97,1.77-1.77-15.97-15.97h0ZM1011.9,863.29l-1.77,1.77,15.97,15.97,1.77-1.77-15.97-15.97h0ZM1015.45,859.74l-1.77,1.77,15.97,15.97,1.77-1.77-15.97-15.97h0ZM1019,856.19l-1.77,1.77,15.97,15.97,1.77-1.77-15.97-15.97h0ZM1022.55,852.64l-1.77,1.77,15.97,15.97,1.77-1.77-15.97-15.97h0ZM1024.14,850.86c-.24.3-.49.6-.74.88l16.84,15.05c.23-.25.45-.51.67-.77h0s.05-.06.07-.09c0,0,0,0,0,0,.01-.02.03-.03.04-.05,0,0,0,0,.01-.01.01-.01.02-.03.03-.04,0,0,.01-.01.01-.02,0,0,.01-.02.02-.02,0,0,0-.01.01-.02.01-.01.02-.02.03-.04,0,0,.01-.01.02-.02,0,0,.01-.02.02-.03,0,0,.02-.02.02-.03,0,0,.01-.01.02-.02,0-.01.02-.02.03-.04v-.02s.03-.02.04-.03c0,0,.01-.02.02-.02,0-.01.02-.02.03-.03,0,0,.01-.01.02-.02,0-.01.02-.02.03-.04l.02-.02s.01-.02.02-.03c0,0,.02-.02.02-.03,0,0,.01-.02.02-.02,0,0,.01-.01.02-.02,0-.01.02-.02.03-.03,0,0,.01-.02.02-.02,0,0,0-.01.02-.02l.03-.04s0,0,.01-.01c.09-.11.18-.22.26-.33l-17.72-14.01h0ZM1025.45,848.98c-.2.32-.41.65-.63.96l18.53,12.92s.02-.03.03-.04c0,0,0,0,0-.01,0-.01.02-.02.03-.04,0,0,.01-.02.02-.02,0,0,.01-.02.02-.02.45-.65.87-1.3,1.28-1.96l-19.28-11.77h0ZM1026.53,846.96c-.16.35-.33.69-.51,1.03l19.95,10.59c.03-.06.06-.11.09-.17,0,0,0-.01.01-.02,0,0,0-.02.01-.03,0-.01.01-.03.02-.04,0,0,0,0,0-.01.23-.44.45-.88.66-1.32h0s.04-.07.05-.11h0s.02-.04.02-.06c0,0,0-.01,0-.02,0-.01,0-.02.01-.03,0-.01.01-.02.02-.03,0,0,0-.02.01-.03,0-.01,0-.02.01-.03,0,0,0,0,0,0,.05-.12.11-.23.16-.35l-20.55-9.36h0ZM1027.36,844.8c-.12.37-.25.73-.38,1.09l21.08,8.11c.05-.13.1-.27.15-.4,0,0,0,0,0,0l.02-.05s0-.02,0-.02c0,0,0-.02,0-.02,0-.02.01-.03.02-.04,0,0,0,0,0-.01,0-.02.01-.03.02-.05,0,0,0,0,0,0,0-.02.01-.04.02-.06,0,0,0,0,0,0,.17-.46.33-.92.48-1.38,0,0,0,0,0,0,0-.02.01-.03.02-.05,0,0,0-.01,0-.02,0-.01,0-.02.01-.04,0-.01,0-.02.01-.04,0,0,0-.01,0-.02.02-.05.03-.09.05-.14l-21.53-6.84h0ZM1027.93,842.55c-.07.38-.16.76-.25,1.14l21.9,5.54v-.02s0-.01,0-.02c0-.02,0-.03.01-.05v-.02s.01-.02.01-.04v-.03s.01-.02.02-.03v-.03s.01-.02.01-.03c0-.01,0-.03,0-.04,0,0,0-.01,0-.02,0-.03.02-.07.03-.1,0,0,0,0,0,0,0-.02.01-.05.02-.07t0,0c.16-.65.3-1.3.42-1.95l-22.19-4.23h0ZM1028.23,840.22c-.03.39-.07.78-.12,1.17l22.4,2.91c.11-.83.19-1.66.25-2.5l-22.53-1.58h0ZM1050.82,836.79l-22.56,1.08c.02.39.03.79.02,1.18l22.58.25c0-.27,0-.55,0-.82h0s0-.08,0-.12c0,0,0,0,0-.01v-.06s0,0,0-.01c0-.01,0-.02,0-.03,0,0,0,0,0-.01,0-.02,0-.04,0-.06,0,0,0-.01,0-.02,0-.01,0-.03,0-.04,0,0,0-.02,0-.03,0,0,0-.02,0-.03,0,0,0-.02,0-.03,0-.01,0-.03,0-.04,0,0,0-.02,0-.03,0,0,0-.02,0-.03,0-.01,0-.03,0-.04,0,0,0-.02,0-.03,0,0,0-.02,0-.03,0-.01,0-.02,0-.04,0-.01,0-.02,0-.03,0,0,0-.02,0-.02,0-.01,0-.03,0-.04,0,0,0-.02,0-.03,0-.01,0-.02,0-.03,0,0,0-.01,0-.02v-.05s0-.01,0-.02c0-.01,0-.03,0-.04,0,0,0,0,0-.01,0-.02,0-.03,0-.05,0,0,0,0,0-.01,0-.02,0-.04,0-.05,0,0,0,0,0,0,0-.02,0-.03,0-.05,0,0,0,0,0,0,0-.02,0-.04,0-.06,0,0,0,0,0,0,0-.15-.01-.3-.02-.45h0ZM1050.28,831.8l-22.28,3.73c.06.38.12.77.16,1.16l22.46-2.41c-.09-.83-.2-1.66-.34-2.49h0ZM1049.16,826.91l-21.68,6.35c.11.37.21.75.29,1.13l22.01-5.04c-.19-.81-.4-1.62-.63-2.43h0ZM1047.47,822.19l-20.76,8.89c.15.35.29.71.42,1.07l21.26-7.63c-.07-.18-.13-.36-.2-.54,0,0,0,0,0-.01,0-.01,0-.02-.01-.03v-.04s-.02-.02-.02-.03c0,0,0-.02-.01-.03,0-.01,0-.02-.01-.03,0-.01,0-.02-.01-.04,0,0,0-.01,0-.02,0-.02-.01-.03-.02-.04,0,0,0-.01,0-.02,0-.01,0-.02-.01-.04,0,0,0-.01,0-.02,0-.02-.01-.03-.02-.05,0,0,0-.01,0-.02,0-.01-.01-.03-.02-.04,0,0,0-.01,0-.02,0-.01,0-.02-.01-.04,0,0,0-.01,0-.02,0-.02-.01-.03-.02-.04,0,0,0-.01,0-.02,0,0,0-.02-.01-.03v-.03s-.02-.02-.02-.03c0,0,0-.02-.01-.03,0,0,0-.01,0-.02,0-.02-.01-.03-.02-.05h0c-.13-.35-.27-.69-.42-1.02h0ZM1045.22,817.7l-19.54,11.33c.19.33.37.67.54,1.01l20.19-10.13c-.03-.07-.07-.13-.1-.2,0,0,0-.02-.01-.03,0,0,0-.01,0-.02,0-.02-.02-.03-.03-.05,0,0,0,0,0,0-.21-.42-.44-.83-.66-1.25,0,0,0,0,0,0,0-.02-.02-.03-.03-.05,0,0,0-.01,0-.02,0-.01-.01-.02-.02-.04,0-.01-.01-.02-.02-.03,0,0,0-.01,0-.02-.09-.17-.19-.34-.29-.51h0ZM1042.44,813.52l-18.03,13.6c.23.3.45.62.66.94l18.82-12.49c-.46-.69-.94-1.38-1.45-2.05h0ZM1039.19,809.71l-16.28,15.66c.27.28.53.57.78.86l17.18-14.66s-.03-.04-.05-.06c0,0,0,0,0,0-.01-.02-.03-.03-.04-.05,0,0,0,0,0,0l-.02-.02s-.01-.01-.02-.02c0-.01-.02-.02-.03-.03,0,0-.01-.01-.02-.02,0,0-.01-.01-.02-.02,0-.01-.02-.02-.03-.03l-.02-.02s-.02-.02-.03-.04c0,0,0,0-.01-.01-.01-.01-.02-.02-.03-.03,0,0,0-.01-.01-.02-.01-.01-.02-.02-.03-.03h-.01s-.02-.04-.03-.05c0,0,0,0-.01-.01-.01-.01-.02-.03-.04-.04,0,0,0,0,0,0-.01-.01-.02-.02-.03-.03,0,0,0,0-.01-.01-.01-.01-.02-.03-.03-.04h-.01s-.02-.04-.03-.05c0,0,0-.01-.01-.02,0-.01-.02-.02-.03-.03,0,0-.01-.01-.02-.02,0,0-.02-.02-.03-.03,0,0-.01-.01-.02-.02,0-.01-.02-.02-.03-.03,0,0-.01-.01-.02-.02,0,0-.01-.01-.02-.02-.01-.01-.02-.02-.03-.03,0,0-.01-.01-.02-.02,0-.01-.02-.02-.03-.03,0,0-.01-.01-.02-.02,0,0-.02-.02-.02-.02,0,0,0,0-.01-.01-.01-.01-.03-.03-.04-.04,0,0,0,0-.01-.01-.01-.02-.03-.03-.04-.05,0,0,0,0,0,0-.03-.03-.05-.06-.08-.08,0,0,0,0,0,0-.06-.07-.12-.13-.18-.2,0,0,0,0,0,0-.06-.07-.12-.13-.19-.2,0,0,0,0,0,0-.03-.03-.05-.05-.08-.08,0,0,0,0,0-.01-.01-.01-.03-.03-.04-.04,0,0-.01-.01-.02-.02l-.02-.02s-.02-.02-.03-.03c0,0,0-.01-.01-.02-.01-.01-.02-.02-.03-.03h0ZM1035.64,806.15l-15.97,15.97,1.77,1.77,15.97-15.97-1.77-1.77h0ZM1032.1,802.6l-15.97,15.97,1.77,1.77,15.97-15.97-1.77-1.77h0ZM1028.55,799.06l-15.97,15.97,1.77,1.77,15.97-15.97-1.44-1.44c-.2-.2-.34-.34-.34-.34h0ZM1025,795.51l-15.97,15.97,1.77,1.77,15.97-15.97s-.17-.17-.41-.41h0s-.01-.01-.02-.02h0s0,0,0,0l-1.34-1.34h0ZM1021.45,791.96l-15.97,15.97,1.77,1.77,15.97-15.97s-.24-.24-.54-.54l-1.23-1.23h0ZM1017.9,788.41l-15.97,15.97,1.77,1.77,15.97-15.97-1.77-1.77h0ZM1014.35,784.86l-15.97,15.97,1.77,1.77,15.97-15.97-.98-.98s0,0,0,0h0c-.41-.41-.78-.78-.78-.78h0ZM1010.8,781.31l-15.97,15.97,1.77,1.77,15.97-15.97-.88-.88s0,0,0,0h0c-.44-.45-.88-.89-.88-.89h0ZM1007.25,777.76l-15.97,15.97,1.77,1.77,15.97-15.97s-.54-.54-1.03-1.03l-.75-.75h0ZM1003.7,774.21l-15.97,15.97,1.77,1.77,15.97-15.97s-.62-.62-1.13-1.13h0s-.01-.01-.01-.02l-.62-.62h0ZM1000.16,770.66l-15.97,15.97,1.77,1.77,15.97-15.97-.53-.53s0,0,0,0h0s-.01-.01-.02-.02h0c-.52-.52-1.21-1.21-1.21-1.21h0ZM996.61,767.11l-15.97,15.97,1.77,1.77,15.97-15.97-.42-.42c-.52-.52-1.35-1.35-1.35-1.35h0ZM993.06,763.57l-15.97,15.97,1.77,1.77,15.97-15.97-1.77-1.77h0ZM989.51,760.02l-15.97,15.97,1.77,1.77,15.97-15.97-1.77-1.77h0ZM985.96,756.47l-15.97,15.97,1.77,1.77,15.97-15.97-1.77-1.77h0ZM982.41,752.92l-15.97,15.97,1.77,1.77,15.97-15.97h0s0,0,0,0h0s0,0,0,0h0s0,0-.01-.01h0s-.03-.03-.06-.06h0c-.34-.34-1.7-1.7-1.7-1.7h0ZM978.86,749.37l-15.97,15.97,1.77,1.77,15.97-15.97-1.77-1.77h0ZM975.31,745.82l-15.97,15.97,1.77,1.77,15.97-15.97-1.77-1.77h0ZM971.76,742.27l-15.97,15.97,1.77,1.77,15.97-15.97-1.37-1.37c-.24-.24-.41-.41-.41-.41h0ZM968.21,738.72l-15.97,15.97,1.77,1.77,15.97-15.97-1.77-1.77h0ZM964.67,735.17l-15.97,15.97,1.77,1.77,15.97-15.97s-.28-.28-.62-.62l-1.16-1.16h0ZM961.12,731.62l-15.97,15.97,1.77,1.77,15.97-15.97-1.77-1.77h0ZM957.57,728.08l-15.97,15.97,1.77,1.77,15.97-15.97-.92-.92s0,0,0,0h0c-.43-.44-.84-.85-.84-.85h0ZM954.02,724.53l-15.97,15.97,1.77,1.77,15.97-15.97-.81-.81c-.47-.47-.97-.97-.97-.97h0ZM950.47,720.98l-15.97,15.97,1.77,1.77,15.97-15.97-1.77-1.77h0ZM946.92,717.43l-15.97,15.97,1.77,1.77,15.97-15.97-1.21-1.21-.57-.57h0ZM943.37,713.88l-15.97,15.97,1.77,1.77,15.97-15.97-1.77-1.77h0ZM939.82,710.33l-15.97,15.97,1.77,1.77,15.97-15.97-.35-.35c-.52-.52-1.42-1.42-1.42-1.42h0ZM936.27,706.78l-15.97,15.97,1.77,1.77,15.97-15.97-1.77-1.77h0ZM932.72,703.23l-15.97,15.97,1.77,1.77,15.97-15.97-1.77-1.77h0ZM929.18,699.68l-15.97,15.97,1.77,1.77,15.97-15.97-.38-.38s0,0,0,0h-.01s0-.02,0-.02l-.03-.03s0,0,0,0h0s0-.02-.01-.02l-.03-.03h0s0-.01,0-.01c0,0,0,0,0,0h0s0,0,0,0l-.09-.09s0,0,0,0l-.04-.04s0,0-.01-.01l-.02-.02s0,0,0,0l-.02-.02s0,0,0,0h0s0-.01,0-.01l-.03-.03s0,0,0,0h0s0-.02-.01-.02h0s0-.01-.01-.02h0s0-.01,0-.01l-.07-.07h0l-.05-.05s0,0,0,0h0s0,0,0,0l-.02-.02s0,0,0,0h0s0-.01,0-.01l-.02-.02s-.01-.01-.02-.02h0s-.01-.02-.02-.02h0s-.01-.01-.02-.02h0s0,0,0-.01h-.01s-.02-.04-.03-.05h0s-.03-.03-.04-.04h0s-.05-.05-.07-.08h0c-.1-.11-.2-.21-.28-.29h0c-.08-.08-.15-.15-.2-.2h0s-.08-.08-.08-.08h0ZM925.63,696.14l-15.97,15.97,1.77,1.77,15.97-15.97-1.77-1.77h0ZM922.08,692.59l-15.97,15.97,1.77,1.77,15.97-15.97-1.77-1.77h0ZM918.53,689.04l-15.97,15.97,1.77,1.77,15.97-15.97-1.77-1.77h0ZM914.98,685.49l-15.97,15.97,1.77,1.77,15.97-15.97-1.29-1.29c-.27-.27-.48-.48-.48-.48h0ZM911.43,681.94l-15.97,15.97,1.77,1.77,15.97-15.97-1.18-1.18s0,0,0,0h0s-.01-.01-.02-.02h0c-.31-.31-.56-.56-.56-.56h0ZM907.88,678.39l-15.97,15.97,1.77,1.77,15.97-15.97s-.31-.31-.68-.68l-1.1-1.1h0ZM904.33,674.84l-15.97,15.97,1.77,1.77,15.97-15.97s-.39-.39-.8-.8l-.97-.97h0ZM900.78,671.29l-15.97,15.97,1.77,1.77,15.97-15.97-1.77-1.77h0ZM897.23,667.74l-15.97,15.97,1.77,1.77,15.97-15.97-.74-.74s0,0,0,0h0c-.49-.49-1.03-1.04-1.03-1.04h0ZM893.69,664.19l-15.97,15.97,1.77,1.77,15.97-15.97-1.77-1.77h0ZM890.14,660.65l-15.97,15.97,1.77,1.77,15.97-15.97s-.76-.76-1.28-1.28l-.49-.49h0ZM886.59,657.1l-15.97,15.97,1.77,1.77,15.97-15.97s-.88-.88-1.4-1.4h0s0-.01-.01-.02l-.36-.36h0ZM883.04,653.55l-15.97,15.97,1.77,1.77,15.97-15.97-1.77-1.77h0ZM879.49,650l-15.97,15.97,1.77,1.77,15.97-15.97-1.77-1.77h0ZM875.94,646.45l-15.97,15.97,1.77,1.77,15.97-15.97-1.74-1.74s0,0,0,0l-.04-.04h0ZM872.32,642.98l-14.77,17.09c.29.25.58.52.86.79l15.76-16.17c-.6-.59-1.22-1.15-1.85-1.7h0ZM868.33,639.93l-12.61,18.74c.32.21.63.44.93.67l13.72-17.94c-.28-.22-.57-.43-.85-.63h0s-.04-.03-.06-.04c0,0,0,0,0,0-.03-.02-.06-.04-.09-.07,0,0,0,0-.01,0-.02-.01-.04-.03-.05-.04,0,0,0,0,0,0l-.09-.06s0,0-.01,0c-.02-.01-.03-.02-.05-.03,0,0,0,0-.01,0-.03-.02-.06-.04-.09-.06,0,0,0,0-.01,0-.02-.01-.03-.02-.05-.03,0,0,0,0-.01,0-.03-.02-.06-.04-.09-.06,0,0,0,0,0,0-.02-.01-.03-.02-.05-.04,0,0,0,0,0,0-.03-.02-.06-.04-.09-.06,0,0,0,0-.01,0l-.05-.04s0,0,0,0l-.05-.04s0,0,0,0c0,0-.02-.01-.03-.02,0,0,0,0-.01,0-.02-.01-.03-.02-.05-.03,0,0,0,0-.01,0-.01-.01-.03-.02-.04-.03h-.02s-.02-.02-.03-.03c0,0-.01,0-.02-.01-.01,0-.02-.02-.03-.02,0,0,0,0-.01,0h0ZM864.01,637.39l-10.26,20.12c.34.17.68.36,1,.55l11.46-19.46c-.22-.13-.44-.26-.66-.38,0,0,0,0,0,0-.02,0-.03-.02-.05-.03,0,0,0,0-.01,0-.01,0-.02-.01-.03-.02-.01,0-.02-.01-.03-.02,0,0-.02,0-.02-.01,0,0-.02-.01-.03-.02,0,0,0,0,0,0-.4-.22-.8-.44-1.21-.65h0s-.04-.02-.06-.03c0,0,0,0,0,0-.01,0-.02-.01-.03-.02,0,0-.02,0-.02-.01,0,0,0,0-.01,0h0ZM859.41,635.38l-7.77,21.21c.36.13.72.28,1.07.43l9.03-20.7c-.39-.17-.78-.33-1.18-.49,0,0,0,0,0,0-.02,0-.04-.02-.06-.02h0s-.03-.02-.05-.02c0,0,0,0,0,0l-.05-.02s-.01,0-.02,0c-.01,0-.02,0-.04-.01h-.03s-.02-.02-.02-.02c-.03-.01-.07-.03-.1-.04,0,0,0,0,0,0-.26-.1-.51-.2-.77-.29h0ZM854.61,633.94l-5.19,21.98c.38.09.75.19,1.12.3l6.49-21.63c-.21-.06-.42-.12-.63-.18,0,0,0,0,0,0-.02,0-.04-.01-.06-.02,0,0,0,0,0,0-.02,0-.04-.01-.06-.02h0s-.04-.01-.06-.02h-.01s-.04-.01-.05-.02h-.01s-.03-.01-.04-.01c0,0-.01,0-.02,0-.02,0-.03,0-.05-.01,0,0-.02,0-.02,0,0,0-.02,0-.03,0-.01,0-.03,0-.04-.01,0,0-.01,0-.02,0-.01,0-.02,0-.03,0,0,0,0,0,0,0-.02,0-.05-.01-.07-.02,0,0,0,0,0,0-.4-.11-.81-.21-1.21-.31h0ZM849.66,633.08l-2.55,22.44c.39.04.78.1,1.16.17l3.88-22.25c-.22-.04-.43-.07-.65-.11,0,0,0,0-.01,0-.02,0-.04,0-.05,0,0,0-.01,0-.02,0,0,0-.02,0-.03,0-.01,0-.02,0-.03,0-.01,0-.02,0-.03,0-.01,0-.02,0-.03,0,0,0-.01,0-.02,0-.02,0-.03,0-.05,0,0,0,0,0-.01,0-.02,0-.04,0-.05,0,0,0,0,0,0,0-.02,0-.04,0-.06,0,0,0,0,0,0,0-.31-.05-.62-.09-.93-.13,0,0,0,0,0,0-.02,0-.04,0-.06,0,0,0,0,0,0,0-.02,0-.04,0-.05,0,0,0,0,0,0,0-.02,0-.04,0-.05,0,0,0-.01,0-.02,0-.01,0-.03,0-.04,0,0,0-.02,0-.03,0,0,0-.02,0-.02,0-.06,0-.12-.01-.18-.02h0ZM844.86,632.81v22.59c.36,0,.72,0,1.08.03l1.22-22.55c-.42-.02-.84-.04-1.26-.05h-.07s-.01,0-.01,0c-.01,0-.03,0-.04,0,0,0-.02,0-.03,0,0,0-.02,0-.03,0-.01,0-.03,0-.04,0,0,0-.02,0-.02,0-.01,0-.02,0-.03,0-.01,0-.02,0-.03,0-.01,0-.02,0-.04,0,0,0-.01,0-.02,0-.02,0-.03,0-.05,0,0,0-.01,0-.02,0-.02,0-.03,0-.05,0h-.02s-.03,0-.05,0h-.01s-.03,0-.05,0h-.01s-.03,0-.05,0c0,0,0,0-.01,0-.02,0-.04,0-.05,0h-.07s-.04,0-.06,0h0s-.04,0-.06,0h-.13Z"/>
        <path class="cls-1" d="M844.86,737.25h-.07s-.02,0-.03,0h-.07s0,0,0,0h-.04s-.02,0-.03,0h0s-.02,0-.03,0h-.04s0,0,0,0h-.02s0,0-.01,0h-.02s0,0-.01,0c0,0-.02,0-.02,0h-.02s0,0-.01,0c0,0-.02,0-.02,0h-.01s-.02,0-.03,0c0,0,0,0,0,0-.25,0-.49.01-.74.03l.6,11.23c.22-.01.43-.02.65-.02v-11.24h0ZM842.36,737.39c-.19.02-.38.04-.57.07h0s-.09.01-.14.02h0s-.02,0-.03,0h0c-.17.02-.33.05-.49.07l1.78,11.1c.21-.03.43-.06.65-.09l-1.19-11.18h0ZM839.9,737.78s-.02,0-.03,0h0s-.02,0-.03,0c0,0,0,0,0,0,0,0-.02,0-.02,0,0,0-.01,0-.02,0,0,0,0,0,0,0-.37.08-.73.17-1.09.27l2.96,10.84c.21-.06.42-.11.63-.15l-2.37-10.99h0ZM837.49,738.44c-.39.13-.79.27-1.17.42l4.11,10.46c.2-.08.4-.15.6-.22l-3.54-10.67h0ZM835.16,739.35c-.19.09-.38.17-.56.27,0,0,0,0,0,0-.01,0-.02.01-.03.02t0,0s-.02.01-.03.02h0s-.03.02-.05.03c0,0,0,0,0,0h-.03s0,.02,0,.02c0,0-.02,0-.03.01,0,0,0,0,0,0,0,0-.01,0-.02.01,0,0,0,0-.01,0,0,0,0,0-.01,0,0,0-.01,0-.02,0,0,0,0,0-.01,0,0,0-.01,0-.02.01,0,0,0,0-.01,0,0,0-.02,0-.02.01,0,0,0,0,0,0,0,0-.02,0-.03.01,0,0,0,0,0,0,0,0-.02,0-.03.01h0s-.02.01-.03.02h0s-.08.04-.13.07l5.21,9.96c.19-.1.38-.19.57-.28l-4.67-10.23h0ZM832.95,740.51c-.36.21-.71.43-1.06.67l6.26,9.33c.18-.12.36-.23.54-.34l-5.75-9.66h0ZM830.88,741.9c-.1.07-.19.15-.29.22,0,0,0,0,0,0,0,0-.02.01-.03.02,0,0,0,0,0,0,0,0-.02.01-.03.02,0,0,0,0,0,0,0,0-.02.01-.02.02,0,0,0,0,0,0,0,0-.02.01-.02.02,0,0,0,0,0,0,0,0-.01.01-.02.02,0,0,0,0,0,0,0,0-.01.01-.02.02,0,0,0,0,0,0,0,0-.01.01-.02.02,0,0,0,0,0,0,0,0-.01.01-.02.02,0,0,0,0,0,0,0,0-.01.01-.02.02,0,0,0,0,0,0,0,0-.01.01-.02.02h0s-.01.02-.02.02c0,0,0,0,0,0,0,0-.01,0-.02.01,0,0,0,0-.01.01,0,0,0,0-.01,0,0,0-.01,0-.02.01,0,0,0,0,0,0,0,0-.01.01-.02.02,0,0,0,0,0,0,0,0-.02.01-.03.02,0,0,0,0,0,0-.08.07-.16.13-.24.2l7.24,8.6c.16-.14.33-.27.5-.4l-6.76-8.98h0ZM828.97,743.51s-.02.02-.03.03c0,0,0,0,0,0,0,0-.02.02-.03.02,0,0,0,0,0,0,0,0-.02.01-.02.02,0,0,0,0,0,0,0,0-.02.01-.02.02,0,0,0,0,0,0,0,0-.02.01-.02.02,0,0,0,0,0,0,0,0-.01.01-.02.02,0,0,0,0,0,0,0,0-.01.01-.02.02,0,0,0,0,0,0,0,0-.01.01-.02.02,0,0,0,0,0,0,0,0-.01.01-.02.02,0,0,0,0,0,0,0,0-.01.01-.02.02,0,0,0,0,0,0,0,0-.01.01-.02.02,0,0,0,0,0,0,0,0-.01.01-.02.02,0,0,0,0,0,0,0,0-.01.01-.02.02,0,0,0,0,0,0,0,0-.01.01-.02.02h0s-.02.02-.02.03c0,0,0,0,0,0,0,0-.01.01-.02.02,0,0,0,0,0,0,0,0-.02.02-.02.02,0,0,0,0,0,0,0,0-.01.01-.02.02,0,0,0,0,0,0,0,0-.02.02-.02.02h0s-.02.02-.02.03h0l-.35.35,7.95,7.95.35-.35c.09-.09.18-.18.28-.27l-7.69-8.2h0ZM827.19,745.27l-.88.88,7.95,7.95.88-.88-7.95-7.95h0ZM825.43,747.03s-.05.05-.12.12l-.76.76,7.95,7.95.88-.88-7.95-7.95h0ZM823.66,748.8l-.88.88,7.95,7.95.88-.88-7.95-7.95h0ZM821.89,750.56s-.1.1-.24.24h0s0,0,0,0l-.64.64,7.95,7.95.88-.88-7.95-7.95h0ZM820.13,752.33l-.88.88,7.95,7.95.88-.88-7.95-7.95h0ZM818.36,754.1s-.17.17-.36.36h0s0,0,0,.01h0s0,0,0,0l-.51.51,7.95,7.95.88-.88-7.95-7.95h0ZM816.6,755.86l-.88.88,7.95,7.95.88-.88-7.95-7.95h0ZM814.83,757.63l-.88.88,7.95,7.95.88-.88-7.95-7.95h0ZM813.06,759.4l-.88.88,7.95,7.95.88-.88-7.95-7.95h0ZM811.3,761.16l-.88.88,7.95,7.95.88-.88-7.95-7.95h0ZM809.53,762.93l-.21.21s0,0,0,0h0s0,0,0,0h0c-.26.26-.66.66-.66.66l7.95,7.95.88-.88-7.95-7.95h0ZM807.76,764.7l-.88.88,7.95,7.95.88-.88-7.95-7.95h0ZM806,766.46l-.88.88,7.95,7.95.88-.88-7.95-7.95h0ZM804.23,768.23l-.88.88,7.95,7.95.88-.88-7.95-7.95h0ZM802.46,769.99h0s0,0-.01,0h0s-.02.02-.03.03h0s-.06.06-.1.1h0l-.75.75,7.95,7.95.88-.88-7.95-7.95h0ZM800.7,771.76l-.88.88,7.95,7.95.88-.88-7.95-7.95h0ZM798.93,773.53l-.73.73c-.09.09-.15.15-.15.15l7.95,7.95.88-.88-7.95-7.95h0ZM797.17,775.29l-.88.88,7.95,7.95.88-.88-7.95-7.95h0ZM795.4,777.06l-.62.62-.27.27,7.95,7.95.88-.88-7.95-7.95h0ZM793.63,778.83l-.88.88,7.95,7.95.88-.88-7.95-7.95h0ZM791.87,780.59l-.5.5h0s0,0,0,0c-.2.2-.38.38-.38.38l7.95,7.95.88-.88-7.95-7.95h0ZM790.1,782.36l-.43.43h0s0,0,0,0l-.45.45,7.95,7.95.88-.88-7.95-7.95h0ZM788.33,784.13l-.39.39c-.24.24-.5.5-.5.5l7.95,7.95.88-.88-7.95-7.95h0ZM786.57,785.89s-.31.31-.56.56h0s0,0,0,0l-.32.31,7.95,7.95.88-.88-7.95-7.95h0ZM784.8,787.66l-.88.88,7.95,7.95.88-.88-7.95-7.95h0ZM783.03,789.42s-.43.43-.69.69l-.19.19,7.95,7.95.88-.88-7.95-7.95h0ZM781.27,791.19l-.88.88,7.95,7.95.88-.88-7.95-7.95h0ZM779.5,792.96l-.88.88,7.95,7.95.88-.88-7.95-7.95h0ZM777.74,794.72l-.86.86h0l-.02.02,7.95,7.95.88-.88-7.95-7.95h0ZM775.97,796.49l-.88.88,7.95,7.95.88-.88-7.95-7.95h0ZM774.2,798.26l-.88.88,7.95,7.95.88-.88-7.95-7.95h0ZM772.44,800.02l-.88.88,7.95,7.95.88-.88-7.95-7.95h0ZM770.67,801.79s-.09.09-.2.2h0s0,0,0,0h0s0,0,0,0l-.67.67,7.95,7.95.88-.88-7.95-7.95h0ZM768.9,803.56l-.88.88,7.95,7.95.88-.88-7.95-7.95h0ZM767.14,805.32l-.34.34-.55.55,7.95,7.95.88-.88-7.95-7.95h0ZM765.37,807.09l-.88.88,7.95,7.95.88-.88-7.95-7.95h0ZM763.61,808.85l-.88.88,7.95,7.95.88-.88-7.95-7.95h0ZM761.84,810.62l-.88.88,7.95,7.95.88-.88-7.95-7.95h0ZM760.07,812.39l-.88.88,7.95,7.95.88-.88-7.95-7.95h0ZM758.31,814.15l-.25.25s0,0,0,0h0s0,0,0,.01h0c-.26.26-.62.62-.62.62l7.95,7.95.88-.88-7.95-7.95h0ZM756.54,815.92l-.88.88,7.95,7.95.88-.88-7.95-7.95h0ZM754.77,817.69l-.88.88,7.95,7.95.88-.88-7.95-7.95h0ZM753.01,819.45l-.88.88,7.95,7.95.88-.88-7.95-7.95h0ZM751.24,821.22l-.54.54s0,0,0,0h0s0,.01,0,.01h0s0,0,0,0h0s0,.02,0,.02c0,0,0,0,0,0h-.01s0,.01,0,.01l-.04.04h0s-.01.01-.01.01h0s0,0,0,0c0,0,0,0,0,0h0s0,.01,0,.01h0s0,0,0,0h0s0,.01-.01.02h0s0,0,0,0h0s0,0,0,0h0s0,0,0,0h0s0,0,0,0h0s0,0,0,0l-.03.03s0,0,0,0h0s0,0,0,0h0s0,.01-.01.01h0s0,.01-.01.01h0s0,0-.01.01h0s-.02.02-.02.02h0s0,0-.01.01h0s0,0,0,0h0s0,0,0,0h0s0,0,0,0h0s0,0,0,0h0s0,0,0,0h0s0,0,0,0h0s0,0,0,0h0s0,0,0,0h0s0,0,0,0h0s0,0,0,0h0s0,0,0,0h0s7.95,7.95,7.95,7.95l.88-.88-7.95-7.95h0ZM749.48,823c-.06.07-.13.14-.19.21,0,0,0,0,0,0,0,0-.02.02-.02.03,0,0,0,0,0,0,0,0-.01.02-.02.02,0,0,0,0,0,0,0,0-.01.01-.02.02,0,0,0,0,0,0,0,0-.01.01-.02.02,0,0,0,0,0,0,0,0-.01.01-.02.02h0s-.01.02-.02.03c0,0,0,0,0,.01,0,0-.01.01-.02.02,0,0,0,0,0,.01l-.02.02s0,0-.01.01c0,0,0,.01-.01.02,0,0,0,0-.01.01,0,0,0,0-.01.01,0,0-.01.01-.01.02,0,0,0,0,0,.01,0,0-.01.01-.02.02,0,0,0,0,0,.01,0,0-.01.01-.02.02,0,0,0,0,0,.01,0,0,0,.01-.01.02,0,0,0,0-.01.01,0,0,0,.01-.01.02,0,0,0,0-.01.01,0,0,0,0,0,.01,0,0-.01.01-.02.02,0,0,0,0,0,.01,0,0-.01.01-.01.02,0,0,0,0,0,.01,0,0-.01.01-.02.02,0,0,0,0,0,.01,0,0-.01.01-.02.02,0,0,0,0,0,.01,0,0-.01.01-.01.02,0,0,0,0,0,0,0,0-.01.01-.01.02,0,0,0,0,0,0,0,0-.01.01-.02.02,0,0,0,0,0,0,0,0-.01.01-.02.02,0,0,0,0,0,0,0,0-.01.01-.02.02h0s-.01.02-.02.03c0,0,0,0,0,0,0,0-.01.02-.02.02,0,0,0,0,0,0,0,0,0,0,0,0l8.63,7.2c.14-.16.28-.33.43-.48l-8.23-7.66h0ZM747.89,824.91s-.04.05-.06.07c0,0,0,0,0,0,0,0-.01.02-.02.03,0,0,0,0,0,0,0,0-.01.02-.02.03,0,0,0,0,0,0,0,0-.01.02-.02.03,0,0,0,0,0,0,0,0-.01.02-.02.03,0,0,0,0,0,0,0,0-.01.02-.02.03h0s-.03.04-.04.06c0,0,0,0,0,0,0,0-.01.02-.02.03,0,0,0,0,0,0,0,0-.01.02-.02.03,0,0,0,0,0,0,0,0-.01.02-.02.03,0,0,0,0,0,0,0,0-.01.02-.02.03,0,0,0,0,0,0,0,0-.01.02-.02.03,0,0,0,0,0,0,0,0-.01.02-.02.03,0,0,0,0,0,0,0,0-.01.02-.02.03,0,0,0,0,0,0,0,0-.01.02-.02.02,0,0,0,0,0,0,0,0-.01.02-.02.02,0,0,0,0,0,0,0,0-.01.02-.02.02,0,0,0,0,0,0,0,0-.01.01-.02.02h0s0,.02-.01.03c0,0,0,0,0,.01,0,0,0,.01-.01.02h-.01s0,.02,0,.03c0,0,0,.01-.01.02,0,0,0,0,0,.01,0,0-.01.02-.02.02,0,0,0,0,0,0-.06.09-.12.18-.18.27l9.36,6.23c.12-.18.24-.35.37-.52l-9.01-6.73h0ZM746.5,826.99c-.21.36-.41.72-.6,1.09l9.98,5.18c.1-.19.2-.38.31-.56l-9.68-5.71h0ZM745.35,829.21c-.03.07-.06.14-.09.2,0,0,0,0,0,0,0,0,0,.02-.01.02,0,0,0,0,0,.01,0,0,0,0,0,.01,0,0,0,.02,0,.02,0,0,0,0,0,0-.1.24-.2.48-.3.72,0,0,0,0,0,0,0,0,0,.02-.01.03,0,0,0,0,0,.01h0s0,.03,0,.04c0,0,0,0,0,.01v.02s-.01,0-.01,0c0,0,0,.02-.01.03l10.48,4.07c.08-.2.16-.4.25-.59l-10.24-4.63h0ZM744.45,831.54c-.09.26-.17.53-.24.8h0s0,.02,0,.03c0,0,0,0,0,0,0,.01,0,.02,0,.03,0,0,0,0,0,0,0,.01,0,.02,0,.03h0s0,.02,0,.03c0,0,0,0,0,0,0,0,0,.02,0,.02,0,0,0,0,0,.01,0,0,0,.01,0,.02,0,0,0,.01,0,.02,0,0,0,0,0,.01,0,0,0,.02,0,.03,0,0,0,0,0,0-.01.05-.03.1-.04.15l10.86,2.92c.06-.21.12-.42.18-.62l-10.68-3.5h0ZM743.8,833.95s-.02.09-.03.13h0s0,.03,0,.04c0,0,0,0,0,0v.03s0,0,0,0v.03s0,0,0,.01c0,0,0,.01,0,.02,0,0,0,.01,0,.02,0,0,0,.01,0,.02,0,0,0,.01,0,.02,0,0,0,.01,0,.02,0,0,0,.01,0,.02,0,0,0,0,0,.01,0,0,0,.02,0,.03,0,0,0,0,0,0,0,0,0,.02,0,.03h0s0,.03,0,.04c0,0,0,0,0,0,0,.02,0,.04-.01.07h0s0,.02,0,.03c0,0,0,0,0,0-.02.11-.04.23-.06.34,0,0,0,0,0,0,0,.01,0,.02,0,.03,0,0,0,0,0,0,0,0,0,.02,0,.03,0,0,0,0,0,0,0,0,0,.01,0,.02,0,0,0,0,0,.01,0,0,0,.01,0,.02-.01.06-.02.13-.03.19l11.11,1.74c.03-.21.07-.43.12-.64l-11-2.33h0ZM743.41,836.41c-.04.36-.07.72-.09,1.08,0,0,0,0,0,0,0,.01,0,.02,0,.03,0,0,0,0,0,0,0,0,0,.02,0,.02,0,0,0,.01,0,.02,0,0,0,0,0,.01,0,.01,0,.02,0,.03,0,0,0,0,0,0,0,.01,0,.03,0,.04l11.23.55c.01-.22.03-.43.05-.65l-11.18-1.15h0ZM754.53,838.86l-11.24.04c0,.19,0,.38,0,.57h0s0,.07,0,.1h0s0,.02,0,.03c0,0,0,0,0,0,0,0,0,.02,0,.03,0,0,0,0,0,0,0,.01,0,.02,0,.03h0s0,.02,0,.04h0s0,.02,0,.03c0,0,0,0,0,0,0,.01,0,.02,0,.03,0,0,0,0,0,0,0,.12.01.24.02.36l11.22-.64c-.01-.22-.02-.44-.02-.65h0ZM754.61,840.17l-11.17,1.23c.01.13.03.26.05.39,0,0,0,0,0,0,0,0,0,.02,0,.03,0,0,0,0,0,0,0,0,0,.02,0,.03,0,0,0,0,0,.01,0,0,0,.02,0,.02,0,0,0,0,0,.01,0,0,0,.01,0,.02,0,0,0,.01,0,.02h0s0,.03,0,.03v.02s0,0,0,.02c0,0,0,.01,0,.02,0,0,0,0,0,.01,0,0,0,.01,0,.02,0,0,0,0,0,.01v.02s0,.01,0,.02c0,0,0,.01,0,.02,0,0,0,0,0,0,0,0,0,.02,0,.03,0,0,0,0,0,0,0,.01,0,.02,0,.03,0,0,0,0,0,0,.02.14.04.28.07.42l11.09-1.83c-.04-.21-.06-.43-.09-.64h0ZM754.82,841.45l-10.98,2.42c.09.41.19.81.3,1.21l10.83-3c-.06-.21-.11-.42-.16-.63h0ZM755.16,842.69l-10.66,3.58.02.05s0,0,0,0c0,0,0,.02,0,.03,0,0,0,0,0,.01,0,0,0,.01,0,.02,0,0,0,.01,0,.02,0,0,0,0,0,0,0,0,0,.02,0,.03,0,0,0,0,0,0,0,.01,0,.02.01.03,0,0,0,0,0,0,.11.32.23.64.36.96l10.45-4.15c-.08-.2-.15-.4-.22-.6h0ZM755.63,843.89l-10.21,4.71s0,.02.01.03c0,0,0,0,0,0,0,0,0,.01,0,.02,0,0,0,.01.01.02h0s0,.03.01.04c0,0,0,0,0,0,.07.14.13.28.2.42h0s.02.04.03.06c0,0,0,0,0,0,0,0,0,.02.01.03h0s0,.02.01.03c0,0,0,0,0,.01,0,0,0,.01,0,.02,0,0,0,.01,0,.02,0,0,0,0,0,0,.07.14.14.28.21.41l9.94-5.25c-.1-.19-.19-.38-.28-.57h0ZM756.23,845.01l-9.64,5.78c.05.08.1.17.15.25,0,0,0,0,0,0,0,.01.01.02.02.03,0,0,0,0,0,0,.02.03.03.05.05.08,0,0,0,0,0,0,0,0,.01.02.02.03,0,0,0,0,0,0,0,0,.01.02.02.03h0s.01.02.02.03c0,0,0,0,0,0,0,0,.01.02.02.03,0,0,0,0,0,0,.02.04.05.08.07.11h0s.01.02.02.03h0c.09.14.18.27.27.41l9.31-6.3c-.12-.18-.23-.36-.34-.54h0ZM756.95,846.07l-8.95,6.8s0,.01.01.02c0,0,0,0,0,0,0,0,.01.02.02.02,0,0,0,0,0,0,0,0,0,.01.01.02,0,0,0,.01.01.02,0,0,0,0,0,.01.09.12.19.24.29.37,0,0,0,0,0,0,0,0,.01.02.02.03,0,0,0,0,0,0,0,0,.01.01.02.02,0,0,0,0,0,.01,0,0,0,0,.01.01,0,0,0,.01.01.02,0,0,0,0,0,0,0,0,.01.01.02.02,0,0,0,0,0,0,0,0,.01.02.02.02,0,0,0,0,0,0,.1.12.19.24.29.35l8.57-7.27c-.14-.16-.27-.33-.4-.5h0ZM757.78,847.05l-8.17,7.72c.08.09.17.18.26.27,0,0,0,0,0,0,0,0,.02.02.02.02,0,0,0,0,.01.01,0,0,0,0,.01.01,0,0,0,0,.01.01h.01s.01.02.02.03c0,0,0,0,0,0,0,0,.01.01.02.02,0,0,0,0,0,0,0,0,.01.01.02.02h0s.02.02.02.03h0s.02.02.02.03h0s0,0,.02.02h0s.03.03.05.05h0s.04.04.07.07h0s.02.03.04.04h0s.01.01.02.02h0s0,0,0,0h0s0,0,0,0h0s0,0,0,0h0s0,0,0,0h0s0,0,0,0h0s0,0,0,0h0s.01.01.02.02h0s.02.02.04.04h0s.02.03.03.04h0s.01.01.02.02h0s0,0,0,0h0s0,0,0,0h0s0,0,0,0h0s0,0,0,0h0s0,0,.01.01h0s0,0,.01.01h0s0,0,0,0h0s0,0,0,0h0s0,0,0,0h0s0,0,0,0h0s0,0,0,0h0s0,0,0,0h0s7.95-7.95,7.95-7.95l-.42-.42c-.08-.08-.16-.16-.24-.25h0ZM759.32,848.59l-7.95,7.95h.01s0,.01,0,.01h0s0,0,0,0h0s0,0,0,0h0c.14.14.86.86.86.86l7.95-7.95-.88-.88h0ZM761.08,850.36l-7.95,7.95.88.88,7.95-7.95-.88-.88h0ZM762.85,852.13l-7.95,7.95.09.09s0,0,0,0h0c.23.23.79.79.79.79l7.95-7.95-.88-.88h0ZM764.61,853.89l-7.95,7.95.88.88,7.95-7.95-.88-.88h0ZM766.38,855.66l-7.95,7.95.18.17c.26.26.71.71.71.71l7.95-7.95-.88-.88h0ZM768.15,857.43l-7.95,7.95.88.88,7.95-7.95-.88-.88h0ZM769.91,859.19l-7.95,7.95.88.88,7.95-7.95-.88-.88h0ZM771.68,860.96l-7.95,7.95.88.88,7.95-7.95-.88-.88h0ZM773.45,862.73l-7.95,7.95.88.88,7.95-7.95-.88-.88h0ZM775.21,864.49l-7.95,7.95.88.88,7.95-7.95-.88-.88h0ZM776.98,866.26l-7.95,7.95.88.88,7.95-7.95-.88-.88h0ZM778.74,868.02l-7.95,7.95.88.88,7.95-7.95-.88-.88h0ZM780.51,869.79l-7.95,7.95.88.88,7.95-7.95-.88-.88h0ZM782.28,871.56l-7.95,7.95.54.54s0,0,0,0h0c.18.18.34.34.34.34l7.95-7.95-.88-.88h0ZM784.04,873.32l-7.95,7.95.88.88,7.95-7.95-.88-.88h0ZM785.81,875.09l-7.95,7.95.63.62c.15.15.26.26.26.26l7.95-7.95-.88-.88h0ZM787.58,876.86l-7.95,7.95.88.88,7.95-7.95-.88-.88h0ZM789.34,878.62l-7.95,7.95.71.71s0,0,0,0h0s0,0,0,0h0c.1.1.17.17.17.17l7.95-7.95-.88-.88h0ZM791.11,880.39l-7.95,7.95.88.88,7.95-7.95-.88-.88h0ZM792.88,882.16l-7.95,7.95.88.88,7.95-7.95-.88-.88h0ZM794.64,883.92l-7.95,7.95.88.88,7.95-7.95-.88-.88h0ZM796.41,885.69l-7.95,7.95s.68.68.84.85h0s.04.04.04.04h0l7.95-7.95-.88-.88h0ZM798.17,887.45l-7.95,7.95.02.02s0,0,0,0l.04.04s0,0,0,0h0s0,0,0,0h0s.81.82.81.82l7.95-7.95-.88-.88h0ZM799.94,889.22l-7.95,7.95.88.88,7.95-7.95-.88-.88h0ZM801.71,890.99l-7.95,7.95.09.09c.22.22.79.79.79.79l7.95-7.95-.88-.88h0ZM803.47,892.75l-7.95,7.95.88.88,7.95-7.95-.88-.88h0ZM805.24,894.52l-7.95,7.95.16.16s0,0,0,0h0c.26.26.71.72.71.72l7.95-7.95-.88-.88h0ZM807.01,896.29l-7.95,7.95.88.88,7.95-7.95-.88-.88h0ZM808.77,898.05l-7.95,7.95.25.25s0,0,0,0h0c.26.26.63.63.63.63l7.95-7.95-.88-.88h0ZM810.54,899.82l-7.95,7.95.88.88,7.95-7.95-.88-.88h0ZM812.31,901.58l-7.95,7.95.33.33s0,0,0,0h0c.25.25.55.56.55.56l7.95-7.95-.88-.88h0ZM814.07,903.35l-7.95,7.95.88.88,7.95-7.95-.88-.88h0ZM815.84,905.12l-7.95,7.95.88.88,7.95-7.95-.88-.88h0ZM817.6,906.88l-7.95,7.95.88.88,7.95-7.95-.88-.88h0ZM819.37,908.65l-7.95,7.95.88.88,7.95-7.95-.88-.88h0ZM821.14,910.42l-7.95,7.95.88.88,7.95-7.95-.88-.88h0ZM822.9,912.18l-7.95,7.95.88.88,7.95-7.95-.88-.88h0ZM824.67,913.95l-7.95,7.95.62.62s0,0,0,0h0c.15.15.26.26.26.26l7.95-7.95-.88-.88h0ZM826.44,915.72l-7.95,7.95.88.88,7.95-7.95-.88-.88h0ZM828.2,917.48l-7.95,7.95.7.7c.11.11.19.19.19.19l7.95-7.95-.88-.88h0ZM829.97,919.25l-7.95,7.95.88.88,7.95-7.95-.88-.88h0ZM831.74,921.01l-7.95,7.95.78.78c.06.06.1.1.1.1l7.95-7.95-.88-.88h0ZM833.5,922.78l-7.95,7.95.88.88,7.95-7.95-.88-.88h0ZM835.27,924.55l-7.95,7.95.86.86s0,0,0,0h0s0,0,.01.01h0s0,.01,0,.01l7.95-7.95-.88-.88h0ZM836.73,925.99l-7.63,8.26c.2.19.4.37.61.54,0,0,0,0,0,0,0,0,.02.01.03.02,0,0,0,0,0,0,0,0,.02.01.02.02,0,0,0,0,0,0,0,0,.01.01.02.02,0,0,0,0,0,0,0,0,.01.01.02.02,0,0,0,0,.01,0,0,0,0,0,.01.01,0,0,.01,0,.02.01,0,0,0,0,0,0,0,0,.02.01.02.02,0,0,0,0,0,0,.05.04.1.08.15.12l7.17-8.66c-.16-.14-.33-.28-.48-.42h0ZM837.71,926.81l-6.69,9.03c.34.25.68.49,1.02.72l6.19-9.38c-.18-.12-.35-.24-.52-.37h0ZM838.78,927.51l-5.67,9.71c.26.15.52.3.78.44,0,0,0,0,0,0,.01,0,.02.01.03.02,0,0,0,0,0,0,0,0,.02.01.03.02h0s.02.01.03.02c0,0,0,0,0,0,0,0,.02,0,.03.02,0,0,0,0,0,0,0,0,.02,0,.03.01,0,0,0,0,0,0,0,0,.02,0,.03.01,0,0,0,0,0,0,0,0,.02,0,.03.01,0,0,0,0,0,0,0,0,.02,0,.03.01,0,0,0,0,0,0,0,0,.02,0,.03.01,0,0,0,0,0,0,0,0,.02,0,.03.01,0,0,0,0,0,0l5.14-10c-.19-.1-.38-.2-.56-.31h0ZM839.91,928.1l-4.59,10.26c.22.1.45.2.68.29,0,0,0,0,0,0,0,0,.02,0,.03.01,0,0,0,0,0,0,0,0,.02,0,.03.01,0,0,0,0,0,0,0,0,.02,0,.03.01,0,0,0,0,0,0,0,0,.02,0,.02,0,0,0,0,0,0,0,0,0,.02,0,.02,0,0,0,0,0,0,0,0,0,.02,0,.03.01,0,0,0,0,0,0h.03s0,.01,0,.01c0,0,.02,0,.03.01,0,0,0,0,0,0,0,0,.02,0,.03.01,0,0,0,0,0,0,.06.02.12.05.18.07l4.03-10.5c-.2-.08-.4-.16-.59-.25h0ZM841.11,928.56l-3.45,10.7c.14.05.28.09.42.13,0,0,0,0,0,0,0,0,.01,0,.02,0,0,0,.01,0,.02,0,0,0,0,0,.01,0,0,0,.02,0,.02,0,0,0,0,0,0,0,0,0,.02,0,.03,0h0c.22.06.44.13.66.18l2.87-10.87c-.21-.05-.42-.12-.62-.18h0ZM842.36,928.89l-2.29,11.01c.12.03.25.05.37.07,0,0,0,0,0,0h.03s0,0,0,0h.03s0,0,0,0c0,0,.02,0,.03,0,0,0,0,0,0,0,0,0,.02,0,.03,0,0,0,0,0,0,0,0,0,.02,0,.03,0,0,0,0,0,0,0,0,0,.02,0,.03,0,0,0,0,0,.01,0,0,0,.02,0,.03,0,0,0,0,0,0,0,0,0,.01,0,.02,0,0,0,0,0,.01,0,0,0,.01,0,.02,0,0,0,0,0,0,0,0,0,.02,0,.03,0,0,0,0,0,.01,0,0,0,.02,0,.02,0,0,0,0,0,.01,0,0,0,.02,0,.02,0,0,0,0,0,.01,0,0,0,.01,0,.02,0,0,0,0,0,.01,0,0,0,.02,0,.02,0h.01s.02,0,.02,0c0,0,0,0,.01,0,0,0,.02,0,.03,0,0,0,0,0,0,0,0,0,.02,0,.02,0,0,0,0,0,.01,0,0,0,.01,0,.02,0,0,0,0,0,0,0,0,0,.02,0,.03,0,0,0,0,0,.01,0,0,0,.02,0,.03,0,0,0,0,0,.01,0,0,0,.02,0,.03,0,0,0,0,0,.01,0,0,0,.01,0,.02,0,0,0,0,0,.01,0,0,0,.01,0,.02,0,0,0,0,0,.01,0,0,0,.02,0,.02,0,0,0,0,0,.01,0,0,0,.01,0,.02,0l1.7-11.11c-.21-.03-.43-.07-.64-.12h0ZM843.65,929.08l-1.11,11.19c.13.01.27.02.4.04,0,0,0,0,0,0,.01,0,.02,0,.03,0,0,0,0,0,0,0,.01,0,.02,0,.03,0h0s.02,0,.03,0c0,0,0,0,0,0,.01,0,.02,0,.03,0,0,0,0,0,0,0,0,0,.02,0,.03,0,0,0,0,0,0,0,0,0,.02,0,.03,0,0,0,0,0,0,0,0,0,.02,0,.03,0h0s.02,0,.03,0c0,0,0,0,0,0,0,0,.02,0,.03,0,0,0,0,0,0,0,0,0,.02,0,.03,0,0,0,0,0,0,0,0,0,.02,0,.03,0,0,0,0,0,0,0,0,0,.02,0,.03,0h0s.02,0,.03,0c0,0,0,0,0,0,0,0,.02,0,.03,0,0,0,0,0,0,0,0,0,.02,0,.03,0,0,0,0,0,.01,0,0,0,.02,0,.03,0,0,0,0,0,.01,0,0,0,.01,0,.02,0,0,0,.01,0,.02,0,0,0,.01,0,.02,0,0,0,.02,0,.03,0,0,0,0,0,0,0,.06,0,.13,0,.19,0l.51-11.23c-.22,0-.43-.03-.65-.05h0ZM845.6,929.12c-.22.01-.43.02-.65.02l.08,11.24c.26,0,.52,0,.78-.02h0c.16,0,.31-.01.47-.02l-.68-11.22h0ZM846.89,928.97c-.21.04-.43.07-.64.09l1.28,11.17c.18-.02.35-.04.53-.07h0s.02,0,.03,0h0s.04,0,.07,0c0,0,0,0,0,0,.01,0,.02,0,.03,0,0,0,0,0,0,0,0,0,.02,0,.03,0,0,0,0,0,0,0,0,0,.02,0,.03,0,0,0,0,0,0,0,0,0,.02,0,.03,0,0,0,0,0,0,0,0,0,.02,0,.03,0h0s.02,0,.03,0c0,0,0,0,.01,0,0,0,.02,0,.03,0,0,0,0,0,.01,0,0,0,.01,0,.02,0,0,0,.01,0,.02,0,0,0,.01,0,.02,0,0,0,.02,0,.02,0,0,0,0,0,.01,0,.01,0,.02,0,.03,0,0,0,0,0,0,0,.08-.01.15-.02.23-.04l-1.87-11.08h0ZM848.16,928.69c-.21.06-.42.11-.63.16l2.46,10.97s0,0,.01,0c0,0,0,0,0,0,.02,0,.04,0,.06-.01,0,0,0,0,0,0,.01,0,.02,0,.04,0,0,0,0,0,0,0,.01,0,.02,0,.03,0,0,0,0,0,0,0,.01,0,.02,0,.03,0,0,0,0,0,0,0,.02,0,.04,0,.05-.01,0,0,0,0,0,0,0,0,.02,0,.03,0,0,0,0,0,.01,0,0,0,.02,0,.02,0,0,0,0,0,.01,0,0,0,.01,0,.02,0,0,0,.01,0,.02,0h.01s.02,0,.02,0h.01s.02,0,.03,0c0,0,0,0,0,0,0,0,.02,0,.03,0,0,0,0,0,0,0h.03s0,0,0,0c.01,0,.02,0,.03,0,0,0,0,0,0,0,.01,0,.02,0,.03,0,0,0,0,0,0,0,.05-.01.09-.02.13-.03h0s.09-.02.14-.04c0,0,0,0,0,0,.01,0,.02,0,.03,0,0,0,0,0,0,0,.01,0,.02,0,.03,0,0,0,0,0,0,0,.01,0,.02,0,.03,0,0,0,0,0,0,0,0,0,.02,0,.03,0,0,0,0,0,0,0,0,0,.02,0,.03,0h.01s.01,0,.02,0h.02s0,0,0,0c.05-.01.1-.03.14-.04l-3.04-10.82h0ZM849.38,928.27c-.2.08-.4.15-.6.22l3.62,10.64c.1-.03.19-.07.29-.1,0,0,0,0,0,0,.01,0,.02,0,.03-.01,0,0,0,0,0,0,0,0,.02,0,.03,0,0,0,0,0,.01,0,0,0,.01,0,.02,0,0,0,0,0,.01,0,0,0,0,0,.01,0,0,0,.02,0,.02,0,0,0,0,0,0,0,.01,0,.02,0,.03-.01,0,0,0,0,0,0,.23-.08.46-.17.69-.27l-4.19-10.43h0ZM850.54,927.73c-.19.1-.38.2-.57.29l4.74,10.19c.08-.04.15-.07.23-.11,0,0,0,0,0,0,0,0,.02,0,.03-.01,0,0,0,0,0,0,0,0,.01,0,.02-.01,0,0,0,0,.01,0,0,0,.01,0,.02,0h.02s0,0,0-.01c0,0,.02,0,.03-.01,0,0,0,0,0,0,.25-.12.5-.25.75-.38l-5.29-9.92h0ZM851.63,927.07c-.17.12-.36.24-.54.35l5.82,9.62c.06-.03.11-.07.17-.1,0,0,0,0,0,0,0,0,.02,0,.02-.01,0,0,.01,0,.02,0,0,0,0,0,.01,0h.02s0-.02,0-.02c0,0,.02-.01.02-.02,0,0,0,0,0,0,0,0,.02-.01.03-.02,0,0,0,0,0,0,0,0,.02-.01.03-.02,0,0,0,0,0,0,.24-.15.48-.31.71-.47l-6.34-9.29h0ZM852.64,926.3c-.16.14-.33.27-.5.4l6.83,8.93c.11-.08.21-.16.32-.25,0,0,0,0,0,0,0,0,.02-.01.03-.02,0,0,0,0,0,0,0,0,.02-.01.03-.02h0s.02-.02.02-.02c0,0,0,0,0,0,0,0,.02-.01.02-.02,0,0,0,0,0,0,0,0,.02-.01.03-.02,0,0,0,0,0,0,0,0,.02-.01.03-.02,0,0,0,0,0,0,0,0,.02-.01.03-.02,0,0,0,0,0,0,0,0,.02-.01.03-.02,0,0,0,0,0,0,0,0,.02-.01.03-.02,0,0,0,0,0,0,0,0,.02-.01.03-.02h0s.02-.02.03-.02c0,0,0,0,0,0,0,0,.02-.02.03-.02,0,0,0,0,0,0,.1-.09.21-.17.31-.26l-7.3-8.54h0ZM853.81,925.18l-.48.48c-.07.07-.14.14-.21.21l7.75,8.14s0,0,0,0c0,0,.02-.01.02-.02,0,0,0,0,0,0,0,0,.02-.02.03-.02h0c.05-.05.1-.1.15-.15,0,0,0,0,0,0,0,0,.02-.02.02-.02,0,0,0,0,0,0,0,0,.02-.02.02-.02,0,0,0,0,0,0,0,0,.01-.01.02-.02h0s.01-.02.02-.02c0,0,0,0,0,0,0,0,.01-.01.02-.02,0,0,0,0,.01-.01,0,0,0,0,.01-.01,0,0,.01-.01.02-.02,0,0,0,0,0,0,0,0,.02-.02.03-.03h0l.48-.48-7.95-7.95h0ZM855.58,923.41l-.88.88,7.95,7.95.88-.88-7.95-7.95h0ZM857.34,921.65l-.88.88,7.95,7.95s.09-.09.2-.2l.68-.68-7.95-7.95h0ZM859.11,919.88l-.88.88,7.95,7.95.88-.88-7.95-7.95h0ZM860.88,918.11l-.88.88,7.95,7.95.88-.88-7.95-7.95h0ZM862.64,916.35l-.88.88,7.95,7.95.88-.88-7.95-7.95h0ZM864.41,914.58l-.88.88,7.95,7.95.88-.88-7.95-7.95h0ZM866.18,912.81l-.88.88,7.95,7.95s.47-.47.73-.73l.15-.15-7.95-7.95h0ZM867.94,911.05l-.88.88,7.95,7.95.88-.88-7.95-7.95h0ZM869.71,909.28l-.88.88,7.95,7.95h0s0,0,0,0c0,0,0,0,0,0h0s0,0,0,0h0s0,0,0,0h0s0,0,.01-.01h0s0,0,.02-.02h0s.06-.06.1-.1h0c.25-.25.74-.75.74-.75l-7.95-7.95h0ZM871.48,907.52l-.88.88,7.95,7.95.88-.88-7.95-7.95h0ZM873.24,905.75l-.88.88,7.95,7.95.64-.64c.14-.14.24-.24.24-.24l-7.95-7.95h0ZM875.01,903.98l-.88.88,7.95,7.95.88-.88-7.95-7.95h0ZM876.77,902.22l-.88.88,7.95,7.95.46-.46c.21-.21.42-.42.42-.42l-7.95-7.95h0ZM878.54,900.45l-.88.88,7.95,7.95s.28-.28.52-.52h0s0,0,0,0h0s0,0,0,0h0s0,0,0,0l.35-.35-7.95-7.95h0ZM880.31,898.68l-.88.88,7.95,7.95.88-.88-7.95-7.95h0ZM882.07,896.92l-.88.88,7.95,7.95s.49-.49.74-.74l.15-.15-7.95-7.95h0ZM883.84,895.15l-.88.88,7.95,7.95.88-.88-7.95-7.95h0ZM885.61,893.38l-.88.88,7.95,7.95.88-.88-7.95-7.95h0ZM887.37,891.62l-.88.88,7.95,7.95.88-.88-7.95-7.95h0ZM889.14,889.85l-.88.88,7.95,7.95.88-.88-7.95-7.95h0ZM890.91,888.09l-.88.88,7.95,7.95s.16-.16.34-.34l.55-.55-7.95-7.95h0ZM892.67,886.32l-.88.88,7.95,7.95.45-.45s0,0,0,0h0c.22-.22.43-.43.43-.43l-7.95-7.95h0ZM894.44,884.55l-.88.88,7.95,7.95s.3-.29.54-.54h0s0,0,0,0l.33-.33-7.95-7.95h0ZM896.2,882.79l-.88.88,7.95,7.95.25-.25h0s0,0,0,0c.26-.26.63-.63.63-.63l-7.95-7.95h0ZM897.97,881.02l-.88.88,7.95,7.95.88-.88-7.95-7.95h0ZM899.74,879.25l-.88.88,7.95,7.95.06-.06s0,0,0,0h0s0,0,0,0h0c.21-.21.81-.81.81-.81l-7.95-7.95h0ZM901.5,877.49l-.88.88,7.95,7.95.88-.88-7.95-7.95h0ZM903.27,875.72l-.88.88,7.95,7.95s.05-.05.13-.13l.75-.75-7.95-7.95h0ZM905.04,873.95l-.88.88,7.95,7.95.88-.88-7.95-7.95h0ZM906.8,872.19l-.88.88,7.95,7.95s.16-.16.35-.35l.53-.53-7.95-7.95h0ZM908.57,870.42l-.88.88,7.95,7.95.88-.88-7.95-7.95h0ZM910.34,868.66l-.88.88,7.95,7.95.88-.88-7.95-7.95h0ZM912.1,866.89l-.88.88,7.95,7.95.88-.88-7.95-7.95h0ZM913.87,865.12l-.88.88,7.95,7.95.88-.88-7.95-7.95h0ZM915.63,863.36l-.88.88,7.95,7.95.82-.82s0,0,0,0l.06-.06-7.95-7.95h0ZM917.4,861.59l-.88.88,7.95,7.95.88-.88-7.95-7.95h0ZM919.17,859.82l-.88.88,7.95,7.95.88-.88-7.95-7.95h0ZM920.93,858.06l-.88.88,7.95,7.95.88-.88-7.95-7.95h0ZM922.7,856.29l-.88.88,7.95,7.95.51-.51c.2-.2.37-.37.37-.37l-7.95-7.95h0ZM924.47,854.53l-.88.88,7.95,7.95s.23-.23.46-.46l.42-.42-7.95-7.95h0ZM926.23,852.76l-.88.88,7.95,7.95.88-.88-7.95-7.95h0ZM928,850.99l-.88.88,7.95,7.95s.42-.42.68-.68l.21-.21-7.95-7.95h0ZM929.76,849.23l-.88.88,7.95,7.95.88-.88-7.95-7.95h0ZM931.53,847.46l-.88.88,7.95,7.95.65-.65s0,0,0,0l.03-.03s0,0,0,0h.01s0-.01,0-.01h0s0,0,0,0h.01s0-.01,0-.01l.04-.04s0,0,0,0h0s0,0,0,0h0s0,0,0-.01h0s0,0,0,0h0s0,0,0,0h0s0-.02,0-.02h0s0,0,.01-.01h0s0,0,0-.01h0s0,0,0,0h0s0,0,0,0h0s0,0,0,0h0s0,0,0,0h0s0,0,0,0h0s0,0,.01-.01h0s0,0,0,0h0s0,0,0,0h0s0,0,0,0h0l-7.95-7.95h0ZM932.48,846.43c-.14.16-.28.33-.42.49l8.29,7.59c.1-.11.2-.22.3-.33,0,0,0,0,0,0,0,0,.01-.02.02-.02,0,0,0,0,0,0,0,0,.01-.01.02-.02,0,0,0,0,0,0,0,0,.01-.01.02-.02,0,0,0,0,.01-.01h.01s0-.02.01-.03c0,0,0,0,0-.01,0,0,.01-.01.02-.02,0,0,0,0,0,0,0,0,.01-.01.02-.02,0,0,0,0,0,0,0,0,.01-.01.02-.02,0,0,0,0,0,0,0,0,.01-.01.02-.02,0,0,0,0,0,0,0,0,.01-.01.02-.02,0,0,0,0,0,0,0,0,.01-.01.02-.02,0,0,0,0,0,0,0,0,.01-.01.02-.02,0,0,0,0,0,0,0,0,.01-.02.02-.02,0,0,0,0,0,0,0,0,.01-.02.02-.02,0,0,0,0,0,0,0,0,.01-.01.02-.02,0,0,0,0,0,0,0,0,.01-.02.02-.02,0,0,0,0,0,0,0,0,.01-.01.02-.02h0s.01-.02.02-.03c0,0,0,0,0,0,0,0,.01-.01.02-.02,0,0,0,0,0,0,0,0,.01-.01.02-.02,0,0,0,0,0,0,0,0,0-.01.01-.02,0,0,0,0,0-.01,0,0,0-.01.01-.02,0,0,0,0,0,0l-8.68-7.14h0ZM933.24,845.4c-.12.18-.24.35-.36.52l9.06,6.66s.07-.09.1-.14c0,0,0,0,0,0,0,0,.01-.02.02-.03,0,0,0,0,0,0,0,0,.01-.02.02-.03,0,0,0,0,0,0,0,0,.01-.02.02-.02h0s.01-.02.02-.03c0,0,0,0,0,0,0,0,0-.01.02-.02,0,0,0,0,0,0,0,0,0-.01.01-.02,0,0,0,0,0,0,0,0,.01-.01.01-.02,0,0,0,0,0,0,0,0,.01-.01.01-.02,0,0,0,0,0,0,0,0,0-.01.01-.02,0,0,0,0,0,0,0,0,.01-.01.01-.02,0,0,0,0,0,0,0,0,.01-.01.02-.02,0,0,0,0,0,0,0,0,0-.01.01-.02,0,0,0,0,0,0,0,0,0-.01.01-.02h0s.01-.02.02-.03c0,0,0,0,0,0,0,0,.01-.02.02-.03,0,0,0,0,0,0,0,0,.01-.02.02-.03,0,0,0,0,0,0,.09-.14.19-.27.28-.41l-9.41-6.15h0ZM933.88,844.3c-.1.19-.2.38-.3.56l9.73,5.63s0,0,0,0c0,0,0,0,0-.01,0,0,0-.01.01-.02,0,0,0,0,0,0,0,0,0-.02.01-.02,0,0,0,0,0,0,0,0,0-.02.01-.03,0,0,0,0,0,0,0,0,.01-.02.02-.03,0,0,0,0,0,0,.02-.03.03-.06.05-.09,0,0,0,0,0,0,0-.01.01-.02.02-.03,0,0,0,0,0,0,0-.01.01-.02.02-.03,0,0,0,0,0,0,.02-.04.05-.08.07-.12h0s.01-.02.02-.03h0s.01-.02.02-.03c0,0,0,0,0,0,0,0,.01-.02.02-.03,0,0,0,0,0,0,.01-.02.02-.04.03-.06,0,0,0,0,0,0,0,0,0-.02.01-.03h0s0-.02.01-.03h0s0-.02.01-.03c0,0,0,0,0,0,0,0,0-.02.01-.03,0,0,0,0,0,0,0,0,0-.01.01-.02,0,0,0,0,0-.01,0,0,0-.01.01-.02,0,0,0,0,0,0,0,0,0-.02.01-.02h0s0-.03.01-.03h0s0-.02.01-.03c0,0,0,0,0-.01,0,0,0-.01,0-.02,0,0,0,0,0-.01,0,0,0-.01,0-.02s0-.01,0-.02c0,0,0-.01,0-.02,0,0,0,0,0-.01,0,0,0-.01.01-.02,0,0,0,0,0-.01,0,0,0-.01.01-.02,0,0,0,0,0-.01,0,0,0-.01.01-.02h0s0-.02.01-.03c0,0,0,0,0,0,0,0,0,0,0,0l-10.02-5.1h0ZM934.39,843.13c-.08.2-.16.4-.24.59l10.28,4.55c.09-.21.19-.43.27-.65h0s0-.02.01-.04c0,0,0,0,0,0,0-.01,0-.02.01-.04h0s.01-.04.02-.05c0,0,0,0,0-.01,0,0,0-.01,0-.02,0,0,0,0,0-.01,0,0,0-.01,0-.02,0,0,0-.01,0-.02,0,0,0,0,0,0,0,0,0-.02,0-.02,0,0,0,0,0,0,0,0,0-.02.01-.03,0,0,0,0,0,0,0-.01,0-.02.01-.03,0,0,0,0,0,0,.03-.06.05-.13.07-.19l-10.51-3.98h0ZM934.79,841.9c-.05.21-.11.42-.18.62l10.71,3.41c.07-.21.13-.42.19-.62,0,0,0,0,0,0,0-.01,0-.02,0-.03h0s.02-.07.03-.1c0,0,0,0,0,0,0-.01,0-.02,0-.03,0,0,0,0,0,0,0,0,0-.02,0-.03,0,0,0,0,0,0,0-.01,0-.02,0-.03,0,0,0,0,0,0v-.03s0,0,0,0c0,0,0-.02,0-.03,0,0,0,0,0,0,0,0,0-.02,0-.03,0,0,0,0,0,0,0,0,0-.02,0-.03,0,0,0,0,0,0,0,0,0-.02,0-.02,0,0,0,0,0,0,0,0,0-.01,0-.02,0,0,0,0,0,0v-.02s0,0,0-.01c0,0,0-.02,0-.02,0,0,0,0,0-.01,0,0,0-.02,0-.02h0s0-.02,0-.03c0,0,0,0,0,0l-10.88-2.83h0ZM935.05,840.63c-.03.21-.07.43-.11.64l11.01,2.25c.06-.28.11-.56.15-.84,0,0,0,0,0,0,0,0,0-.02,0-.03,0,0,0,0,0,0,0,0,0-.02,0-.03,0,0,0,0,0-.01,0,0,0-.01,0-.02v-.02s0,0,0-.01c0,0,0-.02,0-.03,0,0,0,0,0,0,.01-.08.02-.15.04-.23l-11.12-1.66h0ZM935.17,839.33c0,.22-.02.43-.04.65l11.19,1.06c.02-.2.04-.4.05-.6,0,0,0,0,0,0,0,0,0-.02,0-.03,0,0,0-.01,0-.02,0,0,0,0,0-.01v-.03s0,0,0,0c0-.01,0-.02,0-.03,0,0,0,0,0,0,.01-.17.02-.34.03-.52l-11.23-.47h0ZM946.37,837.3l-11.22.72c.01.22.02.43.02.65l11.24-.13c0-.33-.01-.66-.03-.99h0s0-.02,0-.03c0,0,0,0,0,0,0-.01,0-.02,0-.03,0,0,0,0,0,0,0,0,0-.01,0-.02,0,0,0-.02,0-.02,0,0,0,0,0,0,0-.04,0-.09,0-.13h0ZM946.08,834.82l-11.08,1.91c.04.21.07.43.09.64l11.16-1.32s0-.02,0-.02c0,0,0,0,0,0,0,0,0-.02,0-.03,0,0,0,0,0,0,0-.01,0-.02,0-.03,0,0,0,0,0,0,0-.01,0-.02,0-.03,0,0,0,0,0,0,0-.01,0-.02,0-.03,0,0,0,0,0,0,0-.01,0-.02,0-.03,0,0,0,0,0,0,0-.01,0-.02,0-.03,0,0,0,0,0,0,0-.01,0-.02,0-.03,0,0,0,0,0,0,0-.01,0-.02,0-.03,0,0,0,0,0,0,0-.01,0-.02,0-.03,0,0,0,0,0,0,0-.01,0-.02,0-.03,0,0,0,0,0,0,0-.02,0-.05,0-.07h0s0-.02,0-.03c0,0,0,0,0,0,0-.01,0-.02,0-.03,0,0,0,0,0,0-.03-.24-.07-.48-.11-.72h0ZM945.52,832.39l-10.81,3.08c.06.21.11.42.16.63l10.96-2.5v-.06s-.01,0-.01,0c0,0,0-.02,0-.02,0,0,0-.01,0-.02,0,0,0-.01,0-.02,0,0,0-.01,0-.02,0,0,0,0,0,0,0,0,0-.02,0-.03,0,0,0,0,0,0,0-.01,0-.02,0-.03,0,0,0,0,0,0,0-.01,0-.02,0-.03h0c-.08-.32-.16-.64-.25-.96h0ZM944.71,830.03l-10.42,4.23c.08.2.16.4.23.6l10.63-3.66c-.14-.39-.28-.78-.44-1.17h0ZM943.65,827.77l-9.9,5.33c.1.19.2.38.29.57l10.17-4.78s0-.01,0-.02c0,0,0,0,0,0,0,0,0-.01,0-.02,0,0,0-.01,0-.02h0c-.15-.32-.3-.62-.46-.93,0,0,0,0,0,0,0,0,0-.01,0-.02,0,0,0-.01-.01-.02,0,0,0,0,0,0,0,0,0-.02-.01-.03,0,0,0,0,0,0,0-.02-.02-.03-.02-.05h0ZM942.35,825.64l-9.26,6.37c.12.17.24.35.35.53l9.59-5.86c-.09-.15-.19-.31-.29-.46,0,0,0,0,0,0l-.02-.02s0,0,0,0c0,0,0-.01-.01-.02,0,0,0-.01,0-.01,0,0,0,0,0-.01,0,0,0-.01-.01-.02,0,0,0,0,0-.01v-.02s-.02,0-.02,0c0,0,0-.01-.01-.02,0,0,0,0,0,0,0,0,0-.01-.01-.02,0,0,0,0,0,0,0,0,0-.01-.01-.02,0,0,0,0,0,0,0,0-.01-.02-.02-.02,0,0,0,0,0,0,0,0-.01-.02-.02-.02,0,0,0,0,0,0,0,0-.01-.02-.02-.02,0,0,0,0,0,0,0,0-.01-.02-.02-.02,0,0,0,0,0,0,0,0,0-.01-.01-.02h0s0-.02-.01-.03c0,0,0,0,0-.01,0,0,0-.01-.01-.02,0,0,0,0,0-.01,0,0,0-.01-.01-.02,0,0,0,0,0-.01,0,0,0-.01-.01-.02h0s0-.02,0-.02c0,0-.01-.02-.02-.03h0s-.02-.03-.03-.05h0ZM940.82,823.66l-8.52,7.34c.14.16.28.33.41.5l8.9-6.86c-.12-.15-.24-.31-.36-.46,0,0,0,0,0,0,0,0-.01-.02-.02-.02,0,0,0,0-.01-.01,0,0,0-.01-.01-.02,0,0,0-.01-.01-.02,0,0,0,0,0,0,0,0-.01-.01-.02-.02,0,0,0,0,0,0,0,0-.01-.02-.02-.03,0,0,0,0,0,0-.1-.13-.21-.25-.32-.38h0ZM939.1,821.85l-7.95,7.95.54.54c.06.06.12.12.17.18l8.11-7.78s-.03-.03-.05-.05c0,0,0,0,0,0,0,0-.01-.01-.02-.02,0,0,0,0,0,0,0,0,0,0-.01-.01h-.01s0-.02,0-.02c0,0-.02-.02-.03-.03,0,0,0,0,0,0,0,0,0-.01-.01-.02,0,0,0,0,0,0,0,0,0,0-.01-.01,0,0,0,0-.01-.01,0,0,0,0-.01-.01,0,0-.01-.01-.02-.02l-.02-.02s-.01-.01-.02-.02c0,0,0,0,0,0,0,0-.01-.01-.02-.02h0s-.01-.02-.02-.03c0,0,0,0,0,0,0,0-.02-.02-.02-.02h0s0,0-.02-.02h0s-.04-.04-.06-.06h0s-.01-.01-.02-.02h0s-.01-.01-.02-.02h0s-.01-.01-.02-.02h0s0,0,0-.01h0s0,0,0,0h-.01s0-.02,0-.02h0s0,0-.01-.01h0s0,0,0-.01h0s0,0,0,0l-.02-.02h0s-.31-.31-.31-.31h0ZM937.34,820.08l-7.95,7.95.88.88,7.95-7.95-.88-.88h0ZM935.57,818.32l-7.95,7.95.88.88,7.95-7.95-.88-.88h0ZM933.8,816.55l-7.95,7.95.88.88,7.95-7.95s-.28-.28-.52-.52h0s0,0,0,0l-.36-.36h0ZM932.04,814.78l-7.95,7.95.88.88,7.95-7.95-.47-.47s0,0,0,0h0c-.21-.21-.4-.4-.4-.4h0ZM930.27,813.02l-7.95,7.95.88.88,7.95-7.95-.88-.88h0ZM928.5,811.25l-7.95,7.95.88.88,7.95-7.95-.73-.73c-.09-.09-.15-.15-.15-.15h0ZM926.74,809.49l-7.95,7.95.88.88,7.95-7.95-.88-.88h0ZM924.97,807.72l-7.95,7.95.88.88,7.95-7.95-.88-.88h0ZM923.2,805.95l-7.95,7.95.88.88,7.95-7.95-.88-.88h0ZM921.44,804.19l-7.95,7.95.88.88,7.95-7.95s-.32-.32-.57-.57h0s0,0,0,0l-.31-.31h0ZM919.67,802.42l-7.95,7.95.88.88,7.95-7.95-.43-.43s0,0,0,0h0c-.22-.23-.45-.45-.45-.45h0ZM917.91,800.65l-7.95,7.95.88.88,7.95-7.95s-.16-.16-.35-.35l-.53-.53h0ZM916.14,798.89l-7.95,7.95.88.88,7.95-7.95-.88-.88h0ZM914.37,797.12l-7.95,7.95.88.88,7.95-7.95-.88-.88h0ZM912.61,795.35l-7.95,7.95.88.88,7.95-7.95h0s-.01-.01-.04-.04h0s-.03-.03-.04-.04h0s-.02-.02-.03-.03h0s0-.01-.01-.02h0s0,0,0,0h0s0,0,0,0h0s0,0,0,0h0s0-.01,0-.01h0s0,0,0,0h0s0,0,0,0h0s0,0,0,0h0s0,0,0-.01h0s0,0,0,0h0s0,0,0,0h0s0,0,0,0h0s0,0,0,0h-.01s0-.01,0-.01h0s0,0,0,0h0s0,0,0,0c0,0,0,0,0,0h0s0,0,0,0h0s0,0,0,0h-.01s0-.01,0-.01h-.01s0-.01,0-.01l-.62-.62h0ZM910.84,793.59l-7.95,7.95.88.88,7.95-7.95-.11-.11c-.24-.24-.77-.77-.77-.77h0ZM909.07,791.82l-7.95,7.95.88.88,7.95-7.95-.88-.88h0ZM907.31,790.06l-7.95,7.95.88.88,7.95-7.95-.37-.37h0s0,0,0,0c-.24-.24-.51-.51-.51-.51h0ZM905.54,788.29l-7.95,7.95.88.88,7.95-7.95s-.19-.19-.39-.39h0s0,0,0,0l-.49-.49h0ZM903.78,786.52l-7.95,7.95.88.88,7.95-7.95-.88-.88h0ZM902.01,784.76l-7.95,7.95.88.88,7.95-7.95s-.07-.07-.17-.17l-.72-.72h0ZM900.24,782.99l-7.95,7.95.88.88,7.95-7.95s-.5-.5-.74-.74h0s-.02-.02-.03-.03h0s-.02-.02-.03-.03h0s-.02-.02-.02-.02h0s0,0,0-.01h0s0,0,0,0h0s0,0,0,0h0s0,0,0,0h0s0,0,0,0h0s0,0,0,0h0s0,0,0,0h0s0,0,0,0h0s0,0,0,0h0s0,0,0,0h0s0,0,0,0h0s0,0,0,0h0s0,0,0,0h0s0,0,0,0h0ZM898.48,781.22l-7.95,7.95.88.88,7.95-7.95-.06-.06c-.2-.2-.82-.82-.82-.82h0ZM896.71,779.46l-7.95,7.95.88.88,7.95-7.95-.88-.88h0ZM894.94,777.69l-7.95,7.95.88.88,7.95-7.95-.88-.88h0ZM893.18,775.93l-7.95,7.95.88.88,7.95-7.95-.88-.88h0ZM891.41,774.16l-7.95,7.95.88.88,7.95-7.95-.88-.88h0ZM889.64,772.39l-7.95,7.95.88.88,7.95-7.95-.7-.7s0,0,0,0h0s0,0,0,0h0c-.1-.1-.17-.17-.17-.17h0ZM887.88,770.63l-7.95,7.95.88.88,7.95-7.95-.88-.88h0ZM886.11,768.86l-7.95,7.95.88.88,7.95-7.95-.88-.88h0ZM884.35,767.09l-7.95,7.95.88.88,7.95-7.95-.88-.88h0ZM882.58,765.33l-7.95,7.95.88.88,7.95-7.95s-.34-.34-.59-.59l-.29-.29h0ZM880.81,763.56l-7.95,7.95.88.88,7.95-7.95-.88-.88h0ZM879.05,761.79l-7.95,7.95.88.88,7.95-7.95-.88-.88h0ZM877.28,760.03l-7.95,7.95.88.88,7.95-7.95-.65-.65s0,0,0,0h0c-.13-.13-.22-.22-.22-.22h0ZM875.51,758.26l-7.95,7.95.88.88,7.95-7.95-.88-.88h0ZM873.75,756.5l-7.95,7.95.88.88,7.95-7.95s-.17-.17-.36-.36h0s-.03-.03-.04-.04h0s0,0,0-.01h0s0,0,0,0h0s0,0,0,0h0s0,0,0,0l-.03-.03s0,0,0,0h0s0,0,0,0h0s0,0,0,0h0s0,0,0,0h0s0,0,0,0h0s0,0,0,0h0s0-.01,0-.01h0s0,0,0,0h-.01s0-.01,0-.01h0s0,0,0-.01h0s0,0,0-.01h0s0,0,0,0l-.33-.33h0ZM871.98,754.73l-7.95,7.95.88.88,7.95-7.95-.88-.88h0ZM870.21,752.96l-7.95,7.95.88.88,7.95-7.95s-.38-.38-.64-.64l-.25-.25h0ZM868.45,751.2l-7.95,7.95.88.88,7.95-7.95-.34-.34s0,0,0,0h0s0,0,0,0h0c-.24-.25-.52-.52-.52-.52h0ZM866.68,749.43l-7.95,7.95.88.88,7.95-7.95s-.2-.2-.41-.41h0s0,0,0,0l-.47-.47h0ZM864.92,747.66l-7.95,7.95.88.88,7.95-7.95-.61-.61c-.15-.15-.27-.27-.27-.27h0ZM863.15,745.9l-7.95,7.95.88.88,7.95-7.95-.88-.88h0ZM861.38,744.13l-7.95,7.95.88.88,7.95-7.95-.88-.88h0ZM859.54,742.45l-7.1,8.71c.16.13.33.28.49.42l7.56-8.32c-.1-.09-.2-.18-.3-.27,0,0,0,0,0,0,0,0,0,0-.01-.01,0,0-.01,0-.02-.02,0,0,0,0,0,0,0,0-.01-.01-.02-.02,0,0,0,0,0,0,0,0-.02-.01-.02-.02,0,0,0,0,0,0-.18-.16-.36-.31-.55-.46h0ZM857.52,740.98l-6.12,9.43c.18.12.35.24.53.36l6.62-9.08s0,0,0,0h0s-.01-.02-.02-.02c0,0,0,0-.01-.01,0,0,0,0,0,0-.32-.23-.65-.46-.98-.67h0ZM855.35,739.74l-5.06,10.04c.19.1.38.2.56.3l5.6-9.75s-.07-.04-.1-.06c0,0,0,0,0,0,0,0-.02,0-.02-.01,0,0-.01,0-.02-.01,0,0,0,0-.01,0,0,0-.01,0-.02-.01,0,0,0,0,0,0,0,0-.02-.01-.03-.02,0,0,0,0,0,0,0,0-.02-.01-.03-.02,0,0,0,0,0,0-.18-.1-.35-.19-.53-.29,0,0,0,0,0,0,0,0-.02,0-.03-.01,0,0,0,0,0,0,0,0-.02,0-.03-.01,0,0,0,0,0,0,0,0-.02,0-.02-.01,0,0,0,0,0,0,0,0-.01,0-.02,0,0,0-.01,0-.02,0,0,0,0,0-.01,0,0,0-.02,0-.02-.01,0,0,0,0,0,0-.05-.02-.09-.05-.14-.07h0ZM853.06,738.74l-3.94,10.53c.2.07.4.16.59.24l4.51-10.3c-.32-.14-.63-.27-.96-.39,0,0,0,0,0,0-.01,0-.02,0-.03-.01,0,0,0,0,0,0-.01,0-.02,0-.03-.01,0,0,0,0,0,0-.04-.02-.08-.03-.13-.05h0ZM850.68,737.99l-2.79,10.89c.21.05.42.11.62.18l3.37-10.72c-.22-.07-.43-.13-.65-.2,0,0,0,0,0,0,0,0-.02,0-.03,0,0,0,0,0,0,0,0,0-.02,0-.03,0,0,0,0,0-.01,0,0,0-.01,0-.02,0,0,0-.01,0-.02,0,0,0,0,0-.01,0,0,0-.01,0-.02,0,0,0,0,0-.01,0,0,0-.01,0-.02,0,0,0-.01,0-.02,0,0,0-.01,0-.02,0h-.02s-.01,0-.02,0c0,0,0,0-.01,0,0,0-.01,0-.02,0,0,0,0,0-.01,0,0,0-.01,0-.02,0,0,0,0,0-.01,0,0,0-.01,0-.02,0,0,0-.01,0-.02,0h-.02s-.01,0-.02,0-.01,0-.02,0c0,0,0,0-.01,0,0,0-.01,0-.02,0,0,0,0,0-.01,0,0,0-.01,0-.02,0,0,0-.01,0-.02,0,0,0,0,0-.01,0h-.02s0,0,0,0h0ZM848.23,737.5l-1.62,11.12c.21.03.43.07.64.11l2.21-11.02s-.02,0-.03,0c0,0,0,0,0,0,0,0-.02,0-.03,0,0,0,0,0,0,0,0,0-.02,0-.03,0,0,0,0,0-.01,0,0,0-.01,0-.02,0,0,0-.02,0-.02,0,0,0,0,0,0,0-.2-.04-.41-.08-.61-.11,0,0,0,0,0,0-.01,0-.02,0-.03,0,0,0,0,0,0,0,0,0-.02,0-.03,0,0,0,0,0-.01,0,0,0,0,0-.01,0,0,0-.02,0-.02,0,0,0,0,0-.01,0,0,0-.02,0-.03,0h0s-.02,0-.03,0c0,0,0,0,0,0-.01,0-.02,0-.03,0,0,0,0,0,0,0-.01,0-.02,0-.03,0,0,0,0,0,0,0-.07-.01-.13-.02-.2-.03h0ZM845.75,737.27l-.43,11.23c.22,0,.43.02.65.04l1.02-11.19c-.41-.04-.83-.06-1.25-.08h0Z"/>
      </g>
    </g>
  </g>
</svg>