<?xml version="1.0" encoding="UTF-8"?>
<svg id="Layer_2" data-name="Layer 2" xmlns="http://www.w3.org/2000/svg" viewBox="0 0 1634.67 1634.66">
  <defs>
    <style>
      .cls-1 {
        fill: #fff;
      }

      .cls-1, .cls-2 {
        stroke-width: 0px;
      }

      .cls-2 {
        fill: #1f1a55;
      }
    </style>
  </defs>
  <g id="Layer_1-2" data-name="Layer 1">
    <g>
      <g>
        <g>
          <g id="_Radial_Repeat_" data-name="&amp;lt;Radial Repeat&amp;gt;">
            <path class="cls-2" d="M226.24,737.98c45,0,81.48,36.48,81.48,81.48,0,45-36.48,81.48-81.48,81.48-45,0-81.48-36.48-81.48-81.48,0-45,36.48-81.48,81.48-81.48Z"/>
          </g>
          <g id="_Radial_Repeat_-2" data-name="&amp;lt;Radial Repeat&amp;gt;">
            <path class="cls-2" d="M898.25,228.93c0,45-36.48,81.48-81.48,81.48-45,0-81.48-36.48-81.48-81.48s36.48-81.48,81.48-81.48c45,0,81.48,36.48,81.48,81.48Z"/>
          </g>
          <g id="_Radial_Repeat_-3" data-name="&amp;lt;Radial Repeat&amp;gt;">
            <circle class="cls-2" cx="1407.3" cy="819.46" r="81.48"/>
          </g>
          <g id="_Radial_Repeat_-4" data-name="&amp;lt;Radial Repeat&amp;gt;">
            <path class="cls-2" d="M735.29,1409.99c0-45,36.48-81.48,81.48-81.48,45,0,81.48,36.48,81.48,81.48,0,45-36.48,81.48-81.48,81.48-45,0-81.48-36.48-81.48-81.48Z"/>
          </g>
        </g>
        <g>
          <g id="_Radial_Repeat_-5" data-name="&amp;lt;Radial Repeat&amp;gt;">
            <circle class="cls-2" cx="164.79" cy="1089.17" r="56.37"/>
          </g>
          <g id="_Radial_Repeat_-6" data-name="&amp;lt;Radial Repeat&amp;gt;">
            <circle class="cls-2" cx="547.06" cy="167.48" r="56.37"/>
          </g>
          <g id="_Radial_Repeat_-7" data-name="&amp;lt;Radial Repeat&amp;gt;">
            <circle class="cls-2" cx="1468.75" cy="549.75" r="56.37"/>
          </g>
          <g id="_Radial_Repeat_-8" data-name="&amp;lt;Radial Repeat&amp;gt;">
            <circle class="cls-2" cx="1086.48" cy="1471.44" r="56.37"/>
          </g>
        </g>
        <g>
          <g id="_Radial_Repeat_-9" data-name="&amp;lt;Radial Repeat&amp;gt;">
            <circle class="cls-2" cx="546.46" cy="1471.19" r="68.52"/>
          </g>
          <g id="_Radial_Repeat_-10" data-name="&amp;lt;Radial Repeat&amp;gt;">
            <circle class="cls-2" cx="165.04" cy="549.15" r="68.52"/>
          </g>
          <g id="_Radial_Repeat_-11" data-name="&amp;lt;Radial Repeat&amp;gt;">
            <circle class="cls-2" cx="1087.08" cy="167.72" r="68.52"/>
          </g>
          <g id="_Radial_Repeat_-12" data-name="&amp;lt;Radial Repeat&amp;gt;">
            <circle class="cls-2" cx="1468.51" cy="1089.77" r="68.52"/>
          </g>
        </g>
        <g>
          <g id="_Radial_Repeat_-13" data-name="&amp;lt;Radial Repeat&amp;gt;">
            <circle class="cls-2" cx="672.58" cy="1167.11" r="64.53"/>
          </g>
          <g id="_Radial_Repeat_-14" data-name="&amp;lt;Radial Repeat&amp;gt;">
            <circle class="cls-2" cx="469.12" cy="675.27" r="64.53"/>
          </g>
          <g id="_Radial_Repeat_-15" data-name="&amp;lt;Radial Repeat&amp;gt;">
            <circle class="cls-2" cx="960.96" cy="471.81" r="64.53"/>
          </g>
          <g id="_Radial_Repeat_-16" data-name="&amp;lt;Radial Repeat&amp;gt;">
            <circle class="cls-2" cx="1164.42" cy="963.65" r="64.53"/>
          </g>
        </g>
        <g>
          <g id="_Radial_Repeat_-17" data-name="&amp;lt;Radial Repeat&amp;gt;">
            <circle class="cls-2" cx="960.64" cy="1167.24" r="64.53"/>
          </g>
          <g id="_Radial_Repeat_-18" data-name="&amp;lt;Radial Repeat&amp;gt;">
            <circle class="cls-2" cx="468.99" cy="963.33" r="64.53"/>
          </g>
          <g id="_Radial_Repeat_-19" data-name="&amp;lt;Radial Repeat&amp;gt;">
            <circle class="cls-2" cx="672.9" cy="471.68" r="64.53"/>
          </g>
          <g id="_Radial_Repeat_-20" data-name="&amp;lt;Radial Repeat&amp;gt;">
            <circle class="cls-2" cx="1164.55" cy="675.59" r="64.53"/>
          </g>
        </g>
        <g>
          <g id="_Radial_Repeat_-21" data-name="&amp;lt;Radial Repeat&amp;gt;">
            <circle class="cls-2" cx="399.2" cy="1237.03" r="95.69"/>
          </g>
          <g id="_Radial_Repeat_-22" data-name="&amp;lt;Radial Repeat&amp;gt;">
            <circle class="cls-2" cx="399.2" cy="401.89" r="95.69"/>
          </g>
          <g id="_Radial_Repeat_-23" data-name="&amp;lt;Radial Repeat&amp;gt;">
            <circle class="cls-2" cx="1234.34" cy="401.89" r="95.69"/>
          </g>
          <g id="_Radial_Repeat_-24" data-name="&amp;lt;Radial Repeat&amp;gt;">
            <circle class="cls-2" cx="1234.34" cy="1237.03" r="95.69"/>
          </g>
        </g>
        <path class="cls-2" d="M1161.15,686.6c-1,0-2.02-.15-3.04-.44-5.73-1.67-9-7.66-7.33-13.39l73.47-251.19-260.06,57.09c-5.83,1.29-11.58-2.4-12.86-8.22-1.28-5.82,2.4-11.58,8.23-12.86l277.85-60.99c3.74-.82,7.61.4,10.21,3.18,2.6,2.78,3.54,6.73,2.47,10.4l-78.58,268.67c-1.38,4.7-5.69,7.76-10.36,7.76Z"/>
        <path class="cls-2" d="M473.52,686.6c-4.81,0-9.2-3.23-10.45-8.1l-69.09-268.67c-.94-3.65.08-7.53,2.7-10.21,2.62-2.72,6.47-3.82,10.12-3.04l271.16,60.99c5.82,1.33,9.47,7.09,8.17,12.91-1.31,5.82-7.06,9.43-12.9,8.18l-253.94-57.13,64.69,251.57c1.49,5.78-1.99,11.66-7.77,13.16-.9.23-1.81.34-2.69.34Z"/>
        <path class="cls-2" d="M404.44,1250.71c-2.82,0-5.57-1.1-7.62-3.14-2.69-2.68-3.77-6.58-2.86-10.27l69.09-277.85c1.43-5.78,7.31-9.32,13.08-7.87,5.79,1.43,9.31,7.3,7.87,13.1l-64.73,260.32,248.06-62.91c5.79-1.52,11.66,2.02,13.12,7.8,1.47,5.78-2.03,11.66-7.81,13.12l-265.55,67.36c-.88.23-1.77.34-2.66.34Z"/>
        <path class="cls-2" d="M1229.1,1250.71c-1,0-2.01-.15-3.01-.42l-261.61-75.77c-5.73-1.67-9.03-7.66-7.37-13.37,1.66-5.74,7.63-9.11,13.38-7.38l243.69,70.58-63.53-259.71c-1.42-5.8,2.13-11.64,7.92-13.05,5.82-1.39,11.64,2.13,13.05,7.91l67.96,277.85c.92,3.75-.23,7.7-3.02,10.38-2.04,1.94-4.72,2.99-7.47,2.99Z"/>
        <path class="cls-2" d="M816.21,1427.54h0c-3.8,0-7.31-2-9.26-5.25l-145.63-243.2-194.7-208.61-231.73-143.97c-3.18-1.98-5.12-5.48-5.1-9.24.02-3.73,1.98-7.21,5.19-9.17l231.77-140.81,200.25-205.81,139.97-231.89c1.93-3.21,5.4-5.19,9.16-5.21,3.36.3,7.25,1.88,9.24,5.08l145.08,232,197.42,205.74,245.63,140.77c3.34,1.92,5.41,5.46,5.43,9.32.02,3.84-2.01,7.4-5.34,9.36l-245.68,143.97-191.77,200.11-150.65,251.55c-1.95,3.25-5.47,5.25-9.26,5.25ZM261.21,817.43l218.02,135.45c.81.51,1.54,1.12,2.19,1.81l196.46,210.49c.52.55.98,1.16,1.37,1.81l136.95,228.71,142.02-237.12c.42-.7.91-1.35,1.47-1.92l193.65-202.07c.69-.72,1.48-1.35,2.34-1.86l230.9-135.31-230.81-132.27c-.9-.51-1.71-1.14-2.43-1.9l-199.27-207.68c-.51-.53-.97-1.12-1.36-1.75l-136.35-218.04-131.53,217.91c-.42.7-.93,1.35-1.5,1.94l-202.07,207.68c-.64.65-1.35,1.22-2.14,1.71l-217.92,132.4ZM473.53,675.8h.22-.22Z"/>
        <g>
          <g id="_Radial_Repeat_-25" data-name="&amp;lt;Radial Repeat&amp;gt;">
            <circle class="cls-2" cx="39.23" cy="717.31" r="39.23"/>
          </g>
          <g id="_Radial_Repeat_-26" data-name="&amp;lt;Radial Repeat&amp;gt;">
            <circle class="cls-2" cx="337.86" cy="196.42" r="39.23"/>
          </g>
          <g id="_Radial_Repeat_-27" data-name="&amp;lt;Radial Repeat&amp;gt;">
            <circle class="cls-2" cx="917.36" cy="39.23" r="39.23"/>
          </g>
          <g id="_Radial_Repeat_-28" data-name="&amp;lt;Radial Repeat&amp;gt;">
            <circle class="cls-2" cx="1438.26" cy="337.84" r="39.23"/>
          </g>
          <g id="_Radial_Repeat_-29" data-name="&amp;lt;Radial Repeat&amp;gt;">
            <circle class="cls-2" cx="1595.44" cy="917.34" r="39.23"/>
          </g>
          <g id="_Radial_Repeat_-30" data-name="&amp;lt;Radial Repeat&amp;gt;">
            <circle class="cls-2" cx="1296.82" cy="1438.25" r="39.23"/>
          </g>
          <g id="_Radial_Repeat_-31" data-name="&amp;lt;Radial Repeat&amp;gt;">
            <circle class="cls-2" cx="717.32" cy="1595.43" r="39.23"/>
          </g>
          <g id="_Radial_Repeat_-32" data-name="&amp;lt;Radial Repeat&amp;gt;">
            <circle class="cls-2" cx="196.41" cy="1296.81" r="39.23"/>
          </g>
        </g>
        <path class="cls-2" d="M816.2,245.97c-4.81,0-9.19-3.23-10.45-8.1-1.49-5.78,1.99-11.66,7.76-13.16l259.48-66.85-164.73-107.6c-4.99-3.27-6.4-9.95-3.14-14.95,3.26-4.98,9.95-6.39,14.95-3.14l185.23,120.99c3.58,2.34,5.45,6.58,4.75,10.8-.7,4.22-3.82,7.63-7.96,8.71l-283.19,72.97c-.9.23-1.81.34-2.7.34Z"/>
        <path class="cls-2" d="M1408.13,828.13c-.84,0-1.69-.11-2.54-.3-5.79-1.41-9.36-7.23-7.97-13.03l64.06-265.76-31.96-210.55c-.9-5.9,3.16-11.41,9.06-12.29,5.87-.95,11.4,3.16,12.29,9.05l32.28,212.64c.21,1.39.15,2.8-.18,4.15l-64.55,267.83c-1.19,4.96-5.61,8.27-10.49,8.27Z"/>
        <path class="cls-2" d="M675.61,478.91c-4.18,0-8.16-2.45-9.92-6.52l-128.52-298.07-197.4,34.99c-5.84.97-11.47-2.87-12.52-8.75-1.04-5.86,2.88-11.47,8.75-12.51l205.82-36.48c4.86-.78,9.82,1.75,11.8,6.35l131.91,305.92c2.36,5.48-.16,11.83-5.64,14.19-1.39.61-2.84.89-4.27.89Z"/>
        <path class="cls-2" d="M719.56,1605c-2.11,0-4.25-.61-6.12-1.92l-175.88-121.35c-3.56-2.45-5.31-6.79-4.45-11.03.86-4.24,4.17-7.55,8.4-8.41l272.51-56.12c5.81-1.39,11.55,2.55,12.75,8.39,1.2,5.84-2.56,11.54-8.4,12.74l-247.74,51.04,155.06,106.98c4.91,3.37,6.14,10.1,2.76,15.02-2.1,3.04-5.47,4.66-8.9,4.66Z"/>
        <path class="cls-2" d="M1099.39,1483.66c-3.53,0-6.89-1.73-8.92-4.7-2.31-3.37-2.51-7.78-.52-11.35l129.71-232.95c2.91-5.21,9.49-7.06,14.68-4.18,5.21,2.89,7.09,9.47,4.18,14.68l-119.18,214.05,182.52-25.12c5.83-.78,11.35,3.31,12.17,9.22.81,5.9-3.32,11.37-9.23,12.17l-203.95,28.07c-.49.06-.99.11-1.47.11Z"/>
        <path class="cls-2" d="M1472.67,1104.77c-1.41,0-2.84-.27-4.21-.86l-311.53-131.91c-5.49-2.32-8.06-8.65-5.73-14.15,2.33-5.48,8.65-8.06,14.16-5.72l303.48,128.5,121.29-173.67c3.41-4.91,10.14-6.07,15.04-2.68,4.89,3.42,6.08,10.14,2.67,15.04l-126.3,180.84c-2.07,2.97-5.41,4.62-8.86,4.62Z"/>
      </g>
      <rect class="cls-2" x="664.69" y="664.68" width="305.3" height="305.3" rx="40.57" ry="40.57" transform="translate(1973.22 817.33) rotate(135)"/>
      <rect class="cls-2" x="741.36" y="741.36" width="151.95" height="151.95" rx="22.44" ry="22.44" transform="translate(1973.22 817.33) rotate(135)"/>
      <g>
        <path class="cls-1" d="M817.33,618.31h-.07s-.04,0-.05,0h-.01s-.03,0-.05,0h-.01s-.03,0-.05,0c0,0-.01,0-.02,0-.02,0-.03,0-.05,0h-.02s-.03,0-.04,0c0,0-.01,0-.02,0-.01,0-.03,0-.04,0,0,0-.02,0-.03,0,0,0-.02,0-.02,0-.02,0-.03,0-.05,0,0,0,0,0-.01,0-.01,0-.02,0-.03,0,0,0,0,0,0,0-.02,0-.04,0-.07,0h0c-.5,0-1.01.03-1.51.05,0,0,0,0,0,0-.02,0-.04,0-.05,0,0,0-.02,0-.03,0,0,0-.01,0-.02,0-.02,0-.03,0-.05,0h0s-.07,0-.11,0l1.29,21.78c.38-.02.76-.03,1.14-.03v-21.82h0ZM812.5,618.59c-.8.1-1.6.21-2.4.36l3.85,21.48c.37-.07.75-.12,1.12-.17l-2.57-21.67h0ZM807.73,619.45c-.08.02-.16.04-.24.06,0,0-.01,0-.02,0-.01,0-.03,0-.04.01,0,0-.02,0-.03,0,0,0-.01,0-.02,0-.25.06-.51.13-.76.2,0,0,0,0,0,0-.02,0-.04.01-.06.02,0,0-.01,0-.02,0,0,0-.02,0-.03,0-.01,0-.02,0-.03,0,0,0-.02,0-.03,0-.01,0-.02,0-.03,0,0,0-.01,0-.02,0-.02,0-.03,0-.05.01h-.01c-.32.09-.64.19-.96.28l6.37,20.87c.36-.11.72-.21,1.08-.3l-5.11-21.21h0ZM803.09,620.86c-.13.05-.26.1-.39.15,0,0,0,0,0,0-.03.01-.07.03-.1.04,0,0,0,0-.01,0-.02,0-.03.01-.05.02,0,0-.01,0-.02,0,0,0-.02,0-.03.01,0,0-.01,0-.02,0-.02,0-.03.01-.05.02,0,0-.01,0-.02,0,0,0-.02,0-.03,0-.01,0-.03,0-.04.02,0,0-.02,0-.03,0,0,0-.02,0-.02,0-.01,0-.02,0-.04.01,0,0-.02,0-.03.01,0,0-.02,0-.02,0-.01,0-.03.01-.04.02,0,0-.02,0-.02,0,0,0-.02,0-.03.01,0,0-.02,0-.03.01-.01,0-.02,0-.03.01,0,0-.02,0-.02,0-.01,0-.02,0-.03.01,0,0-.02,0-.03.01,0,0-.02,0-.03.01,0,0-.02,0-.03.01-.01,0-.02,0-.03.01,0,0-.02,0-.03.01,0,0-.02,0-.02,0-.01,0-.03.01-.04.02,0,0-.01,0-.02,0-.03.01-.06.03-.09.04,0,0,0,0-.01,0-.02,0-.04.02-.06.03h0c-.26.11-.51.22-.77.33l8.82,19.96c.34-.15.68-.29,1.03-.42l-7.6-20.45h0ZM798.66,622.82c-.1.05-.21.11-.31.16,0,0,0,0-.01,0-.01,0-.03.01-.04.02,0,0-.02,0-.03.01,0,0,0,0-.02,0-.47.25-.94.51-1.41.78,0,0-.01,0-.02.01,0,0-.01,0-.02.01-.02,0-.03.02-.04.03,0,0,0,0,0,0-.07.04-.14.08-.21.12l11.16,18.75c.32-.19.64-.37.97-.54l-10.01-19.39h0ZM794.5,625.3c-.12.08-.25.17-.37.25,0,0,0,0,0,0,0,0-.02.01-.03.02,0,0-.01,0-.02.01-.01,0-.02.02-.04.02,0,0-.02.01-.03.02,0,0-.01,0-.02.01-.01,0-.03.02-.04.03,0,0,0,0-.01,0-.01.01-.03.02-.04.03,0,0,0,0,0,0-.02.01-.03.02-.05.03h0s-.03.02-.05.04c0,0,0,0,0,0-.43.3-.85.61-1.26.94l13.34,17.27c.29-.22.59-.44.9-.65l-12.27-18.04h0ZM790.66,628.26c-.07.06-.14.12-.21.19,0,0,0,0,0,0-.01.01-.03.02-.04.04,0,0,0,0-.01.01,0,0-.02.02-.03.02,0,0-.02.02-.03.03,0,0-.01.01-.02.02-.32.28-.63.57-.94.86,0,0,0,0-.01.01-.01.01-.02.02-.04.03,0,0-.01.01-.02.02,0,0-.01.01-.02.02-.01.01-.02.02-.03.03,0,0-.01.01-.02.02-.01.01-.02.02-.03.03,0,0,0,0-.01.01-.01,0-.02.02-.03.03h0s-.03.03-.04.05c0,0,0,0,0,0-.01.01-.03.03-.04.04,0,0,0,0,0,0-.03.03-.06.06-.09.09,0,0,0,0,0,0-.03.03-.06.06-.09.09l15.3,15.55c.27-.26.54-.52.82-.76l-14.35-16.44h0ZM787.17,631.62s-.03.03-.07.07h0s-.11.11-.19.19h0c-.08.08-.17.17-.27.27h0c-.1.1-.21.21-.31.31h0c-.11.11-.21.21-.31.31h0c-.1.1-.19.19-.27.27h0c-.08.08-.15.15-.19.19h0l-.07.07h0l15.43,15.43,1.71-1.71-15.43-15.43h0ZM783.74,635.05l-.07.07h0s-.11.11-.19.19h0c-.08.08-.17.17-.27.27h0c-.1.1-.21.21-.31.31h0c-.11.11-.21.21-.31.31h0c-.1.1-.19.19-.27.27h0c-.08.08-.15.15-.19.19h0s-.07.07-.07.07h0l15.43,15.43,1.71-1.71-15.43-15.43h0ZM780.31,638.48s-.03.03-.07.07h0s-.11.11-.19.19h0c-.08.08-.17.17-.27.27h0c-.1.1-.21.21-.31.31h0c-.11.11-.21.21-.31.31h0c-.1.1-.19.19-.27.27h0c-.08.08-.15.15-.19.19h0l-.07.07h0l15.43,15.43,1.71-1.71-15.43-15.43h0ZM776.88,641.91s-.03.03-.07.07h0s-.11.11-.19.19h0c-.08.08-.17.17-.27.27h0c-.1.1-.21.21-.31.31h0c-.11.11-.21.21-.31.31h0c-.1.1-.19.19-.27.27h0c-.08.08-.15.15-.19.19h0l-.07.07h0l15.43,15.43,1.71-1.71-15.43-15.43h0ZM773.45,645.34l-.07.07h0s-.11.11-.19.19h0c-.08.08-.17.17-.27.27h0c-.1.1-.21.21-.31.31h0c-.11.11-.21.21-.31.31h0c-.1.1-.19.19-.27.27h0c-.08.08-.15.15-.19.19h0s-.07.07-.07.07h0l15.43,15.43,1.71-1.71-15.43-15.43h0ZM770.02,648.76s-.03.03-.07.07h0s-.11.11-.19.19h0c-.08.08-.17.17-.27.27h0c-.1.1-.21.21-.31.31h0c-.11.11-.21.21-.31.31h0c-.1.1-.19.19-.27.27h0c-.08.08-.15.15-.19.19h0l-.07.07h0l15.43,15.43,1.71-1.71-15.43-15.43h0ZM766.59,652.19s-.03.03-.07.07h0s-.11.11-.19.19h0c-.08.08-.17.17-.27.27h0c-.1.1-.21.21-.31.31h0c-.11.11-.21.21-.31.31h0c-.1.1-.19.19-.27.27h0c-.08.08-.15.15-.19.19h0l-.07.07h0l15.43,15.43,1.71-1.71-15.43-15.43h0ZM763.17,655.62l-.07.07h0s-.11.11-.19.19h0c-.08.08-.17.17-.27.27h0c-.1.1-.21.21-.31.31h0c-.11.11-.21.21-.31.31h0c-.1.1-.19.19-.27.27h0c-.08.08-.15.15-.19.19h0s-.07.07-.07.07h0l15.43,15.43,1.71-1.71-15.43-15.43h0ZM759.74,659.05s-.03.03-.07.07h0s-.11.11-.19.19h0c-.08.08-.17.17-.27.27h0c-.1.1-.21.21-.31.31h0c-.11.11-.21.21-.31.31h0c-.1.1-.19.19-.27.27h0c-.08.08-.15.15-.19.19h0l-.07.07h0l15.43,15.43,1.71-1.71-15.43-15.43h0ZM756.31,662.48s-.03.03-.07.07h0s-.11.11-.19.19h0c-.08.08-.17.17-.27.27h0c-.1.1-.21.21-.31.31h0c-.11.11-.21.21-.31.31h0c-.1.1-.19.19-.27.27h0c-.08.08-.15.15-.19.19h0s-.07.07-.07.07h0l15.43,15.43,1.71-1.71-15.43-15.43h0ZM752.88,665.91l-.07.07h0s-.11.11-.19.19h0c-.08.08-.17.17-.27.27h0c-.1.1-.21.21-.31.31h0c-.11.11-.21.21-.31.31h0c-.1.1-.19.19-.27.27h0c-.08.08-.15.15-.19.19h0s-.07.07-.07.07h0l15.43,15.43,1.71-1.71-15.43-15.43h0ZM749.45,669.34s-.03.03-.07.07h0s-.11.11-.19.19h0c-.08.08-.17.17-.27.27h0c-.1.1-.21.21-.31.31h0c-.11.11-.21.21-.31.31h0c-.1.1-.19.19-.27.27h0c-.08.08-.15.15-.19.19h0l-.07.07h0l15.43,15.43,1.71-1.71-15.43-15.43h0ZM746.02,672.76s-.03.03-.07.07h0s-.11.11-.19.19h0c-.08.08-.17.17-.27.27h0c-.1.1-.21.21-.31.31h0c-.11.11-.21.21-.31.31h0c-.1.1-.19.19-.27.27h0c-.08.08-.15.15-.19.19h0s-.07.07-.07.07h0l15.43,15.43,1.71-1.71-15.43-15.43h0ZM742.59,676.19l-.07.07h0s-.11.11-.19.19h0c-.08.08-.17.17-.27.27h0c-.1.1-.21.21-.31.31h0c-.11.11-.21.21-.31.31h0c-.1.1-.19.19-.27.27h0c-.08.08-.15.15-.19.19h0s-.07.07-.07.07h0l15.43,15.43,1.71-1.71-15.43-15.43h0ZM739.17,679.62s-.03.03-.07.07h0s-.11.11-.19.19h0c-.08.08-.17.17-.27.27h0c-.1.1-.21.21-.31.31h0c-.11.11-.21.21-.31.31h0c-.1.1-.19.19-.27.27h0c-.08.08-.15.15-.19.19h0l-.07.07h0l15.43,15.43,1.71-1.71-15.43-15.43h0ZM735.74,683.05s-.03.03-.07.07h0s-.11.11-.19.19h0c-.08.08-.17.17-.27.27h0c-.1.1-.21.21-.31.31h0c-.11.11-.21.21-.31.31h0c-.1.1-.19.19-.27.27h0c-.08.08-.15.15-.19.19h0s-.07.07-.07.07h0l15.43,15.43,1.71-1.71-15.43-15.43h0ZM732.31,686.48l-.07.07h0l-.19.19h0c-.08.08-.17.17-.27.27h0l-.31.31h0c-.11.11-.21.21-.31.31h0c-.1.1-.19.19-.27.27h0c-.08.08-.15.15-.19.19h0s-.07.07-.07.07h0l15.43,15.43,1.71-1.71-15.43-15.43h0ZM728.88,689.91s-.03.03-.07.07h0s-.11.11-.19.19h0c-.08.08-.17.17-.27.27h0c-.1.1-.21.21-.31.31h0c-.11.11-.21.21-.31.31h0c-.1.1-.19.19-.27.27h0c-.08.08-.15.15-.19.19h0l-.07.07h0l15.43,15.43,1.71-1.71-15.43-15.43h0ZM725.45,693.34s-.03.03-.07.07h0s-.11.11-.19.19h0c-.08.08-.17.17-.27.27h0c-.1.1-.21.21-.31.31h0c-.11.11-.21.21-.31.31h0c-.1.1-.19.19-.27.27h0c-.08.08-.15.15-.19.19h0s-.07.07-.07.07h0l15.43,15.43,1.71-1.71-15.43-15.43h0ZM722.02,696.76l-.07.07h0s-.11.11-.19.19h0c-.08.08-.17.17-.27.27h0c-.1.1-.21.21-.31.31h0c-.11.11-.21.21-.31.31h0c-.1.1-.19.19-.27.27h0c-.08.08-.15.15-.19.19h0s-.07.07-.07.07h0l15.43,15.43,1.71-1.71-15.43-15.43h0ZM718.59,700.19s-.03.03-.07.07h0s-.11.11-.19.19h0c-.08.08-.17.17-.27.27h0c-.1.1-.21.21-.31.31h0c-.11.11-.21.21-.31.31h0c-.1.1-.19.19-.27.27h0c-.08.08-.15.15-.19.19h0l-.07.07h0l15.43,15.43,1.71-1.71-15.43-15.43h0ZM715.17,703.62s-.03.03-.07.07h0s-.11.11-.19.19h0c-.08.08-.17.17-.27.27h0c-.1.1-.21.21-.31.31h0c-.11.11-.21.21-.31.31h0c-.1.1-.19.19-.27.27h0c-.08.08-.15.15-.19.19h0s-.07.07-.07.07h0l15.43,15.43,1.71-1.71-15.43-15.43h0ZM711.74,707.05l-.07.07h0s-.11.11-.19.19h0c-.08.08-.17.17-.27.27h0c-.1.1-.21.21-.31.31h0c-.11.11-.21.21-.31.31h0c-.1.1-.19.19-.27.27h0c-.08.08-.15.15-.19.19h0s-.07.07-.07.07h0l15.43,15.43,1.71-1.71-15.43-15.43h0ZM708.31,710.48s-.03.03-.07.07h0s-.11.11-.19.19h0c-.08.08-.17.17-.27.27h0c-.1.1-.21.21-.31.31h0c-.11.11-.21.21-.31.31h0c-.1.1-.19.19-.27.27h0c-.08.08-.15.15-.19.19h0l-.07.07h0l15.43,15.43,1.71-1.71-15.43-15.43h0ZM704.88,713.91s-.03.03-.07.07h0s-.11.11-.19.19h0c-.08.08-.17.17-.27.27h0c-.1.1-.21.21-.31.31h0c-.11.11-.21.21-.31.31h0c-.1.1-.19.19-.27.27h0c-.08.08-.15.15-.19.19h0s-.07.07-.07.07h0l15.43,15.43,1.71-1.71-15.43-15.43h0ZM701.45,717.34l-.07.07h0s-.11.11-.19.19h0c-.08.08-.17.17-.27.27h0c-.1.1-.21.21-.31.31h0c-.11.11-.21.21-.31.31h0c-.1.1-.19.19-.27.27h0c-.08.08-.15.15-.19.19h0s-.07.07-.07.07h0l15.43,15.43,1.71-1.71-15.43-15.43h0ZM698.02,720.77s-.03.03-.07.07h0s-.11.11-.19.19h0c-.08.08-.17.17-.27.27h0c-.1.1-.21.21-.31.31h0c-.11.11-.21.21-.31.31h0c-.1.1-.19.19-.27.27h0c-.08.08-.15.15-.19.19h0l-.07.07h0l15.43,15.43,1.71-1.71-15.43-15.43h0ZM694.59,724.19s-.03.03-.07.07h0s-.11.11-.19.19h0c-.08.08-.17.17-.27.27h0c-.1.1-.21.21-.31.31h0c-.11.11-.21.21-.31.31h0c-.1.1-.19.19-.27.27h0c-.08.08-.15.15-.19.19h0s-.07.07-.07.07h0l15.43,15.43,1.71-1.71-15.43-15.43h0ZM691.16,727.62l-.07.07h0s-.11.11-.19.19h0c-.08.08-.17.17-.27.27h0c-.1.1-.21.21-.31.31h0c-.11.11-.21.21-.31.31h0c-.1.1-.19.19-.27.27h0c-.08.08-.15.15-.19.19h0s-.07.07-.07.07h0l15.43,15.43,1.71-1.71-15.43-15.43h0ZM687.74,731.05s-.03.03-.07.07h0s-.11.11-.19.19h0c-.08.08-.17.17-.27.27h0c-.1.1-.21.21-.31.31h0c-.11.11-.21.21-.31.31h0c-.1.1-.19.19-.27.27h0c-.08.08-.15.15-.19.19h0l-.07.07h0l15.43,15.43,1.71-1.71-15.43-15.43h0ZM684.31,734.48s-.03.03-.07.07h0s-.11.11-.19.19h0c-.08.08-.17.17-.27.27h0c-.1.1-.21.21-.31.31h0c-.11.11-.21.21-.31.31h0c-.1.1-.19.19-.27.27h0c-.08.08-.15.15-.19.19h0s-.07.07-.07.07h0l15.43,15.43,1.71-1.71-15.43-15.43h0ZM680.88,737.91l-.07.07h0s-.11.11-.19.19h0c-.08.08-.17.17-.27.27h0c-.1.1-.21.21-.31.31h0c-.11.11-.21.21-.31.31h0c-.1.1-.19.19-.27.27h0c-.08.08-.15.15-.19.19h0s-.07.07-.07.07h0l15.43,15.43,1.71-1.71-15.43-15.43h0ZM677.45,741.34s-.03.03-.07.07h0s-.11.11-.19.19h0c-.08.08-.17.17-.27.27h0c-.1.1-.21.21-.31.31h0c-.11.11-.21.21-.31.31h0c-.1.1-.19.19-.27.27h0c-.08.08-.15.15-.19.19h0l-.07.07h0l15.43,15.43,1.71-1.71-15.43-15.43h0ZM674.02,744.77s-.03.03-.07.07h0s-.11.11-.19.19h0c-.08.08-.17.17-.27.27h0c-.1.1-.21.21-.31.31h0c-.11.11-.21.21-.31.31h0c-.1.1-.19.19-.27.27h0c-.08.08-.15.15-.19.19h0s-.07.07-.07.07h0l15.43,15.43,1.71-1.71-15.43-15.43h0ZM670.59,748.19l-.07.07h0s-.11.11-.19.19h0c-.08.08-.17.17-.27.27h0c-.1.1-.21.21-.31.31h0c-.11.11-.21.21-.31.31h0c-.1.1-.19.19-.27.27h0c-.08.08-.15.15-.19.19h0s-.07.07-.07.07h0l15.43,15.43,1.71-1.71-15.43-15.43h0ZM667.16,751.62s-.03.03-.07.07h0s-.11.11-.19.19h0c-.08.08-.17.17-.27.27h0c-.1.1-.21.21-.31.31h0c-.11.11-.21.21-.31.31h0c-.1.1-.19.19-.27.27h0c-.08.08-.15.15-.19.19h0l-.07.07h0l15.43,15.43,1.71-1.71-15.43-15.43h0ZM663.74,755.05s-.03.03-.07.07h0s-.11.11-.19.19h0c-.08.08-.17.17-.27.27h0c-.1.1-.21.21-.31.31h0c-.11.11-.21.21-.31.31h0c-.1.1-.19.19-.27.27h0c-.08.08-.15.15-.19.19h0s-.07.07-.07.07h0l15.43,15.43,1.71-1.71-15.43-15.43h0ZM660.31,758.48l-.07.07h0s-.11.11-.19.19h0c-.08.08-.17.17-.27.27h0c-.1.1-.21.21-.31.31h0c-.11.11-.21.21-.31.31h0c-.1.1-.19.19-.27.27h0c-.08.08-.15.15-.19.19h0s-.07.07-.07.07h0l15.43,15.43,1.71-1.71-15.43-15.43h0ZM656.88,761.91s-.03.03-.07.07h0s-.11.11-.19.19h0c-.08.08-.17.17-.27.27h0c-.1.1-.21.21-.31.31h0c-.11.11-.21.21-.31.31h0c-.1.1-.19.19-.27.27h0c-.08.08-.15.15-.19.19h0l-.07.07h0l15.43,15.43,1.71-1.71-15.43-15.43h0ZM653.45,765.34s-.03.03-.07.07h0s-.11.11-.19.19h0c-.08.08-.17.17-.27.27h0c-.1.1-.21.21-.31.31h0c-.11.11-.21.21-.31.31h0c-.1.1-.19.19-.27.27h0c-.08.08-.15.15-.19.19h0s-.07.07-.07.07h0l15.43,15.43,1.71-1.71-15.43-15.43h0ZM650.02,768.77s-.03.03-.07.07h0s-.11.11-.19.19h0c-.08.08-.17.17-.27.27h0c-.1.1-.21.21-.31.31h0c-.11.11-.21.21-.31.31h0c-.1.1-.19.19-.27.27h0c-.08.08-.15.15-.19.19h0s-.07.07-.07.07h0l15.43,15.43,1.71-1.71-15.43-15.43h0ZM646.59,772.19s-.03.03-.07.07h0s-.11.11-.19.19h0c-.08.08-.17.17-.27.27h0c-.1.1-.21.21-.31.31h0c-.11.11-.21.21-.31.31h0c-.1.1-.19.19-.27.27h0c-.08.08-.15.15-.19.19h0l-.07.07h0l15.43,15.43,1.71-1.71-15.43-15.43h0ZM643.16,775.62s-.03.03-.07.07h0s-.11.11-.19.19h0c-.08.08-.17.17-.27.27h0c-.1.1-.21.21-.31.31h0c-.11.11-.21.21-.31.31h0c-.1.1-.19.19-.27.27h0c-.08.08-.15.15-.19.19h0s-.07.07-.07.07h0l15.43,15.43,1.71-1.71-15.43-15.43h0ZM639.74,779.05s-.03.03-.07.07h0s-.11.11-.19.19h0c-.08.08-.17.17-.27.27h0c-.1.1-.21.21-.31.31h0c-.11.11-.21.21-.31.31h0c-.1.1-.19.19-.27.27h0c-.08.08-.15.15-.19.19h0s-.07.07-.07.07h0l15.43,15.43,1.71-1.71-15.43-15.43h0ZM636.31,782.48s-.03.03-.07.07h0s-.11.11-.19.19h0c-.08.08-.17.17-.27.27h0c-.1.1-.21.21-.31.31h0c-.11.11-.21.21-.31.31h0c-.1.1-.19.19-.27.27h0c-.08.08-.15.15-.19.19h0l-.07.07h0l15.43,15.43,1.71-1.71-15.43-15.43h0ZM632.88,785.91s-.03.03-.07.07h0s-.11.11-.19.19h0c-.08.08-.17.17-.27.27h0c-.1.1-.21.21-.31.31h0c-.11.11-.21.21-.31.31h0c-.1.1-.19.19-.27.27h0c-.08.08-.15.15-.19.19h0s-.07.07-.07.07h0l15.43,15.43,1.71-1.71-15.43-15.43h0ZM629.46,789.35c-.48.5-.94,1.01-1.38,1.53h0s-.02.03-.04.05c0,0,0,0,0,.01,0,0-.02.02-.02.03,0,.01-.02.02-.03.03,0,0,0,.01-.01.02-.04.05-.08.09-.12.14l16.67,14.08c.24-.28.49-.56.75-.83l-15.8-15.05h0ZM626.33,793.05c-.44.58-.85,1.18-1.26,1.78,0,0,0,0,0,0-.01.02-.02.03-.03.05,0,0,0,0,0,.01,0,.01-.02.03-.02.04,0,0,0,.01-.01.02,0,0-.01.02-.02.03,0,0,0,.01-.01.02,0,0-.01.02-.02.03,0,0,0,0,0,0l18.24,11.97c.2-.31.41-.61.63-.91l-17.48-13.05h0ZM623.67,797.1c-.11.2-.22.4-.33.59,0,0,0,0,0,0l-.03.05s0,0,0,.01c-.02.03-.03.06-.05.09,0,0,0,.01-.01.02,0,.01-.01.02-.02.03,0,0-.01.02-.01.03,0,0,0,.01-.01.02,0,.01-.01.03-.02.04,0,0,0,.01-.01.02,0,.01-.01.02-.02.03,0,0,0,.01,0,.02,0,.01-.01.03-.02.04,0,0,0,.01,0,.02,0,.01-.02.03-.02.04,0,0,0,0,0,.01,0,.01-.01.03-.02.04,0,0,0,0,0,.01,0,.02-.02.03-.02.05h0s-.02.04-.02.06c0,0,0,0,0,.01,0,.01-.01.03-.02.04,0,0,0,0,0,.01,0,.01-.02.03-.02.04,0,0,0,0,0,.01,0,.01-.01.03-.02.04h0s-.01.04-.02.05c0,0,0,.01,0,.02,0,.01-.02.03-.02.04,0,0,0,.01,0,.02,0,.01-.01.02-.02.04,0,0,0,.01-.01.02,0,.01-.01.02-.02.03,0,0,0,.01,0,.02,0,.01-.01.03-.02.04,0,0,0,.02-.01.02,0,0,0,.01-.01.02,0,.01-.01.03-.02.04,0,0,0,0,0,.01-.02.03-.03.06-.05.1,0,0,0,0,0,0-.05.09-.09.18-.13.27l19.55,9.69c.16-.33.34-.66.52-.98l-18.93-10.85h0ZM621.52,801.44c-.32.75-.61,1.5-.88,2.26l20.57,7.27c.12-.35.26-.7.4-1.04l-20.1-8.49h0ZM619.9,806.01c-.22.78-.42,1.56-.6,2.35l21.29,4.77c.08-.36.18-.73.28-1.09l-20.97-6.03h0ZM618.84,810.74c-.13.8-.24,1.6-.32,2.4l21.71,2.22c.04-.37.09-.75.15-1.12l-21.54-3.5h0ZM618.35,815.56s0,.04,0,.06h0s0,.04,0,.06h0c-.03.77-.04,1.53-.03,2.3l21.82-.35c0-.38,0-.76.02-1.14l-21.8-.94h0ZM640.19,818.77l-21.76,1.63c.06.81.14,1.61.25,2.41l21.62-2.91c-.05-.37-.09-.75-.12-1.13h0ZM640.49,821.02l-21.41,4.19c.01.07.03.14.04.22,0,0,0,0,0,0,0,0,0,.02,0,.03,0,.01,0,.03,0,.04,0,0,0,0,0,.01,0,.01,0,.03,0,.04,0,0,0,0,0,.01,0,.02,0,.04.01.06,0,0,0,0,0,0,.06.3.13.6.2.9h0s0,.04.01.06c0,0,0,0,0,0,0,.02,0,.04.01.05,0,0,0,0,0,0,0,.02,0,.04.01.05,0,0,0,0,0,.01,0,.01,0,.03,0,.04,0,0,0,.02,0,.03,0,.01,0,.02,0,.03,0,0,0,.02,0,.03,0,0,0,.02,0,.03,0,.02,0,.03.01.04,0,0,0,0,0,.01.05.22.11.44.16.66l21.13-5.45c-.09-.36-.18-.73-.25-1.1h0ZM641.05,823.2l-20.76,6.7s.03.1.05.14h0s.02.07.03.11c0,0,0,0,0,0,0,.02.01.04.02.05,0,0,0,.01,0,.02,0,0,0,.02,0,.03,0,0,0,.02,0,.03,0,.01,0,.02.01.03,0,0,0,.02,0,.03v.02s.02.03.02.04c0,0,0,.01,0,.02,0,.02.01.03.02.05,0,0,0,0,0,0,0,.02.01.03.02.05,0,0,0,0,0,.01,0,.02.01.03.02.05,0,0,0,0,0,0,.01.04.03.07.04.11,0,0,0,0,0,0,.07.21.15.42.23.64,0,0,0,0,0,0,.01.04.03.07.04.11,0,0,0,0,0,0,0,.02.01.03.02.05h0s.01.04.02.05c0,0,0,0,0,.01,0,.01.01.03.02.04,0,0,0,.01,0,.02,0,0,0,.02.01.03,0,.01.01.03.01.04,0,0,0,0,0,.01.06.15.12.3.17.45l20.33-7.93c-.13-.34-.26-.7-.38-1.05h0ZM641.86,825.27l-19.81,9.14c.04.09.08.17.12.26,0,0,0,.02.01.03,0,0,0,0,0,.01,0,.02.02.03.02.05,0,0,0,0,0,0,.29.61.59,1.22.92,1.81l19.22-10.32c-.17-.32-.34-.66-.49-.99h0ZM642.91,827.22l-18.57,11.46c.03.05.06.1.1.16,0,0,0,0,0,.01,0,.01.01.02.02.04,0,.01.01.02.02.03,0,0,0,.01.01.02,0,.01.02.03.03.04,0,0,0,0,0,0,.35.55.7,1.09,1.08,1.62,0,0,0,0,0,0,.01.02.02.03.03.05,0,0,0,0,0,.01,0,.01.02.03.03.04l17.84-12.56c-.21-.3-.42-.61-.61-.92h0ZM644.18,829.03l-17.05,13.62c.5.63,1.02,1.24,1.57,1.85l16.2-14.61c-.25-.28-.49-.56-.72-.85h0ZM645.8,830.82l-15.43,15.43,1.71,1.71,15.43-15.43-1.71-1.71h0ZM649.23,834.25l-15.43,15.43,1.71,1.71,15.43-15.43-1.71-1.71h0ZM652.66,837.68l-15.43,15.43,1.71,1.71,15.43-15.43-1.71-1.71h0ZM656.09,841.1l-15.43,15.43,1.71,1.71,15.43-15.43-1.71-1.71h0ZM659.52,844.53l-15.43,15.43,1.71,1.71,15.43-15.43-1.71-1.71h0ZM662.95,847.96l-15.43,15.43,1.71,1.71,15.43-15.43-1.71-1.71h0ZM666.38,851.39l-15.43,15.43,1.71,1.71,15.43-15.43-1.71-1.71h0ZM669.8,854.82l-15.43,15.43,1.71,1.71,15.43-15.43-1.71-1.71h0ZM673.23,858.25l-15.43,15.43,1.71,1.71,15.43-15.43-1.71-1.71h0ZM676.66,861.68l-15.43,15.43,1.71,1.71,15.43-15.43-1.71-1.71h0ZM680.09,865.1l-15.43,15.43,1.71,1.71,15.43-15.43-1.71-1.71h0ZM683.52,868.53l-15.43,15.43,1.71,1.71,15.43-15.43-1.71-1.71h0ZM686.95,871.96l-15.43,15.43,1.71,1.71,15.43-15.43-1.71-1.71h0ZM690.38,875.39l-15.43,15.43,1.71,1.71,15.43-15.43-1.71-1.71h0ZM693.8,878.82l-15.43,15.43,1.71,1.71,15.43-15.43-1.71-1.71h0ZM697.23,882.25l-15.43,15.43,1.71,1.71,15.43-15.43-1.71-1.71h0ZM700.66,885.68l-15.43,15.43,1.71,1.71,15.43-15.43-1.71-1.71h0ZM704.09,889.1l-15.43,15.43,1.71,1.71,15.43-15.43-1.71-1.71h0ZM707.52,892.53l-15.43,15.43,1.71,1.71,15.43-15.43-1.71-1.71h0ZM710.95,895.96l-15.43,15.43,1.71,1.71,15.43-15.43-1.71-1.71h0ZM714.38,899.39l-15.43,15.43,1.71,1.71,15.43-15.43-1.71-1.71h0ZM717.8,902.82l-15.43,15.43,1.71,1.71,15.43-15.43-1.71-1.71h0ZM721.23,906.25l-15.43,15.43,1.71,1.71,15.43-15.43-1.71-1.71h0ZM724.66,909.68l-15.43,15.43,1.71,1.71,15.43-15.43-1.71-1.71h0ZM728.09,913.1l-15.43,15.43,1.71,1.71,15.43-15.43-1.71-1.71h0ZM731.52,916.53l-15.43,15.43,1.71,1.71,15.43-15.43-1.71-1.71h0ZM734.95,919.96l-15.43,15.43,1.71,1.71,15.43-15.43-1.71-1.71h0ZM738.38,923.39l-15.43,15.43,1.71,1.71,15.43-15.43-1.71-1.71h0ZM741.81,926.82l-15.43,15.43,1.71,1.71,15.43-15.43-1.71-1.71h0ZM745.23,930.25l-15.43,15.43,1.71,1.71,15.43-15.43-1.71-1.71h0ZM748.66,933.68l-15.43,15.43,1.71,1.71,15.43-15.43-1.71-1.71h0ZM752.09,937.11l-15.43,15.43,1.71,1.71,15.43-15.43-1.71-1.71h0ZM755.52,940.53l-15.43,15.43,1.71,1.71,15.43-15.43-1.71-1.71h0ZM758.95,943.96l-15.43,15.43,1.71,1.71,15.43-15.43-1.71-1.71h0ZM762.38,947.39l-15.43,15.43,1.71,1.71,15.43-15.43-1.71-1.71h0ZM765.81,950.82l-15.43,15.43,1.71,1.71,15.43-15.43-1.71-1.71h0ZM769.23,954.25l-15.43,15.43,1.71,1.71,15.43-15.43-1.71-1.71h0ZM772.66,957.68l-15.43,15.43,1.71,1.71,15.43-15.43-1.71-1.71h0ZM776.09,961.11l-15.43,15.43,1.71,1.71,15.43-15.43-1.71-1.71h0ZM779.52,964.53l-15.43,15.43,1.71,1.71,15.43-15.43-1.71-1.71h0ZM782.95,967.96l-15.43,15.43,1.71,1.71,15.43-15.43-1.71-1.71h0ZM786.38,971.39l-15.43,15.43,1.71,1.71,15.43-15.43-1.71-1.71h0ZM789.81,974.82l-15.43,15.43,1.71,1.71,15.43-15.43-1.71-1.71h0ZM793.24,978.25l-15.43,15.43,1.71,1.71,15.43-15.43-1.71-1.71h0ZM796.66,981.68l-15.43,15.43,1.71,1.71,15.43-15.43-1.71-1.71h0ZM800.09,985.11l-15.43,15.43,1.71,1.71,15.43-15.43-1.71-1.71h0ZM803.52,988.53l-15.43,15.43.55.55h0s.03.03.04.04c0,0,0,0,.01.01.01.01.02.02.03.03h.01s.02.04.03.05c0,0,0,0,.01.01.01.01.03.03.04.04,0,0,0,0,0,0,.01.01.02.02.03.03,0,0,0,0,.01.01,0,0,.02.02.03.03h.02s.02.04.03.05c0,0,0,0,.01.01.01.01.03.03.04.04,0,0,.01.01.02.02,0,0,.02.02.03.02,0,0,.01.01.02.02,0,0,.02.02.02.02,0,0,.01.01.02.02,0,0,.02.02.03.03,0,0,.01.01.02.02.01.01.02.02.03.03,0,0,.01.01.02.02,0,0,.02.02.02.02,0,0,.01.01.02.02,0,0,.02.02.03.02,0,0,.01.01.02.02.01.01.03.03.04.04,0,0,0,0,.01.01.01,0,.02.02.03.03,0,0,.01.01.02.01,0,0,.02.02.03.03,0,0,0,0,.01.01.01.01.03.02.04.04,0,0,0,0,0,0,.03.03.06.06.09.09,0,0,0,0,0,0,.08.08.16.15.25.23l14.8-16.04c-.19-.17-.37-.35-.55-.53l-.55-.55h0ZM805.47,990.35l-13.81,16.89c.3.25.6.49.91.72,0,0,0,0,0,0,.02.01.03.02.05.04,0,0,0,0,0,0,.03.02.06.05.09.07,0,0,0,0,0,0,.01.01.03.02.05.03,0,0,0,0,0,0,.03.02.06.05.1.07,0,0,0,0,0,0,.02.01.03.02.05.04,0,0,0,0,0,0,.03.02.06.05.1.07,0,0,0,0,0,0,.02.01.03.02.05.04,0,0,0,0,0,0,.02.01.03.02.05.04,0,0,0,0,0,0,.02.01.03.02.05.04,0,0,0,0,0,0,.02.01.03.02.05.03,0,0,0,0,0,0,.02.01.03.02.05.03,0,0,0,0,0,0,.01.01.03.02.04.03,0,0,0,0,0,0,.01.01.03.02.05.03,0,0,0,0,0,0,.01.01.03.02.04.03,0,0,0,0,0,0,.01.01.03.02.04.03,0,0,0,0,0,0,.01.01.03.02.04.03,0,0,0,0,.01.01.01,0,.02.02.04.03l12.77-17.69c-.3-.22-.59-.44-.88-.68h0ZM807.26,991.65l-11.68,18.43s.04.03.06.04c0,0,.01,0,.02.01,0,0,.02.01.03.02.01,0,.03.02.04.03,0,0,0,0,0,0,.46.29.93.57,1.39.84,0,0,0,0,0,0,.02,0,.03.02.05.03,0,0,0,0,0,0,.01,0,.03.02.04.02,0,0,0,0,0,0,.01,0,.03.02.04.02,0,0,.01,0,.02,0,.01,0,.02.01.04.02,0,0,.02,0,.03.01,0,0,.01,0,.02.01.02,0,.03.02.05.03,0,0,0,0,.01,0,.01,0,.02.01.03.02,0,0,0,0,0,0,.02.01.04.02.06.04t0,0s.09.05.13.07l10.54-19.1c-.32-.18-.64-.37-.95-.56h0ZM809.2,992.71l-9.37,19.71s.01,0,.02.01c.01,0,.02.01.04.02,0,0,0,0,0,0,.71.34,1.43.65,2.15.94l8.17-20.23c-.34-.14-.68-.29-1.02-.45h0ZM811.27,993.55l-6.94,20.69s0,0,.01,0c.02,0,.03.01.05.02,0,0,.01,0,.02,0,0,0,.02,0,.03,0h.04s.02.02.02.02c0,0,.02,0,.03,0h.03s.03.02.04.02c0,0,.01,0,.02,0,.01,0,.03,0,.04.01,0,0,.01,0,.02,0,.01,0,.03,0,.04.01,0,0,.01,0,.02,0,.02,0,.03.01.05.02,0,0,0,0,.01,0,.02,0,.03,0,.05.01,0,0,0,0,0,0,.02,0,.03.01.05.02,0,0,0,0,0,0,.02,0,.04.01.05.02,0,0,0,0,0,0,.02,0,.04.01.05.02,0,0,0,0,0,0,.02,0,.04.01.06.02,0,0,0,0,0,0,.04.01.08.02.11.04,0,0,0,0,0,0,.12.04.23.07.35.11,0,0,0,0,0,0,.04.01.08.02.11.03,0,0,0,0,0,0,.02,0,.04.01.06.02,0,0,0,0,0,0,.02,0,.04.01.05.02,0,0,0,0,0,0,.02,0,.03.01.05.02,0,0,0,0,.01,0,.02,0,.03,0,.05.01,0,0,0,0,.01,0,.01,0,.03,0,.04.01,0,0,.01,0,.02,0,.01,0,.03,0,.04.01,0,0,.02,0,.03,0,0,0,.01,0,.02,0,.02,0,.03,0,.05.01,0,0,0,0,.01,0,.18.05.36.1.54.15l5.69-21.06c-.36-.1-.72-.21-1.07-.32h0ZM813.43,994.13l-4.43,21.37s.06.01.09.02c0,0,0,0,0,0h.06s0,.01,0,.01c.02,0,.03,0,.05.01h.02s.03,0,.05.01c0,0,.01,0,.02,0,0,0,.02,0,.03,0,.01,0,.03,0,.04,0,0,0,.01,0,.02,0,.01,0,.02,0,.03,0h.01s.04.01.06.01c0,0,0,0,0,0,.26.05.52.1.78.14,0,0,0,0,0,0,.04,0,.07.01.11.02,0,0,0,0,.01,0,.02,0,.03,0,.05,0,0,0,.02,0,.02,0,0,0,.02,0,.03,0,.01,0,.03,0,.04,0,0,0,.02,0,.02,0,.01,0,.02,0,.04,0,0,0,.01,0,.02,0,.02,0,.03,0,.05,0,0,0,0,0,0,0,.24.04.49.08.73.11l3.16-21.59c-.37-.05-.75-.12-1.11-.2h0ZM815.68,994.46l-1.88,21.74c.68.06,1.36.1,2.04.12,0,0,0,0,0,0,.02,0,.04,0,.05,0,0,0,.02,0,.02,0h.02s.03,0,.05,0c0,0,0,0,0,0,.07,0,.15,0,.22,0l.59-21.81c-.38-.01-.76-.03-1.14-.06h0ZM819.08,994.45c-.38.03-.76.06-1.13.07l.69,21.81c.81-.03,1.61-.08,2.42-.15l-1.98-21.73h0ZM821.32,994.12c-.37.08-.74.15-1.11.2l3.26,21.57c.08-.01.16-.02.24-.04,0,0,0,0,0,0,.02,0,.04,0,.06,0,0,0,0,0,0,0,.01,0,.03,0,.04,0,0,0,.02,0,.02,0,0,0,.01,0,.02,0,.02,0,.04,0,.06,0t0,0c.65-.11,1.29-.23,1.94-.36l-4.53-21.34h0ZM823.49,993.52c-.35.12-.71.23-1.07.33l5.79,21.04c.12-.03.24-.07.36-.1,0,0,0,0,0,0,.02,0,.04-.01.06-.02,0,0,.01,0,.02,0,0,0,.02,0,.03,0,.01,0,.03,0,.04-.01h.01s.03-.01.05-.02h0s.04-.01.06-.02c0,0,0,0,0,0,.56-.17,1.13-.34,1.68-.53l-7.04-20.65h0ZM825.55,992.68c-.33.16-.67.31-1.01.45l8.26,20.19c.2-.08.39-.16.59-.25,0,0,0,0,0,0,.02,0,.03-.01.05-.02,0,0,.01,0,.02,0,0,0,.02,0,.02-.01.01,0,.03-.01.04-.02,0,0,.01,0,.02,0,.01,0,.03-.01.04-.02,0,0,0,0,0,0,.02,0,.03-.02.05-.02,0,0,0,0,0,0,.46-.2.91-.41,1.36-.63l-9.46-19.66h0ZM827.48,991.6c-.31.2-.63.39-.95.57l10.63,19.05s.02-.01.03-.02c0,0,.02,0,.02-.01,0,0,.02,0,.02-.01.01,0,.02-.01.03-.02,0,0,.02,0,.02-.01,0,0,.02,0,.02-.01.01,0,.02-.01.04-.02,0,0,.02,0,.02-.01,0,0,.02,0,.02-.01.01,0,.02-.01.03-.02,0,0,.02,0,.02-.01h.02s.02-.03.04-.03c0,0,.02,0,.02-.01,0,0,.02,0,.02-.01.01,0,.02-.01.03-.02,0,0,.02-.01.03-.02,0,0,.01,0,.02-.01.01,0,.03-.01.04-.02,0,0,.01,0,.02-.01,0,0,.02-.01.03-.02,0,0,.02-.01.03-.02,0,0,.02-.01.03-.02,0,0,.01,0,.02-.01.01,0,.02-.01.04-.02,0,0,.01,0,.02-.01,0,0,.02,0,.03-.02,0,0,.02,0,.03-.01.01,0,.02-.01.03-.02,0,0,.01,0,.02-.01.01,0,.03-.01.04-.02,0,0,.01,0,.02-.01,0,0,.02-.01.03-.02,0,0,.01,0,.02-.01.01,0,.03-.02.04-.02,0,0,.01,0,.02-.01.01,0,.03-.02.04-.02h.02s.02-.02.03-.03c0,0,0,0,.01,0,.01,0,.03-.02.04-.03,0,0,.01,0,.02,0,.01,0,.03-.02.04-.03h0s.03-.02.04-.03c0,0,0,0,.01,0,.02,0,.03-.02.04-.03,0,0,0,0,.01,0,.02,0,.03-.02.05-.03,0,0,0,0,0,0,.02,0,.03-.02.05-.03,0,0,0,0,0,0,.02,0,.03-.02.05-.03h0c.21-.13.42-.26.63-.4l-11.76-18.38h0ZM829.27,990.29c-.28.23-.58.46-.88.68l12.85,17.63c.65-.47,1.29-.97,1.92-1.49l-13.89-16.83h0ZM831.29,988.4l-.69.69c-.16.16-.32.31-.48.47l14.87,15.97c.26-.24.51-.48.76-.73,0,0,0,0,0,0,.02-.01.03-.03.04-.04,0,0,0,0,0,0,.02-.01.03-.03.04-.04,0,0,0,0,0,0,.01-.01.03-.03.04-.04,0,0,0,0,0,0l.04-.04h0s.02-.03.04-.04c0,0,0,0,.01-.01.01-.01.03-.03.04-.04h0s.01-.01.03-.03h0s.05-.05.08-.08h0s.07-.07.11-.11h0s.08-.08.13-.13h0s.08-.09.12-.13h0s.08-.08.11-.11h0s.03-.03.04-.05h0s.02-.02.03-.03h0s.02-.02.02-.02h0s0,0,0,0h0s-15.43-15.43-15.43-15.43h0ZM834.71,984.97l-1.71,1.71,15.43,15.43h0s0,0,0,0h0s0,0,0,0h0s0,0,.01-.01h0s0,0,0,0h0s0,0,0,0h0s0,0,.01-.01h0s0,0,.01-.01h0s0,0,0,0h0s0,0,0,0h0s0,0,0,0l.02-.02s0,0,0,0h0s0,0,0-.01h0s0,0,0,0h0s.01-.02.02-.02h0s0,0,.01-.01h0s0,0,0,0h.01s0-.02,0-.02h0s0,0,.01-.01h0s0,0,.01-.01h0s0,0,.01-.01h0s0,0,0,0h0s0,0,0,0h0s0,0,.01-.01h0s0-.01.01-.02h0s0,0,0,0l.02-.02s0,0,0,0h0s0-.01.01-.02h0s0-.01.01-.02h0s0,0,0,0h.01s.02-.03.03-.04h0s.02-.02.03-.03h0s0-.02.01-.02h0s0,0,0,0h0s0,0,0,0h0s0,0,0,0h.01s0-.02.01-.03h0s0-.02.01-.02h0s0-.01.01-.02h0s0,0,0,0l.05-.05s0,0,0,0h0s0-.01.01-.02h0s.02-.03.03-.04h0s0-.02.01-.02h0s.01-.01.02-.02h0s0-.01.01-.02h0s0,0,0,0l.06-.06s0,0,0,0l.21-.21s0,0,0,0l.08-.08s0,0,.01-.01h0s0,0,0-.01h0s0,0,0-.01h0s0-.01.01-.02h0s.02-.03.03-.04l.02-.02h0s.06-.07.06-.07c0,0,0,0,.01-.01h0s0,0,0-.01l.02-.02h0s.04-.04.04-.04h0l.02-.02s0,0,0,0l.02-.02h0s0,0,0,0c0,0,0,0,0,0l.17-.17s0,0,0,0l.05-.05s0,0,0,0l.02-.02h0s.09-.09.09-.09c0,0,0,0,0,0h0s0,0,0,0h0s-15.43-15.44-15.43-15.44h0ZM838.14,981.54l-1.71,1.71,15.43,15.43,1.71-1.71-15.43-15.43h0ZM841.57,978.11l-1.71,1.71,15.43,15.43,1.71-1.71-15.43-15.43h0ZM845,974.68l-1.71,1.71,15.43,15.43,1.71-1.71-15.43-15.43h0ZM848.43,971.25l-1.71,1.71,15.43,15.43,1.71-1.71-15.43-15.43h0ZM851.86,967.83l-1.71,1.71,15.43,15.43.18-.18h0s0,0,0,0c.44-.44,1.53-1.53,1.53-1.53l-15.43-15.43h0ZM855.29,964.4l-1.71,1.71,15.43,15.43,1.71-1.71-15.43-15.43h0ZM858.71,960.97l-1.71,1.71,15.43,15.43,1.71-1.71-15.43-15.43h0ZM862.14,957.54l-1.71,1.71,15.43,15.43,1.71-1.71-15.43-15.43h0ZM865.57,954.11l-1.71,1.71,15.43,15.43s.87-.87,1.37-1.37l.34-.34-15.43-15.43h0ZM869,950.68l-1.71,1.71,15.43,15.43,1.71-1.71-15.43-15.43h0ZM872.43,947.25l-1.71,1.71,15.43,15.43,1.71-1.71-15.43-15.43h0ZM875.86,943.83l-1.71,1.71,15.43,15.43.45-.45c.51-.51,1.26-1.26,1.26-1.26l-15.43-15.43h0ZM879.29,940.4l-1.71,1.71,15.43,15.43,1.71-1.71-15.43-15.43h0ZM882.71,936.97l-1.71,1.71,15.43,15.43,1.71-1.71-15.43-15.43h0ZM886.14,933.54l-1.71,1.71,15.43,15.43.56-.56c.5-.5,1.15-1.15,1.15-1.15l-15.43-15.43h0ZM889.57,930.11l-1.71,1.71,15.43,15.43,1.71-1.71-15.43-15.43h0ZM893,926.68l-1.71,1.71,15.43,15.43,1.71-1.71-15.43-15.43h0ZM896.43,923.25l-1.71,1.71,15.43,15.43,1.71-1.71-15.43-15.43h0ZM899.86,919.83l-1.71,1.71,15.43,15.43,1.71-1.71-15.43-15.43h0ZM903.29,916.4l-1.71,1.71,15.43,15.43s.5-.5.96-.96h0s0,0,0,0l.75-.75-15.43-15.43h0ZM906.72,912.97l-1.71,1.71,15.43,15.43,1.71-1.71-15.43-15.43h0ZM910.14,909.54l-1.71,1.71,15.43,15.43,1.71-1.71-15.43-15.43h0ZM913.57,906.11l-1.71,1.71,15.43,15.43,1.71-1.71-15.43-15.43h0ZM917,902.68l-1.71,1.71,15.43,15.43,1.71-1.71-15.43-15.43h0ZM920.43,899.25l-1.71,1.71,15.43,15.43.94-.94.77-.77-15.43-15.43h0ZM923.86,895.83l-1.71,1.71,15.43,15.43,1.71-1.71-15.43-15.43h0ZM927.29,892.4l-1.71,1.71,15.43,15.43s.33-.33.7-.7h0s0,0,0,0l1.01-1.01-15.43-15.43h0ZM930.72,888.97l-1.71,1.71,15.43,15.43,1.04-1.04c.36-.36.67-.67.67-.67l-15.43-15.43h0ZM934.14,885.54l-1.71,1.71,15.43,15.43,1.71-1.71-15.43-15.43h0ZM937.57,882.11l-1.71,1.71,15.43,15.43,1.71-1.71-15.43-15.43h0ZM941,878.68l-1.71,1.71,15.43,15.43,1.71-1.71-15.43-15.43h0ZM944.43,875.25l-1.71,1.71,15.43,15.43,1.71-1.71-15.43-15.43h0ZM947.86,871.82l-1.71,1.71,15.43,15.43,1.71-1.71-15.43-15.43h0ZM951.29,868.4l-1.71,1.71,15.43,15.43s.19-.19.45-.45h0s0,0,0,0l1.26-1.26-15.43-15.43h0ZM954.72,864.97l-1.71,1.71,15.43,15.43,1.71-1.71-15.43-15.43h0ZM958.14,861.54l-1.71,1.71,15.43,15.43,1.71-1.71-15.43-15.43h0ZM961.57,858.11l-1.71,1.71,15.43,15.43,1.71-1.71-15.43-15.43h0ZM965,854.68l-1.71,1.71,15.43,15.43,1.42-1.42.03-.03h0c.16-.16.27-.27.27-.27l-15.43-15.43h0ZM968.43,851.25l-1.71,1.71,15.43,15.43,1.71-1.71-15.43-15.43h0ZM971.86,847.82l-1.71,1.71,15.43,15.43,1.71-1.71-15.43-15.43h0ZM975.29,844.4l-1.71,1.71,15.43,15.43.19-.19h0s0,0,0,0l1.51-1.51-15.43-15.43h0ZM978.72,840.97l-1.71,1.71,15.43,15.43,1.71-1.71-15.43-15.43h0ZM982.15,837.54l-1.71,1.71,15.43,15.43,1.71-1.71-15.43-15.43h0ZM985.57,834.11l-1.71,1.71,15.43,15.43,1.71-1.71-15.43-15.43h0ZM989,830.68l-1.71,1.71,15.43,15.43,1.71-1.71-15.43-15.43h0ZM990.54,828.96c-.23.29-.47.58-.72.85l16.27,14.54s.02-.02.03-.03c0,0,0-.01.01-.02,0,0,.01-.02.02-.02,0-.01.02-.02.03-.03,0,0,.01-.01.02-.02.02-.03.05-.05.07-.08h0c.48-.54.94-1.09,1.38-1.66l-17.12-13.53h0ZM991.81,827.15c-.19.31-.39.62-.6.93l17.9,12.48c.12-.18.24-.35.36-.53,0,0,0,0,0,0,.01-.02.02-.03.03-.05h0s.01-.03.02-.04c0-.01.01-.02.02-.03,0,0,.01-.02.02-.02,0,0,.01-.02.02-.03,0,0,.01-.02.02-.02,0-.01.01-.02.02-.03v-.02s.03-.03.04-.04c0,0,0,0,0-.01.02-.03.04-.07.06-.1h0c.24-.36.47-.73.69-1.1l-18.62-11.37h0ZM992.85,825.19c-.15.34-.32.67-.49.99l19.27,10.23c.15-.29.3-.57.44-.86,0,0,0,0,0,0l.03-.05s0,0,0,0c0-.02.02-.03.02-.05,0,0,0,0,0,0,0-.02.01-.03.02-.04,0,0,0-.01,0-.02,0-.01.01-.02.02-.03,0-.01.01-.02.02-.03,0,0,0-.01,0-.02.17-.35.34-.7.5-1.05l-19.86-9.05h0ZM993.65,823.11c-.11.35-.24.71-.37,1.05l20.36,7.84c.02-.06.05-.12.07-.19,0,0,0,0,0-.01,0-.02.01-.03.02-.05,0,0,0,0,0-.01,0-.01,0-.02.01-.04,0,0,0-.01,0-.02,0-.01,0-.03.02-.04,0,0,0-.02,0-.02,0,0,0-.02,0-.02v-.04s.02-.02.02-.02c0,0,0-.02.01-.03,0,0,0-.01,0-.02,0-.02.01-.03.02-.05,0,0,0-.01,0-.02,0-.02.01-.04.02-.05,0,0,0,0,0,0,0-.01,0-.02.01-.03,0,0,0,0,0-.01,0-.02.01-.04.02-.06,0,0,0,0,0,0,.01-.03.02-.07.04-.1,0,0,0,0,0-.01,0-.02.01-.04.02-.05,0,0,0,0,0-.01,0-.01,0-.02.01-.03,0,0,0,0,0-.01,0-.02.01-.04.02-.05,0,0,0-.01,0-.02,0-.02.01-.03.02-.05,0,0,0-.01,0-.02,0,0,0-.02,0-.03,0,0,0-.01,0-.02,0-.01,0-.03.01-.04,0,0,0-.01,0-.02,0-.01,0-.02.01-.03,0-.01,0-.02.01-.03,0,0,0-.02,0-.03,0,0,0-.01,0-.02,0-.01,0-.03.01-.04,0,0,0-.02,0-.02,0,0,0-.02,0-.03,0,0,0-.02,0-.03,0-.01,0-.03.01-.04,0,0,0-.01,0-.02,0-.01,0-.03.01-.04,0,0,0-.02,0-.02,0,0,0-.02,0-.03,0,0,0-.01,0-.02,0-.02.01-.03.02-.05,0,0,0,0,0-.01.01-.03.02-.07.03-.1,0,0,0,0,0,0,.06-.17.11-.33.16-.5l-20.8-6.6h0ZM994.2,820.93c-.07.37-.15.74-.24,1.1l21.15,5.35s.02-.07.03-.11c0,0,0,0,0-.01,0-.02,0-.03.01-.05,0,0,0-.01,0-.02,0,0,0-.02,0-.03,0-.01,0-.03,0-.04,0,0,0-.02,0-.02,0-.01,0-.02,0-.03,0,0,0-.01,0-.02,0-.01,0-.03.01-.05,0,0,0-.01,0-.02,0-.01,0-.03.01-.05,0,0,0,0,0,0,0-.02,0-.03.01-.05,0,0,0,0,0-.01,0-.02,0-.03.01-.05,0,0,0,0,0-.01,0-.01,0-.03.01-.05,0,0,0,0,0,0,0-.02,0-.03.01-.05,0,0,0,0,0-.01,0-.02,0-.03.01-.05,0,0,0,0,0,0,0-.01,0-.03.01-.04,0,0,0,0,0-.01,0-.02,0-.03.01-.05,0,0,0-.01,0-.02,0-.01,0-.03,0-.04,0,0,0,0,0-.01,0-.02,0-.03.01-.05,0,0,0-.01,0-.02,0-.02,0-.03.01-.05,0,0,0-.01,0-.02,0-.01,0-.02,0-.04,0,0,0-.01,0-.02,0-.01,0-.03,0-.04,0,0,0-.01,0-.02,0-.01,0-.02,0-.04,0,0,0-.02,0-.03,0-.01,0-.02,0-.03,0,0,0-.02,0-.02,0-.01,0-.03,0-.04,0,0,0-.02,0-.02,0-.01,0-.02,0-.03,0,0,0-.02,0-.03,0-.01,0-.03,0-.04,0,0,0-.02,0-.02,0-.01,0-.03,0-.04,0,0,0-.01,0-.02,0-.01,0-.02,0-.04,0,0,0-.01,0-.02,0-.02,0-.03.01-.05,0,0,0,0,0-.01,0-.02,0-.03,0-.05,0,0,0,0,0,0,0-.02,0-.04.01-.06,0,0,0,0,0,0,.04-.2.08-.41.12-.61l-21.43-4.09h0ZM994.49,818.68c-.03.38-.06.76-.11,1.13l21.64,2.81c.07-.58.14-1.15.19-1.73,0,0,0,0,0,0,0-.02,0-.05,0-.07h0s0-.02,0-.04c0,0,0,0,0,0v-.06s0,0,0-.01c0-.01,0-.02,0-.03,0-.01,0-.03,0-.04,0,0,0-.02,0-.03,0,0,0-.02,0-.02,0-.01,0-.02,0-.03,0-.01,0-.02,0-.03,0,0,0-.02,0-.02,0-.02,0-.03,0-.05,0,0,0-.01,0-.02,0-.01,0-.03,0-.04,0,0,0-.01,0-.02v-.05s0,0,0-.01c0-.02,0-.03,0-.05,0,0,0,0,0,0,0-.01,0-.03,0-.04l-21.77-1.53h0ZM1016.31,815.37l-21.79,1.04c.02.38.03.76.02,1.14l21.82.24c0-.5,0-1.01-.01-1.51,0,0,0,0,0,0,0-.02,0-.04,0-.06,0,0,0-.01,0-.01,0-.02,0-.04,0-.06,0,0,0,0,0,0,0-.01,0-.02,0-.03,0,0,0-.01,0-.02,0-.01,0-.03,0-.04,0,0,0-.02,0-.03,0,0,0-.02,0-.02,0-.01,0-.03,0-.04,0,0,0-.01,0-.02,0-.01,0-.02,0-.03v-.02s0-.03,0-.05c0,0,0-.01,0-.02,0-.02,0-.03,0-.05,0,0,0,0,0,0,0-.02,0-.04,0-.05,0,0,0,0,0-.01,0-.02,0-.04,0-.06,0,0,0,0,0,0,0-.08,0-.17-.01-.25h0ZM1015.79,810.55l-21.52,3.6c.06.37.11.75.15,1.12l21.7-2.33s-.01-.09-.02-.14c0,0,0-.02,0-.03,0,0,0-.01,0-.02,0-.02,0-.03,0-.05h0c-.05-.41-.1-.82-.15-1.22,0,0,0,0,0,0,0-.02,0-.04,0-.06,0,0,0,0,0,0,0-.02,0-.04,0-.06,0,0,0,0,0,0,0-.02,0-.04,0-.05h0s0-.05,0-.06c0,0,0-.01,0-.02,0-.01,0-.02,0-.04v-.02s0-.03,0-.04c0,0,0-.02,0-.02,0,0,0-.02,0-.03,0-.02,0-.03,0-.05,0,0,0-.01,0-.02,0-.01,0-.02,0-.03,0,0,0,0,0-.01,0-.02,0-.04,0-.06,0,0,0,0,0,0-.02-.12-.04-.25-.06-.37h0ZM1014.71,805.82l-20.94,6.13c.1.36.2.72.28,1.09l21.27-4.87c-.02-.09-.04-.18-.06-.27,0,0,0,0,0,0,0-.02,0-.03-.01-.05,0,0,0-.01,0-.02,0-.01,0-.02,0-.03,0-.03-.02-.07-.02-.1,0,0,0,0,0,0-.09-.35-.18-.71-.27-1.06,0,0,0,0,0-.01,0-.02,0-.03-.01-.05,0,0,0-.02,0-.03,0,0,0-.02,0-.02,0-.01,0-.03-.01-.04,0,0,0-.01,0-.02,0-.01,0-.03-.01-.05h0s-.01-.04-.02-.06c0,0,0,0,0,0-.05-.17-.1-.35-.15-.53h0ZM1013.07,801.26l-20.06,8.59c.15.34.28.69.41,1.04l20.54-7.37c-.06-.17-.13-.35-.19-.52,0,0,0-.01,0-.02v-.02s-.02-.03-.03-.05c0,0,0,0,0,0-.21-.55-.43-1.1-.66-1.64h0ZM1010.9,796.93l-18.88,10.94c.18.32.36.65.53.97l19.5-9.78c-.25-.49-.5-.98-.77-1.46,0,0,0-.01-.01-.02,0-.01-.01-.02-.02-.03,0-.01-.01-.02-.02-.03,0,0,0-.01,0-.02,0-.02-.02-.03-.03-.05h0c-.1-.18-.2-.35-.3-.52h0ZM1008.22,792.89l-17.42,13.14c.22.29.44.6.64.9l18.18-12.06c-.44-.67-.91-1.33-1.4-1.98h0ZM1005.08,789.21l-15.73,15.13c.26.27.51.55.75.83l16.6-14.16c-.1-.11-.19-.23-.29-.34,0,0,0,0,0-.01-.01-.01-.02-.02-.03-.04,0,0-.01-.01-.02-.02l-.02-.02s-.02-.02-.03-.04c0,0,0,0-.01-.01-.01-.01-.02-.03-.04-.04,0,0,0,0,0,0-.38-.43-.77-.86-1.18-1.28h0ZM1001.65,785.77l-15.43,15.43,1.71,1.71,15.43-15.43-1.71-1.71h0ZM998.23,782.34l-15.43,15.43,1.71,1.71,15.43-15.43-1.71-1.71h0ZM994.8,778.92l-15.43,15.43,1.71,1.71,15.43-15.43-1.71-1.71h0ZM991.37,775.49l-15.43,15.43,1.71,1.71,15.43-15.43-1.71-1.71h0ZM987.94,772.06l-15.43,15.43,1.71,1.71,15.43-15.43-1.71-1.71h0ZM984.51,768.63l-15.43,15.43,1.71,1.71,15.43-15.43-1.71-1.71h0ZM981.08,765.2l-15.43,15.43,1.71,1.71,15.43-15.43s-.1-.1-.26-.26l-1.45-1.45h0ZM977.65,761.77l-15.43,15.43,1.71,1.71,15.43-15.43-1.71-1.71h0ZM974.23,758.34l-15.43,15.43,1.71,1.71,15.43-15.43-1.71-1.71h0ZM970.8,754.91l-15.43,15.43,1.71,1.71,15.43-15.43-1.71-1.71h0ZM967.37,751.49l-15.43,15.43,1.71,1.71,15.43-15.43-1.29-1.29c-.25-.25-.43-.43-.43-.43h0ZM963.94,748.06l-15.43,15.43,1.71,1.71,15.43-15.43-1.71-1.71h0ZM960.51,744.63l-15.43,15.43,1.71,1.71,15.43-15.43-1.71-1.71h0ZM957.08,741.2l-15.43,15.43,1.71,1.71,15.43-15.43-1.71-1.71h0ZM953.65,737.77l-15.43,15.43,1.71,1.71,15.43-15.43-1.71-1.71h0ZM950.23,734.34l-15.43,15.43,1.71,1.71,15.43-15.43-1.71-1.71h0ZM946.8,730.91l-15.43,15.43,1.71,1.71,15.43-15.43s-.29-.29-.64-.64h0s0,0,0,0l-1.07-1.07h0ZM943.37,727.49l-15.43,15.43,1.71,1.71,15.43-15.43-1.04-1.04-.68-.68h0ZM939.94,724.06l-15.43,15.43,1.71,1.71,15.43-15.43-1.71-1.71h0ZM936.51,720.63l-15.43,15.43,1.71,1.71,15.43-15.43s-.36-.36-.75-.75l-.96-.96h0ZM933.08,717.2l-15.43,15.43,1.71,1.71,15.43-15.43-1.71-1.71h0ZM929.65,713.77l-15.43,15.43,1.71,1.71,15.43-15.43-1.71-1.71h0ZM926.22,710.34l-15.43,15.43,1.71,1.71,15.43-15.43-1.71-1.71h0ZM922.8,706.91l-15.43,15.43,1.71,1.71,15.43-15.43-1.71-1.71h0ZM919.37,703.49l-15.43,15.43,1.71,1.71,15.43-15.43-.78-.78c-.45-.45-.93-.93-.93-.93h0ZM915.94,700.06l-15.43,15.43,1.71,1.71,15.43-15.43-1.71-1.71h0ZM912.51,696.63l-15.43,15.43,1.71,1.71,15.43-15.43s-.53-.53-1.01-1.01l-.71-.71h0ZM909.08,693.2l-15.43,15.43,1.71,1.71,15.43-15.43-1.71-1.71h0ZM905.65,689.77l-15.43,15.43,1.71,1.71,15.43-15.43-.62-.62-1.09-1.09h0ZM902.22,686.34l-15.43,15.43,1.71,1.71,15.43-15.43s-.63-.63-1.13-1.13l-.58-.58h0ZM898.8,682.91l-15.43,15.43,1.71,1.71,15.43-15.43-1.71-1.71h0ZM895.37,679.48l-15.43,15.43,1.71,1.71,15.43-15.43-1.71-1.71h0ZM891.94,676.06l-15.43,15.43,1.71,1.71,15.43-15.43-1.71-1.71h0ZM888.51,672.63l-15.43,15.43,1.71,1.71,15.43-15.43-1.71-1.71h0ZM885.08,669.2l-15.43,15.43,1.71,1.71,15.43-15.43-1.71-1.71h0ZM881.65,665.77l-15.43,15.43,1.71,1.71,15.43-15.43-.36-.36h0s0,0,0,0c-.5-.5-1.35-1.35-1.35-1.35h0ZM878.22,662.34l-15.43,15.43,1.71,1.71,15.43-15.43-1.71-1.71h0ZM874.8,658.91l-15.43,15.43,1.71,1.71,15.43-15.43-1.71-1.71h0ZM871.37,655.48l-15.43,15.43,1.71,1.71,15.43-15.43-1.71-1.71h0ZM867.94,652.06l-15.43,15.43,1.71,1.71,15.43-15.43s-1.04-1.04-1.5-1.5h0s0,0,0,0l-.21-.21h0ZM864.51,648.63l-15.43,15.43,1.71,1.71,15.43-15.43-1.71-1.71h0ZM861.08,645.2l-15.43,15.43,1.71,1.71,15.43-15.43-1.71-1.71h0ZM857.65,641.77l-15.43,15.43,1.71,1.71,15.43-15.43-1.71-1.71h0ZM854.22,638.34l-15.43,15.43,1.71,1.71,15.43-15.43-1.71-1.71h0ZM850.79,634.91l-15.43,15.43,1.71,1.71,15.43-15.43-1.71-1.71h0ZM847.37,631.48l-15.43,15.43,1.71,1.71,15.43-15.43h0s0,0,0,0h0s0,0,0,0h0s0,0,0,0h0s0,0,0,0h0s0,0,0,0h0s0,0,0,0h0s0,0,0,0h0s0,0,0,0h0s0,0,0,0h0s0,0,0,0h0s0,0,0,0h0s0,0,0,0l-.02-.02h0s-.02-.02-.02-.02h0s0,0,0,0c0,0,0,0,0,0h0s0,0,0,0h0s-.01-.02-.02-.02h0s0,0,0-.01h0s0,0,0,0h-.01s0-.02,0-.02h0s0,0-.01-.01h0s0,0-.01-.01h0s0,0,0-.01h0s0,0,0,0h0s0,0,0,0h0s0,0-.01-.01h0s0-.01,0-.02h0s0,0,0,0l-.02-.02s0,0,0,0h0s0-.01-.01-.02h0s0-.01-.01-.02h0s0,0,0,0h-.01s-.02-.03-.03-.04h0s-.02-.02-.03-.03h0s0-.02-.01-.02h0s0,0,0,0h0s0,0,0,0h0s0,0,0-.01h-.01s0-.02-.01-.02h0s0-.02-.01-.02h0s-.01-.01-.02-.02h0s0,0,0-.01l-.04-.04h0s0,0,0,0c0,0-.01-.01-.02-.02h0s-.02-.03-.04-.04h0s-.05-.05-.07-.08l-.02-.02h0s0,0,0,0l-.02-.02h0s-.01-.02-.02-.02h0s0-.01-.01-.02l-.02-.02s0,0,0,0h0s0,0,0,0l-.03-.03s0,0,0,0l-.05-.05s0,0,0,0l-.03-.02h0s0-.01,0-.01c0,0,0,0,0,0l-.02-.02h-.01s0-.02,0-.02c0,0-.01-.01-.02-.02h0s-.01-.02-.02-.02h0s0,0,0,0l-.02-.02-.07-.07h0s-.03-.03-.04-.04h0s-.01-.01-.02-.02h0s0,0,0,0l-.03-.03s-.04-.04-.05-.05h0s-.05-.05-.07-.07h0s-.04-.05-.06-.07h0s-.04-.04-.06-.06h0s-.02-.02-.03-.03h0s-.02-.02-.03-.03h0s-.03-.04-.05-.05h0s-.06-.06-.08-.08h0s-.01-.01-.01-.02h0s0-.01-.01-.01h0s-.02-.02-.02-.02h0s-.01-.01-.01-.01h0s0,0,0,0h0s0,0,0,0h0ZM843.86,628.13l-14.27,16.51c.28.24.56.5.83.76l15.23-15.63s-.02-.02-.02-.02c0,0,0,0,0,0,0,0-.02-.02-.02-.02-.01-.01-.02-.02-.03-.03,0,0,0,0-.01-.01-.01-.01-.03-.02-.04-.04,0,0,0,0,0,0-.34-.33-.69-.66-1.04-.97,0,0,0,0,0,0-.02-.01-.03-.03-.05-.04,0,0,0,0,0,0-.02-.01-.03-.03-.05-.04,0,0,0,0,0,0-.01-.01-.03-.03-.04-.04,0,0,0,0,0,0-.01-.01-.03-.02-.04-.04,0,0,0,0-.01-.01-.01-.01-.02-.02-.04-.03h-.02s-.02-.03-.03-.04c0,0-.02-.02-.03-.02,0,0-.01-.01-.02-.02l-.02-.02s-.02-.02-.03-.03c0,0-.02-.01-.02-.02,0,0,0,0-.01-.01-.01-.01-.03-.02-.04-.04,0,0,0,0,0,0-.05-.04-.09-.08-.14-.12,0,0,0,0,0,0h0ZM840.01,625.19l-12.18,18.1c.3.21.61.42.9.65l13.25-17.33s-.09-.07-.13-.1c0,0,0,0-.01-.01,0,0-.02-.01-.03-.02-.01,0-.02-.02-.04-.03,0,0,0,0,0,0-.45-.34-.91-.67-1.38-.99,0,0,0,0-.01,0-.01-.01-.03-.02-.04-.03,0,0-.01,0-.02-.01,0,0-.02-.01-.03-.02-.01,0-.02-.02-.03-.02,0,0-.01,0-.02-.01-.01,0-.02-.02-.03-.02,0,0-.01,0-.02-.01-.01,0-.02-.02-.03-.02,0,0,0,0-.01,0-.01,0-.03-.02-.04-.03,0,0,0,0-.01,0-.01,0-.03-.02-.04-.03,0,0,0,0,0,0,0,0-.02-.01-.02-.02h0ZM835.84,622.73l-9.91,19.44c.33.17.65.35.97.53l11.07-18.8c-.7-.41-1.41-.8-2.13-1.17h0ZM831.4,620.79l-7.51,20.49c.35.13.7.27,1.03.41l8.72-20s-.02,0-.03-.01c0,0,0,0-.01,0-.73-.32-1.47-.61-2.21-.89h0ZM826.75,619.4l-5.01,21.24c.36.09.73.18,1.09.29l6.27-20.9c-.78-.23-1.56-.44-2.34-.63h0ZM821.98,618.57l-2.47,21.68c.37.04.75.1,1.12.16l3.74-21.5c-.8-.14-1.6-.25-2.4-.35h0ZM817.33,618.31v21.82c.35,0,.7,0,1.05.03l1.18-21.79c-.57-.03-1.13-.05-1.7-.06,0,0-.01,0-.02,0-.02,0-.03,0-.05,0,0,0-.02,0-.02,0,0,0-.02,0-.02,0-.01,0-.03,0-.04,0,0,0-.01,0-.02,0-.02,0-.03,0-.04,0,0,0-.01,0-.02,0-.02,0-.03,0-.05,0,0,0,0,0-.01,0-.02,0-.03,0-.05,0h-.01s-.03,0-.05,0h-.01s-.04,0-.05,0h-.06Z"/>
        <path class="cls-1" d="M817.33,719.21h-.04s-.02,0-.03,0h0s-.02,0-.03,0h0s-.02,0-.03,0h0s-.02,0-.03,0h0s-.02,0-.03,0h0s-.02,0-.03,0c0,0,0,0,0,0,0,0-.02,0-.03,0,0,0,0,0-.01,0,0,0-.01,0-.02,0,0,0,0,0-.01,0,0,0-.01,0-.02,0,0,0,0,0-.01,0,0,0-.01,0-.02,0,0,0,0,0-.01,0,0,0-.01,0-.02,0,0,0-.01,0-.02,0,0,0,0,0-.01,0,0,0-.02,0-.02,0,0,0,0,0,0,0,0,0-.02,0-.03,0,0,0,0,0,0,0-.01,0-.02,0-.03,0h0c-.18,0-.35.01-.53.02,0,0,0,0,0,0,0,0-.02,0-.03,0,0,0,0,0-.01,0,0,0-.01,0-.02,0,0,0-.01,0-.02,0,0,0,0,0,0,0,0,0-.02,0-.03,0,0,0,0,0,0,0,0,0-.02,0-.02,0l.58,10.84c.21-.01.42-.02.63-.02v-10.86h0ZM814.93,719.34s0,0,0,0c0,0-.02,0-.03,0,0,0,0,0-.01,0h-.01s-.02,0-.02,0c0,0,0,0-.01,0,0,0-.02,0-.03,0,0,0,0,0,0,0,0,0-.02,0-.03,0h0s-.02,0-.03,0c0,0,0,0,0,0-.01,0-.02,0-.03,0h0s-.02,0-.03,0c0,0,0,0,0,0-.03,0-.07,0-.1.01h0c-.06,0-.11.01-.17.02,0,0,0,0,0,0-.01,0-.02,0-.03,0,0,0,0,0,0,0-.01,0-.02,0-.03,0h0s-.04,0-.07,0c0,0,0,0,0,0-.01,0-.02,0-.03,0,0,0,0,0,0,0-.01,0-.02,0-.03,0,0,0,0,0,0,0-.01,0-.02,0-.03,0h0s-.04,0-.07,0h0s-.02,0-.03,0c0,0,0,0,0,0-.11.02-.23.03-.34.05l1.72,10.72c.21-.03.41-.06.62-.08l-1.15-10.8h0ZM812.54,719.72c-.39.08-.78.18-1.17.29l2.86,10.48c.2-.05.4-.1.61-.15l-2.29-10.61h0ZM810.22,720.35c-.38.13-.76.26-1.13.41l3.97,10.11c.19-.08.39-.15.58-.21l-3.42-10.31h0ZM807.97,721.24s0,0-.01,0c0,0,0,0-.01,0,0,0-.01,0-.02,0,0,0,0,0-.01,0,0,0-.01,0-.02,0,0,0,0,0-.01,0,0,0-.01,0-.02,0,0,0,0,0-.01,0,0,0,0,0-.01,0,0,0-.01,0-.02,0,0,0-.01,0-.02,0,0,0,0,0-.01,0,0,0-.01,0-.02,0,0,0,0,0-.01,0,0,0-.01,0-.02,0,0,0,0,0-.01,0,0,0,0,0-.01,0,0,0-.01,0-.02,0,0,0,0,0-.01,0,0,0-.01,0-.02.01,0,0,0,0-.01,0,0,0-.01,0-.02.01h0s-.01.01-.02.01c0,0,0,0,0,0,0,0-.01,0-.02.01,0,0,0,0,0,0,0,0-.02,0-.02.01,0,0,0,0,0,0h-.02s0,.01,0,.02c0,0-.02,0-.02.01,0,0,0,0,0,0,0,0-.02,0-.03.01,0,0,0,0,0,0,0,0-.02,0-.02.01,0,0,0,0,0,0,0,0-.02,0-.02.01,0,0,0,0,0,0,0,0-.02,0-.02.01,0,0,0,0,0,0,0,0-.02,0-.02.01,0,0,0,0,0,0,0,0-.02,0-.02.01,0,0,0,0,0,0,0,0-.01,0-.02.01,0,0,0,0-.01,0,0,0-.01,0-.02,0,0,0-.01,0-.02,0,0,0,0,0-.01,0,0,0-.01,0-.02,0h-.01s-.01.01-.02.01c0,0,0,0,0,0-.09.05-.18.09-.27.14l5.04,9.62c.18-.1.37-.19.55-.27l-4.51-9.88h0ZM805.83,722.35s0,0,0,0c0,0-.01,0-.02.01,0,0,0,0,0,0-.18.11-.35.21-.53.33,0,0,0,0,0,0,0,0-.02.01-.03.02,0,0,0,0,0,0,0,0-.02.01-.02.01,0,0,0,0,0,0,0,0-.01,0-.02.01,0,0,0,0,0,0,0,0-.01,0-.02.01,0,0,0,0-.01,0,0,0-.01,0-.02.01,0,0,0,0-.01,0,0,0,0,0,0,0,0,0-.02.01-.02.02,0,0,0,0,0,0,0,0-.02.01-.03.02h0c-.08.05-.16.1-.24.16l6.05,9.02c.17-.11.34-.22.52-.33l-5.55-9.33h0ZM803.83,723.7s-.07.06-.11.08c0,0,0,0,0,0,0,0-.02.01-.03.02,0,0,0,0,0,0,0,0-.02.01-.02.02,0,0,0,0,0,0,0,0-.01,0-.02.01h-.01s0,.02-.01.02c0,0-.01,0-.02.01,0,0,0,0-.01,0l-.02.02s0,0,0,0c0,0-.02.01-.03.02h0c-.14.11-.27.22-.41.33,0,0,0,0,0,0,0,0-.02.01-.02.02,0,0,0,0,0,0,0,0,0,0-.01.01,0,0-.01,0-.02.01,0,0,0,0-.01,0,0,0-.01.01-.02.02,0,0,0,0,0,0,0,0-.01.01-.02.02,0,0,0,0,0,0-.04.03-.07.06-.11.09l6.99,8.31c.16-.13.32-.26.48-.39l-6.53-8.68h0ZM801.99,725.25s0,0,0,0c0,0,0,0,0,0,0,0-.02.02-.02.02,0,0,0,0,0,0,0,0-.02.02-.02.02,0,0,0,0,0,0-.02.02-.03.03-.05.05,0,0,0,0,0,0-.04.04-.09.08-.13.12,0,0,0,0,0,0-.02.02-.03.03-.05.05,0,0,0,0,0,0,0,0-.02.02-.02.02,0,0,0,0,0,0,0,0-.02.02-.02.02h0s-.02.02-.02.02c0,0,0,0,0,0-.02.02-.03.03-.05.05,0,0,0,0,0,0,0,0-.02.01-.02.02,0,0,0,0,0,0,0,0-.01.01-.02.02,0,0,0,0,0,0l-.02.02h0s-.02.02-.02.03h0l-.34.34,7.68,7.68.34-.34c.09-.09.18-.18.27-.26l-7.43-7.92h0ZM800.27,726.95l-.77.77s0,0,0,0h0c-.05.05-.08.08-.08.08l7.68,7.68.85-.85-7.68-7.68h0ZM798.57,728.66l-.85.85,7.68,7.68.85-.85-7.68-7.68h0ZM796.86,730.36l-.66.66c-.11.11-.2.2-.2.2l7.68,7.68.85-.85-7.68-7.68h0ZM795.15,732.07l-.85.85,7.68,7.68.85-.85-7.68-7.68h0ZM793.45,733.78l-.55.55s0,0,0,0h0l-.3.3,7.68,7.68.85-.85-7.68-7.68h0ZM791.74,735.48s-.16.16-.35.35h0s0,0,0,0l-.5.5,7.68,7.68.85-.85-7.68-7.68h0ZM790.03,737.19l-.44.44s0,0,0,0h0c-.21.21-.41.41-.41.41l7.68,7.68.85-.85-7.68-7.68h0ZM788.33,738.89l-.47.47h0s0,0,0,0h0s0,0,0,0l-.37.37,7.68,7.68.85-.85-7.68-7.68h0ZM786.62,740.6l-.33.33-.52.52,7.68,7.68.85-.85-7.68-7.68h0ZM784.91,742.31s-.33.33-.58.58h0s0,0,0,0h0s0,0,0,0h0s0,0,0,0l-.26.26,7.68,7.68.85-.85-7.68-7.68h0ZM783.21,744.01l-.85.85,7.68,7.68.85-.85-7.68-7.68h0ZM781.5,745.72s-.46.46-.7.7h0s0,0,0,0h0s0,0,0,0l-.14.14,7.68,7.68.85-.85-7.68-7.68h0ZM779.79,747.43l-.85.85,7.68,7.68.85-.85-7.68-7.68h0ZM778.09,749.13l-.85.85,7.68,7.68.85-.85-7.68-7.68h0ZM776.38,750.84h0s0,0,0,0h0s-.02.02-.03.03h0s-.06.06-.1.1h0c-.24.24-.72.72-.72.72l7.68,7.68.85-.85-7.68-7.68h0ZM774.67,752.55l-.85.85,7.68,7.68.85-.85-7.68-7.68h0ZM772.97,754.25l-.85.85,7.68,7.68.85-.85-7.68-7.68h0ZM771.26,755.96l-.85.85,7.68,7.68.85-.85-7.68-7.68h0ZM769.56,757.67s-.11.11-.25.25l-.6.6,7.68,7.68.85-.85-7.68-7.68h0ZM767.85,759.37l-.85.85,7.68,7.68.85-.85-7.68-7.68h0ZM766.14,761.08s-.17.17-.37.37h0s0,0,0,0l-.48.48,7.68,7.68.85-.85-7.68-7.68h0ZM764.44,762.79l-.43.43c-.21.21-.42.42-.42.42l7.68,7.68.85-.85-7.68-7.68h0ZM762.73,764.49s-.25.25-.48.48h0s0,0,0,0l-.36.36,7.68,7.68.85-.85-7.68-7.68h0ZM761.02,766.2l-.31.31s0,0,0,0h0c-.24.24-.54.54-.54.54l7.68,7.68.85-.85-7.68-7.68h0ZM759.32,767.9l-.85.85,7.68,7.68.85-.85-7.68-7.68h0ZM757.61,769.61l-.2.2c-.25.25-.65.65-.65.65l7.68,7.68.85-.85-7.68-7.68h0ZM755.9,771.32l-.85.85,7.68,7.68.85-.85-7.68-7.68h0ZM754.2,773.02l-.09.09s0,0,0,0h0c-.22.22-.76.76-.76.76l7.68,7.68.85-.85-7.68-7.68h0ZM752.49,774.73l-.79.79s0,0,0,0l-.04.04h0s0,0,0,0h0s-.02.02-.02.02l7.68,7.68.85-.85-7.68-7.68h0ZM750.78,776.44s0,0-.02.02h0s0,0,0,0h0s0,0,0,0h0s0,0,0,0l-.83.83,7.68,7.68.85-.85-7.68-7.68h0ZM749.08,778.14l-.85.85,7.68,7.68.85-.85-7.68-7.68h0ZM747.37,779.85l-.13.13h0s0,0,0,0h0s0,0,0,0h0s0,0,0,0l-.71.71,7.68,7.68.85-.85-7.68-7.68h0ZM745.67,781.56l-.85.85,7.68,7.68.85-.85-7.68-7.68h0ZM743.96,783.26s-.11.11-.26.26l-.59.59,7.68,7.68.85-.85-7.68-7.68h0ZM742.25,784.97l-.85.85,7.68,7.68.85-.85-7.68-7.68h0ZM740.55,786.68l-.85.85,7.68,7.68.85-.85-7.68-7.68h0ZM738.84,788.38l-.85.85,7.68,7.68.85-.85-7.68-7.68h0ZM737.13,790.09l-.85.85,7.68,7.68.85-.85-7.68-7.68h0ZM735.43,791.79l-.85.85,7.68,7.68.85-.85-7.68-7.68h0ZM733.72,793.5l-.85.85,7.68,7.68.85-.85-7.68-7.68h0ZM732.01,795.21l-.19.19s0,0,0,0h0s0,0,0,0h0c-.25.25-.66.66-.66.66l7.68,7.68.85-.85-7.68-7.68h0ZM730.31,796.91l-.85.85,7.68,7.68.85-.85-7.68-7.68h0ZM728.6,798.62l-.85.85,7.68,7.68.85-.85-7.68-7.68h0ZM726.89,800.33l-.56.56s0,0,0,0h0s0,0,0,0l-.02.02s0,0,0,0h0s0,0,0,0l-.02.02s0,0,0,0h0s0,0,0,0h0s0,.01-.01.02h0s0,.01-.01.02h0s0,0,0,0h0s0,0,0,0h-.01s0,.01,0,.01h0s0,0,0,0h0s0,0,0,0h0s0,0,0,0h0s0,0,0,0h0s0,.01,0,.01h-.01s0,.02,0,.02h0s-.02.02-.02.03h0s-.01.02-.02.02h0s0,0-.01.01h0s0,0,0,0h0s0,0,0,0h0s0,0,0,0h0s0,0,0,0h0s0,0,0,0h0s0,0,0,0h0s0,0,0,0h0s0,0,0,0h0s0,0,0,0h0s0,0,0,0h0s0,0,0,0h0s7.68,7.68,7.68,7.68l.85-.85-7.68-7.68h0ZM725.2,802.04c-.07.08-.15.16-.22.24h0s-.02.02-.02.03c0,0,0,0,0,0,0,0-.01.01-.02.02,0,0,0,0,0,.01,0,0,0,0-.01.01,0,0-.01.01-.02.02h0s-.01.02-.02.03c0,0,0,0,0,0,0,0-.01.02-.02.02,0,0,0,0,0,0,0,0-.01.02-.02.02,0,0,0,0,0,0-.14.16-.28.33-.42.49l8.34,6.96c.13-.16.27-.31.41-.47l-7.95-7.4h0ZM723.65,803.9c-.1.13-.19.26-.29.4,0,0,0,0,0,0,0,0-.01.02-.02.03,0,0,0,0,0,0,0,0-.01.02-.02.02,0,0,0,0,0,0,0,0,0,.01-.01.02,0,0,0,0,0,.01,0,0,0,.01-.01.02,0,0,0,0-.01.01,0,0,0,0,0,.01v.02s-.02,0-.02.01c0,0,0,.01-.01.02,0,0,0,0,0,.01,0,0,0,.01-.01.02,0,0,0,0,0,.01,0,0,0,.01-.01.02,0,0,0,0,0,0,0,0,0,.01-.01.02,0,0,0,0,0,0,0,0-.01.02-.02.02,0,0,0,0,0,0,0,0-.01.02-.02.02,0,0,0,0,0,0,0,0-.01.02-.02.02,0,0,0,0,0,0,0,0-.01.02-.02.03,0,0,0,0,0,0,0,0-.01.02-.02.03,0,0,0,0,0,0-.04.06-.08.11-.11.17l9.04,6.02c.11-.17.23-.34.36-.5l-8.7-6.5h0ZM722.32,805.9s-.05.09-.08.13c0,0,0,0,0,0,0,0,0,.01-.01.02,0,0,0,.01-.01.02,0,0,0,0,0,0-.17.29-.33.58-.48.87l9.64,5c.09-.18.19-.36.3-.54l-9.35-5.52h0ZM721.21,808.04c-.1.22-.2.45-.29.67h0s0,.02-.01.03c0,0,0,0,0,0,0,0,0,.02-.01.03,0,0,0,0,0,0,0,0,0,.02-.01.02,0,0,0,0,0,0,0,0,0,.01,0,.02,0,0,0,.01,0,.02,0,0,0,0,0,.01,0,0,0,.01,0,.02,0,0,0,0,0,0-.03.09-.07.17-.1.26l10.12,3.93c.07-.19.15-.38.24-.57l-9.9-4.47h0ZM720.33,810.29c-.02.05-.03.11-.05.16,0,0,0,0,0,0,0,0,0,.02,0,.02,0,0,0,.01,0,.02,0,0,0,0,0,.01,0,0,0,.02,0,.02,0,0,0,0,0,0,0,.01,0,.02,0,.03,0,0,0,0,0,0-.07.22-.13.43-.19.65,0,0,0,0,0,0,0,0,0,.02,0,.03,0,0,0,0,0,0,0,0,0,.01,0,.02,0,0,0,.01,0,.02,0,0,0,0,0,0-.01.05-.03.09-.04.14l10.49,2.82c.05-.2.11-.4.18-.6l-10.32-3.38h0ZM719.71,812.62c-.02.12-.05.23-.07.35,0,0,0,0,0,0,0,.01,0,.02,0,.03,0,0,0,0,0,0,0,0,0,.02,0,.03,0,0,0,0,0,0,0,.01,0,.02,0,.03,0,0,0,0,0,0,0,0,0,.02,0,.03,0,0,0,0,0,0,0,0,0,.02,0,.03,0,0,0,0,0,0,0,0,0,.02,0,.03,0,0,0,0,0,0v.03s0,0,0,0c0,0,0,.02,0,.03,0,0,0,0,0,0,0,0,0,.02,0,.02,0,0,0,0,0,0,0,0,0,.02,0,.03h0s0,.03,0,.03c0,0,0,0,0,0,0,0,0,.02,0,.03,0,0,0,0,0,0,0,0,0,.02,0,.03,0,0,0,0,0,0,0,0,0,.01,0,.02,0,0,0,0,0,0,0,0,0,.02,0,.02,0,0,0,0,0,.01,0,0,0,.02,0,.02,0,0,0,0,0,.01,0,0,0,.02,0,.02,0,0,0,0,0,.01,0,0,0,.01,0,.02,0,0,0,.01,0,.02s0,0,0,.02c0,0,0,.01,0,.02,0,0,0,0,0,.01s0,0,0,.01c0,0,0,.01,0,.02,0,0,0,.01,0,.02h0s0,.03,0,.04c0,0,0,0,0,0,0,.01,0,.02,0,.03,0,0,0,0,0,0,0,.02,0,.04,0,.06l10.73,1.68c.03-.21.07-.41.11-.62l-10.62-2.25h0ZM719.33,815.01c-.01.1-.02.21-.03.31,0,0,0,0,0,.01,0,0,0,.01,0,.02,0,0,0,.01,0,.02h0s0,.03,0,.04c0,0,0,0,0,0-.02.27-.04.53-.05.8l10.85.53c.01-.21.03-.42.05-.63l-10.8-1.11h0ZM730.07,817.37l-10.86.04c0,.07,0,.14,0,.2,0,0,0,0,0,0v.02s0,.01,0,.02h0s0,.03,0,.04h0c0,.31.02.62.03.92l10.84-.62c-.01-.21-.02-.42-.02-.63h0ZM730.15,818.63l-10.79,1.19c0,.09.02.18.03.26,0,0,0,0,0,0,0,0,0,.02,0,.03,0,0,0,0,0,0,0,0,0,.01,0,.02.03.24.06.48.1.72,0,0,0,0,0,0,0,.01,0,.02,0,.03,0,0,0,0,0,0,0,0,0,.01,0,.02,0,0,0,.01,0,.02,0,0,0,0,0,.01,0,0,0,.02,0,.02,0,0,0,0,0,0,0,0,0,.02,0,.03l10.72-1.76c-.03-.21-.06-.41-.09-.62h0ZM730.35,819.87l-10.61,2.33c.02.11.05.22.07.33,0,0,0,0,0,0,0,0,0,.02,0,.03,0,0,0,0,0,.01,0,0,0,0,0,.01,0,0,0,.01,0,.02,0,0,0,0,0,.01,0,0,0,.02,0,.03,0,0,0,0,0,0,0,0,0,.02,0,.03,0,0,0,0,0,0,.05.22.11.44.17.65,0,0,0,0,0,0,0,0,0,.02,0,.03h0s0,.01,0,.01l10.47-2.9c-.06-.2-.11-.4-.15-.61h0ZM730.68,821.07l-10.3,3.46s.01.04.02.05h0s0,.02.01.03c0,0,0,0,0,0,0,0,0,.02,0,.03,0,0,0,0,0,0,0,0,0,.01,0,.02,0,0,0,.01,0,.02,0,0,0,0,0,.01,0,0,0,.01,0,.02,0,0,0,0,0,.01,0,0,0,.01,0,.02,0,0,0,.01,0,.02,0,0,0,.01,0,.02,0,0,0,0,0,.01,0,0,0,.01,0,.02,0,0,0,0,0,.01,0,0,0,.01,0,.02,0,0,0,0,0,.01,0,0,0,.01,0,.02,0,0,0,0,0,.01,0,0,0,.02,0,.02,0,0,0,0,0,.01,0,0,0,.01,0,.02,0,0,0,0,0,.01,0,0,0,.01,0,.02,0,0,0,0,0,.01,0,0,0,.01,0,.02,0,0,0,0,0,.01,0,0,0,.01,0,.02,0,0,0,0,0,.01,0,0,0,.01,0,.02,0,0,0,.01,0,.02,0,0,0,0,0,.01,0,0,0,.01,0,.02,0,0,0,0,0,.01,0,0,0,.01,0,.02,0,0,0,0,0,.01v.02s.01.01.01.01c0,0,0,.01,0,.02,0,0,0,0,0,0,0,0,0,.02.01.03,0,0,0,0,0,0,0,0,0,.02.01.03,0,0,0,0,0,0,0,.01,0,.02.01.03,0,0,0,0,0,0,.01.03.02.06.03.09h0s0,.02.01.03h0c.02.05.04.11.06.16,0,0,0,0,0,0,0,.01,0,.02.01.03,0,0,0,0,0,0,0,0,0,.01,0,.02l10.09-4.01c-.08-.19-.15-.39-.21-.58h0ZM731.14,822.22l-9.86,4.55c.02.05.05.1.07.15,0,0,0,0,0,.01,0,0,0,.01,0,.02,0,0,0,.01,0,.02,0,0,0,0,0,0,0,0,0,.02.01.02,0,0,0,0,0,0,0,0,0,.02.01.03,0,0,0,0,0,0,0,.01,0,.02.01.03h0c.13.26.26.52.39.78l9.6-5.07c-.1-.18-.19-.37-.27-.55h0ZM731.72,823.31l-9.31,5.59c.21.34.42.68.65,1.02l8.99-6.09c-.12-.17-.23-.34-.33-.52h0ZM732.41,824.34l-8.65,6.57c.04.05.08.11.13.16,0,0,0,0,0,0,0,0,.01.02.02.03,0,0,0,0,0,0,0,0,.01.01.02.02,0,0,0,0,0,0,0,0,.01.01.02.02,0,0,0,0,0,0,0,0,.01.02.02.02,0,0,0,0,0,0,0,0,.01.02.02.03,0,0,0,0,0,0,.17.21.34.42.51.63l8.28-7.02c-.13-.16-.26-.32-.39-.48h0ZM733.21,825.28l-7.89,7.46s.04.05.06.07c0,0,0,0,0,0,0,0,.01.01.02.02,0,0,0,0,0,0,0,0,.01.01.02.02,0,0,0,0,0,0,0,0,.01.01.02.02,0,0,0,0,0,0,0,0,.01.01.02.02,0,0,0,0,0,.01,0,0,0,0,.01.01,0,0,0,0,.01.01,0,0,.01.01.02.02,0,0,0,0,0,0,0,0,.01.01.02.02,0,0,0,0,0,0,0,0,.01.01.02.02,0,0,0,0,0,0,0,0,.01.01.02.02,0,0,0,0,0,0,0,0,.01.01.02.02h0s.01.02.02.03c0,0,0,0,0,0,0,0,.01.01.02.02,0,0,0,0,0,0,0,0,.01.01.02.02,0,0,0,0,0,0,0,0,.01.01.02.02,0,0,0,0,0,0,0,0,.02.02.02.02h0s0,0,.02.02h0s.03.03.05.05h0s.04.04.06.06h0s.02.02.03.04h0s.01.01.02.02h0s0,0,0,0h0s0,0,0,0l.02.02h0s0,0,0,0c0,0,0,0,0,0h0s.01.01.02.02h0s.01.01.02.02h0s0,0,0,0h0s0,0,0,0h0s0,.01.01.02h0s0,0,0,0h0s0,0,0,0h0s0,0,0,0h0s0,0,0,0h0s0,0,0,0h0s0,0,0,0h0s0,0,0,0h.01s0,.01,0,.01h0s0,0,0,0h0s0,0,0,0h0s0,0,0,0h0s0,0,0,0h0s0,0,0,0h0s0,0,0,0h0s0,0,0,0h0s0,0,0,0h0s0,0,0,0h0s0,0,0,0h0s0,0,0,0h0s0,0,0,0h0s0,0,0,0h0s0,0,0,0h0s7.68-7.68,7.68-7.68l-.4-.4c-.08-.08-.15-.16-.23-.24h0ZM734.69,826.77l-7.68,7.68.03.03h0s0,0,0,0h0s0,0,0,0c0,0,0,0,0,0h0s0,0,0,0h0c.16.17.82.82.82.82l7.68-7.68-.85-.85h0ZM736.4,828.48l-7.68,7.68.85.85,7.68-7.68-.85-.85h0ZM738.11,830.19l-7.68,7.68.15.15c.25.24.7.7.7.7l7.68-7.68-.85-.85h0ZM739.81,831.89l-7.68,7.68.85.85,7.68-7.68-.85-.85h0ZM741.52,833.6l-7.68,7.68.27.27c.25.25.58.58.58.58l7.68-7.68-.85-.85h0ZM743.23,835.31l-7.68,7.68.85.85,7.68-7.68-.85-.85h0ZM744.93,837.01l-7.68,7.68.85.85,7.68-7.68-.85-.85h0ZM746.64,838.72l-7.68,7.68.85.85,7.68-7.68-.85-.85h0ZM748.35,840.43l-7.68,7.68.85.85,7.68-7.68-.85-.85h0ZM750.05,842.13l-7.68,7.68.85.85,7.68-7.68-.85-.85h0ZM751.76,843.84l-7.68,7.68.85.85,7.68-7.68-.85-.85h0ZM753.47,845.55l-7.68,7.68.85.85,7.68-7.68-.85-.85h0ZM755.17,847.25l-7.68,7.68.85.85,7.68-7.68-.85-.85h0ZM756.88,848.96l-7.68,7.68.85.85,7.68-7.68-.85-.85h0ZM758.59,850.66l-7.68,7.68.13.13h0s.09.09.13.14h0s.02.03.04.04h0s.02.03.04.04h0s.01.01.02.02h0s.01.01.02.02h0s0,0,0,.01h0s0,0,0,0h0s0,0,0,0h0s0,0,0,0h0s0,0,0,0l.02.02h0s0,0,0,0c0,0,0,0,0,0h0s0,0,0,0h0s0,0,0,0h0s0,0,0,0h0s0,.01,0,.01h0s0,0,0,0h0s0,0,0,.01h0s0,0,0,0h.01s0,.01,0,.01h0s0,0,0,0h0s0,0,0,0h0s0,0,0,0h0s0,0,0,0l.02.02s0,0,0,0h0s0,0,0,0l.02.02s0,0,0,0h0s0,0,0,0l.02.02s0,0,0,0h0s0,0,0,0h0s0,0,0,0h0s0,0,0,0h.01s0,.01,0,.01h0s0,0,0,0h0s0,0,0,0h0s.07.07.07.07c0,0,0,0,0,0h0s0,0,0,0l.02.02h.01s0,.01,0,.01l.06.06,7.68-7.68-.85-.85h0ZM760.29,852.37l-7.68,7.68.85.85,7.68-7.68-.85-.85h0ZM762,854.08l-7.68,7.68.85.85,7.68-7.68-.85-.85h0ZM763.7,855.78l-7.68,7.68s.42.42.67.67h0s0,0,0,0l.17.17,7.68-7.68-.85-.85h0ZM765.41,857.49l-7.68,7.68.85.85,7.68-7.68-.85-.85h0ZM767.12,859.2l-7.68,7.68s.32.32.56.56l.29.29,7.68-7.68-.85-.85h0ZM768.82,860.9l-7.68,7.68.85.85,7.68-7.68-.85-.85h0ZM770.53,862.61l-7.68,7.68.85.85,7.68-7.68-.85-.85h0ZM772.24,864.32l-7.68,7.68.85.85,7.68-7.68-.85-.85h0ZM773.94,866.02l-7.68,7.68.85.85,7.68-7.68-.85-.85h0ZM775.65,867.73l-7.68,7.68.59.59c.15.15.27.27.27.27l7.68-7.68-.85-.85h0ZM777.36,869.44l-7.68,7.68.85.85,7.68-7.68-.85-.85h0ZM779.06,871.14l-7.68,7.68.7.7c.09.09.16.16.16.16l7.68-7.68-.85-.85h0ZM780.77,872.85l-7.68,7.68.85.85,7.68-7.68-.85-.85h0ZM782.48,874.56l-7.68,7.68.81.81s0,0,0,0h0s0,0,0,0h0s.03.03.03.03l7.68-7.68-.85-.85h0ZM784.18,876.26l-7.68,7.68h0s0,0,0,0h0s0,0,0,0c0,0,0,0,0,0h0s0,0,0,0h0s0,0,.01.01h0s0,0,0,0h0s0,0,0,0h0s0,0,0,0h0s0,0,0,0h0s0,0,0,0h0s0,0,0,.01h0s.01.01.02.02h0s.02.02.02.03h0s0,0,.01.01h0s0,0,0,0h0s0,0,0,0h0s0,.01,0,.01h0s0,0,0,0h0s0,0,0,0h0s0,0,0,0h0s0,0,0,0h0s0,.01,0,.01h0s0,0,0,0h0s0,.01.01.02h0s0,.01.01.02h0s0,0,0,0h0s0,0,0,0l.02.02h0s0,0,0,0c0,0,0,0,0,0l.02.02s0,0,0,0h0s0,0,0,0l.56.56,7.68-7.68-.85-.85h0ZM785.89,877.97l-7.68,7.68s.56.56.77.77h0s.07.08.07.08l7.68-7.68-.85-.85h0ZM787.59,879.67l-7.68,7.68.85.85,7.68-7.68-.85-.85h0ZM789.3,881.38l-7.68,7.68s.4.4.66.66h0s0,0,0,0h0s0,0,0,0l.19.19,7.68-7.68-.85-.85h0ZM791.01,883.09l-7.68,7.68.85.85,7.68-7.68-.85-.85h0ZM792.71,884.79l-7.68,7.68.54.54h0s0,0,0,0l.3.3,7.68-7.68-.85-.85h0ZM794.42,886.5l-7.68,7.68.35.35s0,0,0,0h0c.23.23.5.5.5.5l7.68-7.68-.85-.85h0ZM796.13,888.21l-7.68,7.68s.21.21.43.43h0s0,0,0,0l.42.42,7.68-7.68-.85-.85h0ZM797.83,889.91l-7.68,7.68.47.47h0s0,0,0,0c.2.2.38.38.38.38l7.68-7.68-.85-.85h0ZM799.54,891.62l-7.68,7.68.33.33h0s0,0,0,0h0s0,0,0,0l.52.52,7.68-7.68-.85-.85h0ZM801.25,893.33l-7.68,7.68.59.59.26.26,7.68-7.68-.85-.85h0ZM802.95,895.03l-7.68,7.68.85.85,7.68-7.68-.85-.85h0ZM804.66,896.74l-7.68,7.68.85.85,7.68-7.68-.85-.85h0ZM806.37,898.45l-7.68,7.68.85.85,7.68-7.68-.85-.85h0ZM808.07,900.15l-7.68,7.68.85.85,7.68-7.68-.85-.85h0ZM809.48,901.55l-7.37,7.98c.09.08.18.16.27.24,0,0,0,0,0,0,0,0,.02.01.02.02h0s.01.02.02.02c0,0,0,0,.01.01,0,0,0,0,.01.01l.02.02h0c.18.16.36.32.54.47l6.93-8.36c-.16-.13-.31-.27-.47-.41h0ZM810.43,902.34l-6.46,8.73c.32.24.65.47.99.69l5.98-9.06c-.17-.11-.34-.23-.51-.35h0ZM811.46,903.02l-5.48,9.38c.35.2.7.4,1.06.58l4.96-9.66c-.18-.09-.36-.19-.54-.3h0ZM812.56,903.58l-4.43,9.91c.37.16.74.32,1.11.46l3.89-10.14c-.19-.07-.38-.15-.57-.24h0ZM813.72,904.02l-3.34,10.33.05.02s0,0,0,0c0,0,.01,0,.02,0,0,0,.01,0,.02,0h.01s.02,0,.03.01c0,0,0,0,0,0,0,0,.02,0,.03,0,0,0,0,0,0,0,.25.08.49.15.74.22,0,0,0,0,0,0,0,0,.01,0,.02,0,0,0,.01,0,.02,0,0,0,0,0,0,0,.07.02.13.04.2.05l2.78-10.5c-.2-.05-.4-.11-.6-.18h0ZM814.92,904.34l-2.21,10.63c.23.05.46.09.7.13,0,0,0,0,0,0,.01,0,.02,0,.03,0,0,0,0,0,0,0,0,0,.02,0,.03,0,0,0,0,0,0,0,0,0,.01,0,.02,0h.02s0,0,.01,0c.12.02.25.04.37.06l1.64-10.73c-.21-.03-.41-.07-.62-.11h0ZM816.17,904.53l-1.07,10.81s.08,0,.12.01h0s.02,0,.03,0c0,0,0,0,0,0,0,0,.02,0,.03,0,0,0,0,0,0,0,0,0,.02,0,.02,0,0,0,0,0,.01,0,0,0,.01,0,.02,0h.02s0,0,0,0c.01,0,.02,0,.03,0,0,0,0,0,0,0,.21.02.42.03.64.05,0,0,0,0,0,0,0,0,.02,0,.03,0,0,0,0,0,.01,0,0,0,.01,0,.02,0,0,0,.01,0,.02,0,0,0,0,0,.01,0,0,0,.02,0,.03,0,0,0,0,0,0,0,.05,0,.09,0,.14,0l.49-10.85c-.21,0-.42-.02-.63-.05h0ZM818.05,904.57c-.21.01-.42.02-.63.02l.08,10.86c.4,0,.8-.02,1.21-.04l-.66-10.84h0ZM819.3,904.43c-.21.03-.41.06-.62.09l1.23,10.79c.22-.02.43-.05.64-.08,0,0,0,0,0,0,0,0,.02,0,.03,0h0s.02,0,.03,0c0,0,0,0,0,0,0,0,.02,0,.03,0h0s.02,0,.03,0c0,0,0,0,0,0,0,0,.02,0,.02,0,0,0,0,0,.01,0,0,0,.02,0,.02,0h.01s.01,0,.02,0c0,0,.01,0,.02,0,0,0,0,0,.01,0,0,0,.01,0,.02,0,0,0,0,0,.01,0h.02s0,0,.01,0c0,0,.01,0,.02,0,0,0,0,0,0,0,.01,0,.02,0,.03,0,0,0,0,0,0,0,.01,0,.02,0,.03,0,0,0,0,0,0,0,.04,0,.09-.01.13-.02l-1.8-10.71h0ZM820.53,904.15c-.2.06-.4.11-.61.15l2.37,10.6s.04,0,.06-.01c0,0,0,0,0,0,0,0,.02,0,.03,0,0,0,0,0,.01,0,0,0,0,0,.01,0h.03s0,0,0,0c.3-.07.61-.15.91-.23,0,0,0,0,.01,0,0,0,.01,0,.02,0,0,0,.01,0,.02,0,0,0,0,0,0,0,0,0,.02,0,.03,0,0,0,0,0,0,0,0,0,.02,0,.02,0l-2.94-10.45h0ZM821.7,903.75c-.19.08-.39.15-.58.22l3.49,10.28c.21-.07.42-.15.63-.23h0s.02,0,.03-.01c0,0,0,0,0,0,0,0,.02,0,.03-.01,0,0,0,0,0,0,0,0,.02,0,.03-.01,0,0,0,0,0,0,0,0,.02,0,.03-.01,0,0,0,0,0,0,0,0,.02,0,.03-.01,0,0,0,0,0,0,0,0,.02,0,.03-.01,0,0,0,0,0,0,0,0,.02,0,.03-.01,0,0,0,0,0,0,0,0,.02,0,.03-.01,0,0,0,0,0,0,.02,0,.04-.02.06-.02,0,0,0,0,0,0,.06-.02.12-.05.18-.07l-4.04-10.08h0ZM822.82,903.23c-.18.1-.37.19-.55.28l4.58,9.84c.36-.17.72-.35,1.08-.54l-5.11-9.58h0ZM823.88,902.59c-.17.12-.34.23-.52.33l5.62,9.29c.34-.21.68-.43,1.01-.65l-6.12-8.97h0ZM824.86,901.84c-.16.13-.32.26-.48.39l6.6,8.62s.09-.07.14-.11c0,0,0,0,0,0,0,0,.01-.01.02-.02,0,0,0,0,0,0,0,0,.01,0,.02-.01,0,0,0,0,.01,0,0,0,0,0,.01,0,0,0,.01-.01.02-.02h0s.02-.02.03-.02c0,0,0,0,0,0,.08-.07.17-.13.25-.2,0,0,0,0,0,0l.03-.02s0,0,0,0c0,0,.01-.01.02-.02,0,0,0,0,.01,0,0,0,0,0,.01,0,0,0,.01-.01.02-.02,0,0,0,0,0,0,0,0,.01-.01.02-.02,0,0,0,0,0,0,0,0,.02-.01.02-.02,0,0,0,0,0,0,.09-.08.18-.15.27-.23l-7.06-8.26h0ZM825.99,900.76l-.46.46c-.07.07-.14.13-.2.2l7.49,7.86s.03-.03.05-.05h0s.01-.01.02-.02c0,0,0,0,0,0,0,0,.01,0,.02-.01,0,0,0,0,.01-.01,0,0,0,0,.01-.01,0,0,.01-.01.02-.02,0,0,0,0,0,0,0,0,.01-.01.02-.02,0,0,0,0,0,0,0,0,.01-.01.02-.02,0,0,0,0,0,0,0,0,.01-.01.02-.02,0,0,0,0,0,0,0,0,.01-.01.02-.02,0,0,0,0,0,0,0,0,.01-.01.02-.02h0s.01-.02.02-.02c0,0,0,0,0,0,0,0,.01-.01.02-.02h0s.01-.02.02-.02c0,0,0,0,0,0,0,0,.01-.01.02-.02h0s.02-.02.03-.03h0l.46-.46-7.68-7.68h0ZM827.69,899.06l-.85.85,7.68,7.68.85-.85-7.68-7.68h0ZM829.4,897.35l-.85.85,7.68,7.68.85-.85-7.68-7.68h0ZM831.11,895.64l-.85.85,7.68,7.68.66-.66c.11-.11.2-.2.2-.2l-7.68-7.68h0ZM832.81,893.94l-.85.85,7.68,7.68.85-.85-7.68-7.68h0ZM834.52,892.23l-.85.85,7.68,7.68.55-.55.31-.31-7.68-7.68h0ZM836.23,890.52l-.85.85,7.68,7.68s.17-.17.36-.36h0s0,0,0,0l.49-.49-7.68-7.68h0ZM837.93,888.82l-.85.85,7.68,7.68.44-.44c.21-.21.41-.41.41-.41l-7.68-7.68h0ZM839.64,887.11l-.85.85,7.68,7.68.48-.48h0s0,0,0,0l.37-.37-7.68-7.68h0ZM841.35,885.4l-.85.85,7.68,7.68.32-.32c.24-.24.53-.53.53-.53l-7.68-7.68h0ZM843.05,883.7l-.85.85,7.68,7.68.6-.6h0s0,0,0,0l.25-.25-7.68-7.68h0ZM844.76,881.99l-.85.85,7.68,7.68.2-.2s0,0,0,0h0c.25-.25.65-.65.65-.65l-7.68-7.68h0ZM846.46,880.28l-.85.85,7.68,7.68.85-.85-7.68-7.68h0ZM848.17,878.58l-.85.85,7.68,7.68.85-.85-7.68-7.68h0ZM849.88,876.87l-.85.85,7.68,7.68.85-.85-7.68-7.68h0ZM851.58,875.17l-.85.85,7.68,7.68h0l.85-.85-7.68-7.68h0ZM853.29,873.46l-.85.85,7.68,7.68.85-.85-7.68-7.68h0ZM855,871.75l-.85.85,7.68,7.68.13-.13h0s0,0,0,0l.72-.72-7.68-7.68h0ZM856.7,870.05l-.85.85,7.68,7.68.85-.85-7.68-7.68h0ZM858.41,868.34l-.85.85,7.68,7.68.25-.25.6-.6-7.68-7.68h0ZM860.12,866.63l-.85.85,7.68,7.68.85-.85-7.68-7.68h0ZM861.82,864.93l-.85.85,7.68,7.68.37-.37h0s0,0,0,0l.48-.48-7.68-7.68h0ZM863.53,863.22l-.85.85,7.68,7.68.43-.43c.21-.21.42-.42.42-.42l-7.68-7.68h0ZM865.24,861.51l-.85.85,7.68,7.68.85-.85-7.68-7.68h0ZM866.94,859.81l-.85.85,7.68,7.68.31-.31c.24-.24.54-.54.54-.54l-7.68-7.68h0ZM868.65,858.1l-.85.85,7.68,7.68.85-.85-7.68-7.68h0ZM870.35,856.39l-.85.85,7.68,7.68.2-.2c.25-.25.65-.65.65-.65l-7.68-7.68h0ZM872.06,854.69l-.85.85,7.68,7.68.85-.85-7.68-7.68h0ZM873.77,852.98l-.85.85,7.68,7.68.08-.08s0,0,0,0h0c.22-.22.77-.77.77-.77l-7.68-7.68h0ZM875.47,851.27l-.85.85,7.68,7.68.64-.64h0s.11-.11.11-.11c0,0,0,0,0,0h0s0,0,0,0l.02-.02s0,0,0,0h0s0,0,0,0h0s0,0,0,0h0s0,0,0,0h0s0,0,0,0h0s0,0,0,0h0s0,0,0,0h0s0,0,0,0l.02-.02s0,0,0,0h0s0,0,0,0h0s0,0,0,0l.02-.02-7.68-7.68h0ZM877.18,849.57l-.85.85,7.68,7.68.85-.85-7.68-7.68h0ZM878.89,847.86l-.85.85,7.68,7.68.85-.85-7.68-7.68h0ZM880.59,846.16l-.85.85,7.68,7.68s.05-.05.13-.13h0s0,0,0,0h0s0,0,0,0l.71-.71-7.68-7.68h0ZM882.3,844.45l-.85.85,7.68,7.68.85-.85-7.68-7.68h0ZM884.01,842.74l-.85.85,7.68,7.68s.11-.11.26-.26h0s0,0,0,0l.59-.59-7.68-7.68h0ZM885.71,841.04l-.85.85,7.68,7.68.85-.85-7.68-7.68h0ZM887.42,839.33l-.85.85,7.68,7.68.85-.85-7.68-7.68h0ZM889.13,837.62l-.85.85,7.68,7.68.85-.85-7.68-7.68h0ZM890.83,835.92l-.85.85,7.68,7.68.85-.85-7.68-7.68h0ZM892.54,834.21l-.85.85,7.68,7.68.85-.85-7.68-7.68h0ZM894.25,832.5l-.85.85,7.68,7.68.85-.85-7.68-7.68h0ZM895.95,830.8l-.85.85,7.68,7.68s.44-.44.68-.68l.17-.17-7.68-7.68h0ZM897.66,829.09l-.85.85,7.68,7.68.85-.85-7.68-7.68h0ZM899.36,827.38l-.85.85,7.68,7.68.85-.85-7.68-7.68h0ZM901.07,825.68l-.85.85,7.68,7.68.46-.46s0,0,0,0l.03-.03s0,0,0,0l.02-.02s0,0,0,0h0s0,0,0,0h0s0,0,0,0h0s0,0,0,0l.02-.02h0s0,0,0,0c0,0,0,0,0,0l.02-.02s0,0,0,0h0s0,0,0,0h0s0,0,0,0h0s.02-.03.03-.04h0s.01-.01.02-.02h0s.01-.01.01-.02h0s0-.01.01-.02h0s0,0,0,0h0s0,0,0,0h0s0,0,0,0h0s0,0,0,0h0s0,0,0,0h0s0-.01.01-.01h0s.02-.02.03-.03h0s.03-.03.04-.04h0s.02-.02.03-.03h0s0,0,0,0h0l-7.68-7.68h0ZM901.99,824.68c-.13.16-.27.32-.41.47l8.01,7.34c.27-.3.54-.6.79-.91l-8.39-6.9h0ZM902.72,823.69c-.11.17-.23.34-.35.51l8.75,6.43s0,0,0-.01c0,0,0-.01.01-.02,0,0,0,0,0-.01,0,0,0-.01.01-.02,0,0,0,0,0-.01,0,0,0-.01.01-.02,0,0,0,0,0-.01,0,0,0-.01.01-.02,0,0,0,0,0-.01,0,0,0-.01.01-.02,0,0,0,0,0-.01,0,0,0,0,0-.01,0,0,0-.01.01-.02,0,0,0,0,0-.01,0,0,0-.01.01-.02,0,0,0,0,0-.01,0,0,0-.01.01-.02,0,0,0,0,.01-.01,0,0,0,0,.01-.01,0,0,0,0,0-.01,0,0,0-.01.01-.02,0,0,0,0,0-.01,0,0,0-.01.01-.02,0,0,0,0,0,0,0,0,.01-.01.02-.02,0,0,0,0,0,0,0,0,.01-.02.02-.02,0,0,0,0,0,0,0,0,.01-.02.02-.02,0,0,0,0,0,0,0,0,.01-.02.02-.03,0,0,0,0,0,0,.12-.18.25-.36.37-.54l-9.09-5.95h0ZM903.34,822.62c-.09.18-.19.36-.29.54l9.4,5.44c.07-.12.14-.24.2-.36,0,0,0,0,0,0,0-.01.01-.02.02-.03,0,0,0,0,0,0,0-.01.01-.02.02-.03,0,0,0,0,0,0,0,0,0-.01,0-.02,0,0,0,0,0,0,0,0,.01-.02.02-.03,0,0,0,0,0,0,0,0,0-.02.01-.02,0,0,0,0,0-.01,0,0,0-.01.01-.02,0,0,0,0,0,0,0,0,0-.02.01-.02,0,0,0,0,0,0,0,0,0-.02.01-.02,0,0,0,0,0,0,0,0,0-.01,0-.02,0,0,0,0,0,0,0,0,0-.02.01-.03,0,0,0,0,0,0,0,0,0-.02.01-.03,0,0,0,0,0,0,0,0,0-.02.01-.03,0,0,0,0,0,0,0-.01.01-.02.02-.03h0c.05-.1.1-.2.16-.3,0,0,0,0,0,0l-9.68-4.92h0ZM903.84,821.49c-.07.19-.15.38-.24.57l9.93,4.39c.13-.3.26-.6.38-.91h0s0-.02.01-.03c0,0,0,0,0,0v-.02s.01,0,.01-.01c0,0,0,0,0-.01,0,0,0-.01,0-.02,0,0,0,0,0,0,0,0,0-.02,0-.02,0,0,0,0,0,0,0,0,0-.02.01-.03,0,0,0,0,0,0,0,0,0-.02.01-.03l-10.15-3.85h0ZM904.22,820.31c-.05.2-.11.4-.17.6l10.35,3.3s.03-.08.04-.13c0,0,0,0,0-.01,0,0,0-.01,0-.02,0,0,0-.01,0-.02,0,0,0,0,0-.01,0,0,0-.01,0-.02,0,0,0,0,0,0,0,0,0-.02,0-.03,0,0,0,0,0,0,0-.01,0-.02,0-.03,0,0,0,0,0,0,.08-.26.15-.52.22-.78,0,0,0,0,0,0,0,0,0-.02,0-.03,0,0,0,0,0-.01,0,0,0-.01,0-.02,0,0,0-.01,0-.02,0,0,0,0,0,0h0s-10.51-2.75-10.51-2.75h0ZM904.47,819.08c-.03.21-.07.41-.11.62l10.64,2.17c.08-.39.15-.79.21-1.19l-10.74-1.6h0ZM904.59,817.83c0,.21-.02.42-.04.63l10.81,1.03s0-.1.01-.15c0,0,0,0,0,0,0-.01,0-.02,0-.03,0,0,0,0,0,0v-.02s0-.01,0-.02c0,0,0,0,0-.01,0,0,0-.02,0-.02,0,0,0,0,0-.01,0,0,0-.01,0-.02h0s0-.03,0-.03c0,0,0,0,0,0,0,0,0-.02,0-.03h0s0-.02,0-.03h0c.02-.27.04-.54.05-.8l-10.85-.45h0ZM915.41,815.87l-10.84.7c.01.21.02.42.02.63l10.86-.12c0-.4-.02-.8-.05-1.21h0ZM915.13,813.47l-10.7,1.85c.04.21.07.41.09.62l10.78-1.27c-.04-.37-.1-.73-.16-1.09h0s0-.02,0-.03c0,0,0,0,0,0,0,0,0-.02,0-.02h0s0-.02,0-.03c0,0,0,0,0-.01h0ZM914.59,811.12l-10.44,2.98c.06.2.11.4.16.61l10.59-2.41c-.09-.39-.19-.78-.3-1.17h0ZM913.8,808.84l-10.06,4.08c.08.19.15.39.22.58l10.27-3.53c-.02-.07-.05-.14-.07-.21h0s0-.02-.01-.03c0,0,0,0,0,0v-.02s-.01-.01-.01-.02c0,0,0,0,0-.01,0,0,0-.02,0-.02,0,0,0,0,0,0,0,0,0-.02,0-.03,0,0,0,0,0,0-.09-.26-.19-.51-.3-.77h0ZM912.78,806.65l-9.56,5.15c.1.18.19.37.28.55l9.83-4.62c-.17-.36-.35-.72-.54-1.08h0ZM911.52,804.6l-8.95,6.16c.12.17.23.34.34.52l9.27-5.66c-.21-.34-.43-.68-.66-1.01h0ZM910.05,802.69l-8.23,7.09c.14.16.27.32.39.48l8.6-6.63c-.06-.08-.13-.17-.2-.25,0,0,0,0,0,0,0,0-.01-.02-.02-.03,0,0,0,0,0,0,0,0-.01-.02-.02-.02,0,0,0,0,0,0,0,0-.01-.01-.02-.02,0,0,0,0,0,0l-.02-.02s0,0,0,0c0,0,0-.01-.01-.02,0,0,0,0,0-.01h-.01s0-.02-.01-.03c0,0,0,0-.01-.01,0,0,0,0-.01-.01,0,0,0-.01-.01-.02,0,0,0,0-.01-.01h-.01s0-.02-.01-.03c0,0,0,0-.01-.01s0-.01-.01-.01c0,0,0,0,0-.01,0,0,0-.01-.01-.02,0,0,0,0,0,0,0,0-.01-.01-.02-.02,0,0,0,0,0,0,0,0-.01-.01-.02-.02,0,0,0,0,0,0,0,0-.01-.01-.02-.02,0,0,0,0,0,0,0,0-.01-.01-.02-.02,0,0,0,0,0,0,0,0-.01-.02-.02-.02,0,0,0,0,0,0,0,0-.01-.02-.02-.03h0c-.06-.07-.11-.13-.17-.2h0ZM908.39,800.94l-7.68,7.68.52.52.17.17,7.84-7.52s-.04-.04-.06-.06c0,0,0,0,0,0,0,0-.01-.01-.02-.02,0,0,0,0,0,0,0,0,0,0-.01-.01,0,0-.01-.01-.02-.02,0,0,0,0,0,0,0,0-.01-.01-.02-.02,0,0,0,0,0,0,0,0-.01-.01-.02-.02,0,0,0,0,0,0,0,0-.01-.01-.02-.02,0,0,0,0,0,0,0,0-.02-.02-.02-.02,0,0,0,0,0,0,0,0-.02-.02-.02-.02,0,0,0,0,0,0,0,0-.01-.01-.02-.02,0,0,0,0,0,0,0,0-.01-.01-.02-.02h0s-.02-.02-.02-.03h0s0-.02-.02-.02h0s-.02-.02-.03-.03h0s-.02-.02-.03-.03h0s-.01-.01-.02-.02h0s-.01-.01-.02-.02h0s-.01-.02-.02-.02h0s0,0,0-.01h0s0,0,0,0h0s-.01-.02-.02-.02h0s0,0-.01-.01h0s0,0,0-.01h0s0-.01,0-.01h0s0,0,0,0h0s0,0,0,0h0s0-.01,0-.01l-.03-.03h0s0-.01,0-.01h0s0,0,0,0h0s0,0,0,0h0s-.01-.02-.01-.02h0s-.02-.02-.02-.02h0s0,0,0,0h0s0,0,0,0h0s-.02-.02-.02-.02h0s-.02-.02-.02-.02h0s-.03-.03-.03-.03h0s-.11-.11-.11-.11h0ZM906.68,799.23l-7.68,7.68.85.85,7.68-7.68-.85-.85h0ZM904.97,797.52l-7.68,7.68.85.85,7.68-7.68-.85-.85h0ZM903.27,795.82l-7.68,7.68.85.85,7.68-7.68-.15-.15h0s0,0,0,0c-.25-.25-.7-.7-.7-.7h0ZM901.56,794.11l-7.68,7.68.85.85,7.68-7.68-.85-.85h0ZM899.85,792.4l-7.68,7.68.85.85,7.68-7.68-.85-.85h0ZM898.15,790.7l-7.68,7.68.85.85,7.68-7.68-.85-.85h0ZM896.44,788.99l-7.68,7.68.85.85,7.68-7.68-.85-.85h0ZM894.73,787.29l-7.68,7.68.85.85,7.68-7.68-.85-.85h0ZM893.03,785.58l-7.68,7.68.85.85,7.68-7.68-.85-.85h0ZM891.32,783.87l-7.68,7.68.85.85,7.68-7.68-.85-.85h0ZM889.61,782.17l-7.68,7.68.85.85,7.68-7.68-.85-.85h0ZM887.91,780.46l-7.68,7.68.85.85,7.68-7.68-.69-.69c-.1-.1-.16-.16-.16-.16h0ZM886.2,778.75l-7.68,7.68.85.85,7.68-7.68-.85-.85h0ZM884.5,777.05l-7.68,7.68.85.85,7.68-7.68-.85-.85h0ZM882.79,775.34l-7.68,7.68.85.85,7.68-7.68h0s-.01-.01-.04-.04h0s-.06-.06-.1-.1h0s-.04-.04-.06-.07h0s-.02-.02-.03-.03h0s-.02-.02-.03-.03h0s0-.01,0-.01h0s0,0,0,0h0s0,0,0,0h0s0,0,0,0h0s0,0,0-.01h0s0,0,0,0h0s-.01-.01-.02-.02h0s0,0,0-.01h0s0,0,0,0h0s0,0,0-.01h0s0,0,0,0h-.01s0-.01,0-.02h0s0,0,0,0l-.05-.05s0,0,0,0h0s0,0,0,0l-.03-.03s0,0,0,0l-.02-.02h0s0,0,0,0c0,0,0,0,0,0l-.11-.11s0,0,0,0h0s0,0,0,0l-.21-.21h0ZM881.08,773.63l-7.68,7.68.85.85,7.68-7.68-.85-.85h0ZM879.38,771.93l-7.68,7.68.85.85,7.68-7.68-.85-.85h0ZM877.67,770.22l-7.68,7.68.85.85,7.68-7.68s-.42-.42-.67-.67l-.18-.18h0ZM875.96,768.51l-7.68,7.68.85.85,7.68-7.68-.85-.85h0ZM874.26,766.81l-7.68,7.68.85.85,7.68-7.68-.55-.55h0s0,0,0,0l-.29-.29h0ZM872.55,765.1l-7.68,7.68.85.85,7.68-7.68-.85-.85h0ZM870.84,763.4l-7.68,7.68.85.85,7.68-7.68-.85-.85h0ZM869.14,761.69l-7.68,7.68.85.85,7.68-7.68-.47-.47c-.2-.2-.39-.39-.39-.39h0ZM867.43,759.98l-7.68,7.68.85.85,7.68-7.68-.85-.85h0ZM865.72,758.28l-7.68,7.68.85.85,7.68-7.68-.59-.59-.26-.26h0ZM864.02,756.57l-7.68,7.68.85.85,7.68-7.68-.85-.85h0ZM862.31,754.86l-7.68,7.68.85.85,7.68-7.68-.7-.7h0s0,0,0,0l-.15-.15h0ZM860.6,753.16l-7.68,7.68.85.85,7.68-7.68-.85-.85h0ZM858.9,751.45l-7.68,7.68.85.85,7.68-7.68-.85-.85h0ZM857.19,749.74l-7.68,7.68.85.85,7.68-7.68h0s0,0,0,0c0,0,0,0,0,0h0s0,0,0,0h0s0,0,0,0h0s0,0,0,0h0s0,0,0,0h0s0,0,0,0h0s0,0,0,0h0s0,0,0,0h0s0,0,0,0h0s0,0,0,0h0s0,0,0,0h0s0,0,0,0c0,0,0,0,0,0h0s0,0,0,0h0s0,0,0,0h0s0,0,0,0h0s0,0,0,0h0s0,0,0,0h0s0,0,0,0h0s0-.01,0-.01h0s0,0,0-.01h0s0,0-.01-.01h0s0,0,0,0h0s0,0,0,0h0s0,0,0,0h0s0,0,0,0h0s0,0,0,0h0s0,0,0-.01h0s0,0,0,0l-.04-.04h0s-.02-.02-.02-.02h0s0,0,0,0h0s0,0,0,0c0,0,0,0,0,0h0s0,0,0,0h-.01s0-.02,0-.02h0s0,0,0,0l-.63-.63h0ZM855.49,748.04l-7.68,7.68.85.85,7.68-7.68-.85-.85h0ZM853.78,746.33l-7.68,7.68.85.85,7.68-7.68-.85-.85h0ZM852.07,744.62l-7.68,7.68.85.85,7.68-7.68-.65-.65h0s0,0,0,0l-.19-.19h0ZM850.37,742.92l-7.68,7.68.85.85,7.68-7.68-.24-.24-.61-.61h0ZM848.66,741.21l-7.68,7.68.85.85,7.68-7.68-.54-.54-.31-.31h0ZM846.95,739.5l-7.68,7.68.85.85,7.68-7.68-.36-.36-.5-.5h0ZM845.25,737.8l-7.68,7.68.85.85,7.68-7.68s-.21-.21-.43-.43l-.43-.43h0ZM843.54,736.09l-7.68,7.68.85.85,7.68-7.68-.48-.48c-.2-.2-.38-.38-.38-.38h0ZM841.83,734.39l-7.68,7.68.85.85,7.68-7.68s-.15-.15-.32-.32h0s-.53-.54-.53-.54h0ZM840.13,732.68l-7.68,7.68.85.85,7.68-7.68-.6-.6s0,0,0,0h0c-.14-.14-.25-.25-.25-.25h0ZM838.42,730.97l-7.68,7.68.85.85,7.68-7.68s-.09-.09-.21-.21h0s0,0,0,0l-.63-.63h0ZM836.71,729.27l-7.68,7.68.85.85,7.68-7.68-.85-.85h0ZM835.01,727.56l-7.68,7.68.85.85,7.68-7.68-.85-.85h0ZM833.3,725.85l-7.68,7.68.85.85,7.68-7.68-.85-.85h0ZM831.52,724.23l-6.86,8.42c.16.13.32.27.47.41l7.31-8.03c-.3-.27-.6-.53-.91-.79h0ZM829.57,722.81l-5.91,9.11c.17.11.34.23.51.35l6.4-8.78s0,0,0,0c0,0,0,0,0,0,0,0-.02-.01-.03-.02h0s-.09-.07-.14-.1c0,0,0,0,0,0,0,0-.02-.01-.03-.02,0,0,0,0,0,0,0,0-.02-.01-.03-.02,0,0,0,0,0,0,0,0-.02-.01-.02-.02,0,0,0,0,0,0,0,0-.01,0-.02-.01,0,0,0,0-.01,0s0,0-.01,0c0,0-.01,0-.02-.01,0,0,0,0,0,0-.22-.15-.43-.3-.65-.44h0ZM827.48,721.61l-4.89,9.7c.18.09.36.19.54.29l5.41-9.42c-.35-.2-.7-.39-1.06-.57h0ZM825.27,720.64l-3.81,10.17c.19.07.38.15.57.23l4.35-9.95c-.37-.16-.74-.31-1.12-.45h0ZM822.96,719.92l-2.7,10.52c.2.05.4.11.6.17l3.26-10.36c-.38-.12-.77-.23-1.16-.33h0ZM820.6,719.44l-1.56,10.75c.21.03.41.07.62.11l2.13-10.65c-.39-.08-.79-.15-1.19-.21h0ZM818.2,719.23l-.41,10.85c.21,0,.42.02.63.04l.99-10.81c-.4-.04-.8-.06-1.2-.08h0Z"/>
      </g>
    </g>
  </g>
</svg>